<svg width="139" height="33" viewBox="0 0 139 33" fill="none" xmlns="http://www.w3.org/2000/svg">
<g clip-path="url(#clip0_2008_39)">
<rect width="33" height="33" rx="8" fill="url(#paint0_linear_2008_39)"/>
<path d="M16.132 4.45605L7.22205 20.2901H8.74387L5.60205 26.0621H6.01932H6.09296H6.26478H7.7375L10.0202 21.7461H9.52932L7.49205 25.6201H6.33841L9.23478 20.2901H20.673L20.4766 19.8481H9.48023L16.1075 7.65405L25.8275 25.6201H22.293L22.6366 24.8921H24.6493L16.9666 10.7741L16.7702 11.2941L23.913 24.4501H22.3666L21.6057 26.0621H26.5639L16.1075 6.74405L8.98932 19.8481H7.98296L16.132 5.34005L27.742 26.8161H6.26478H5.70023H5.20932L4.96387 27.258H28.4784L16.132 4.45605Z" fill="#1F2A24"/>
<path d="M37.152 22.5L40.808 10.868H44.04L47.696 22.5H45.32L44.264 18.86L45.52 19.78H39.776L40.128 17.964H44.992L44.256 18.836L43.104 14.908L42.464 12.42H42.36L41.728 14.908L39.52 22.5H37.152ZM48.9249 22.5V13.772H50.8689L51.0769 17.164L50.9169 16.668C50.9649 16.2573 51.0449 15.868 51.1569 15.5C51.2742 15.132 51.4315 14.804 51.6289 14.516C51.8315 14.228 52.0795 14.0013 52.3729 13.836C52.6715 13.6707 53.0209 13.588 53.4209 13.588C53.5275 13.588 53.6342 13.5933 53.7409 13.604C53.8529 13.6147 53.9515 13.6333 54.0369 13.66V15.98C53.8555 15.9267 53.6715 15.892 53.4849 15.876C53.3035 15.8547 53.1275 15.844 52.9569 15.844C52.7062 15.844 52.4609 15.8787 52.2209 15.948C51.9809 16.012 51.7675 16.1133 51.5809 16.252C51.3942 16.3853 51.2475 16.5533 51.1409 16.756V22.5H48.9249ZM59.0078 22.62C58.1438 22.62 57.4024 22.4467 56.7838 22.1C56.1651 21.748 55.6904 21.2387 55.3598 20.572C55.0291 19.9 54.8638 19.084 54.8638 18.124C54.8638 17.1533 55.0371 16.332 55.3838 15.66C55.7358 14.988 56.2238 14.476 56.8478 14.124C57.4771 13.772 58.2078 13.596 59.0398 13.596C59.8504 13.596 60.5358 13.7533 61.0958 14.068C61.6611 14.3773 62.0904 14.8387 62.3837 15.452C62.6771 16.06 62.8238 16.8067 62.8238 17.692C62.8238 17.836 62.8184 17.972 62.8078 18.1C62.8024 18.228 62.7944 18.38 62.7838 18.556H57.0398C57.0931 19.356 57.2878 19.9427 57.6238 20.316C57.9651 20.6893 58.4078 20.876 58.9518 20.876C59.4318 20.876 59.7971 20.772 60.0478 20.564C60.2984 20.356 60.4558 20.1027 60.5198 19.804H62.6398C62.5918 20.3853 62.4104 20.8893 62.0958 21.316C61.7864 21.7373 61.3678 22.06 60.8398 22.284C60.3171 22.508 59.7064 22.62 59.0078 22.62ZM57.9838 17.204H60.6718C60.6504 16.6067 60.5038 16.1533 60.2318 15.844C59.9651 15.5347 59.5384 15.38 58.9518 15.38C58.3064 15.38 57.8291 15.604 57.5198 16.052C57.2158 16.4947 57.0504 17.1187 57.0238 17.924C57.0664 17.6467 57.1651 17.4573 57.3198 17.356C57.4744 17.2547 57.6958 17.204 57.9838 17.204ZM66.7648 22.596C66.2528 22.596 65.7914 22.5 65.3808 22.308C64.9754 22.116 64.6554 21.8387 64.4208 21.476C64.1914 21.1133 64.0768 20.684 64.0768 20.188C64.0768 19.6653 64.1781 19.236 64.3808 18.9C64.5834 18.5587 64.8661 18.2893 65.2288 18.092C65.5914 17.8893 66.0101 17.74 66.4848 17.644C66.8154 17.5747 67.1568 17.5187 67.5087 17.476C67.8661 17.428 68.1994 17.3907 68.5088 17.364C68.8181 17.3373 69.0688 17.316 69.2608 17.3V17.004C69.2608 16.4333 69.1568 16.02 68.9488 15.764C68.7408 15.5027 68.3834 15.372 67.8767 15.372C67.5514 15.372 67.2768 15.4147 67.0528 15.5C66.8341 15.5853 66.6688 15.74 66.5568 15.964C66.4448 16.188 66.3888 16.5107 66.3888 16.932H64.3248C64.2661 16.1693 64.3808 15.5427 64.6688 15.052C64.9621 14.5613 65.3914 14.1987 65.9568 13.964C66.5274 13.724 67.1968 13.604 67.9648 13.604C68.4181 13.604 68.8501 13.6547 69.2608 13.756C69.6768 13.852 70.0448 14.02 70.3648 14.26C70.6901 14.4947 70.9461 14.8173 71.1328 15.228C71.3248 15.6387 71.4208 16.1587 71.4208 16.788V22.5H69.2448L69.2608 20.5C69.1648 21.0867 68.9194 21.5827 68.5248 21.988C68.1301 22.3933 67.5434 22.596 66.7648 22.596ZM67.4368 21.052C67.7088 21.052 67.9728 21.004 68.2288 20.908C68.4901 20.8067 68.7141 20.668 68.9008 20.492C69.0928 20.316 69.2128 20.1133 69.2608 19.884V18.404C69.0474 18.436 68.8154 18.4733 68.5648 18.516C68.3141 18.5587 68.0954 18.6013 67.9088 18.644C67.3434 18.7613 66.9461 18.924 66.7168 19.132C66.4928 19.3347 66.3808 19.62 66.3808 19.988C66.3808 20.2067 66.4234 20.396 66.5088 20.556C66.5994 20.716 66.7248 20.8387 66.8848 20.924C67.0501 21.0093 67.2341 21.052 67.4368 21.052ZM77.3251 22.66C76.4558 22.66 75.6851 22.524 75.0131 22.252C74.3411 21.9747 73.8158 21.5533 73.4371 20.988C73.0638 20.4173 72.8825 19.6947 72.8931 18.82H75.0691C75.0798 19.236 75.1705 19.588 75.3411 19.876C75.5171 20.1587 75.7758 20.372 76.1171 20.516C76.4638 20.66 76.8931 20.732 77.4051 20.732C77.8585 20.732 78.2291 20.684 78.5171 20.588C78.8051 20.4867 79.0185 20.34 79.1571 20.148C79.2958 19.956 79.3651 19.7267 79.3651 19.46C79.3651 19.1667 79.2771 18.9213 79.1011 18.724C78.9251 18.5213 78.6478 18.3347 78.2691 18.164C77.8905 17.988 77.3971 17.796 76.7891 17.588C76.0958 17.3427 75.4878 17.06 74.9651 16.74C74.4478 16.4147 74.0478 16.0227 73.7651 15.564C73.4825 15.1 73.3411 14.5453 73.3411 13.9C73.3411 12.8493 73.6931 12.052 74.3971 11.508C75.1065 10.9587 76.0718 10.684 77.2931 10.684C78.1305 10.684 78.8211 10.8147 79.3651 11.076C79.9091 11.3373 80.3225 11.724 80.6051 12.236C80.8931 12.748 81.0718 13.38 81.1411 14.132H78.9891C78.9625 13.8013 78.8798 13.524 78.7411 13.3C78.6078 13.0707 78.4185 12.9 78.1731 12.788C77.9331 12.6707 77.6318 12.612 77.2691 12.612C76.7145 12.612 76.2878 12.7133 75.9891 12.916C75.6905 13.1187 75.5411 13.428 75.5411 13.844C75.5411 14.116 75.5998 14.356 75.7171 14.564C75.8345 14.7667 76.0505 14.964 76.3651 15.156C76.6851 15.3427 77.1465 15.5507 77.7491 15.78C78.2558 15.9773 78.7411 16.1667 79.2051 16.348C79.6691 16.5293 80.0798 16.7427 80.4371 16.988C80.7998 17.228 81.0825 17.5293 81.2851 17.892C81.4931 18.2493 81.5998 18.708 81.6051 19.268C81.6105 20.3827 81.2371 21.228 80.4851 21.804C79.7331 22.3747 78.6798 22.66 77.3251 22.66ZM83.0968 22.5V13.772H85.3048L85.2968 22.5H83.0968ZM84.2088 12.628C83.8248 12.628 83.4994 12.4947 83.2328 12.228C82.9661 11.9613 82.8328 11.62 82.8328 11.204C82.8328 10.788 82.9661 10.4493 83.2328 10.188C83.5048 9.92133 83.8301 9.788 84.2088 9.788C84.5874 9.788 84.9101 9.92133 85.1768 10.188C85.4488 10.4493 85.5848 10.788 85.5848 11.204C85.5848 11.62 85.4488 11.9613 85.1768 12.228C84.9101 12.4947 84.5874 12.628 84.2088 12.628ZM87.5186 22.5V13.772H89.4626L89.6706 17.06L89.5586 16.396C89.6226 15.916 89.7426 15.4627 89.9186 15.036C90.1 14.604 90.372 14.2547 90.7346 13.988C91.1026 13.7213 91.596 13.588 92.2146 13.588C92.908 13.588 93.476 13.7933 93.9186 14.204C94.3666 14.6093 94.6413 15.236 94.7426 16.084L94.7746 16.372V22.5H92.5586V17.516C92.5586 16.988 92.5106 16.5773 92.4146 16.284C92.324 15.9853 92.188 15.7747 92.0066 15.652C91.8253 15.5293 91.5986 15.468 91.3266 15.468C90.9586 15.468 90.636 15.58 90.3586 15.804C90.0813 16.028 89.8733 16.2867 89.7346 16.58V22.5H87.5186ZM97.5906 22.5V17.516C97.5906 16.988 97.5426 16.5773 97.4466 16.284C97.356 15.9853 97.22 15.7747 97.0386 15.652C96.8573 15.5293 96.6306 15.468 96.3586 15.468C95.9906 15.468 95.668 15.58 95.3906 15.804C95.1186 16.028 94.9133 16.2867 94.7746 16.58L94.7426 17.06L94.6546 16.492C94.708 16.028 94.82 15.5747 94.9906 15.132C95.1613 14.684 95.4253 14.316 95.7826 14.028C96.1453 13.7347 96.6333 13.588 97.2466 13.588C98.0306 13.588 98.652 13.8467 99.1106 14.364C99.5746 14.876 99.8066 15.66 99.8066 16.716V22.5H97.5906Z" fill="#1F2A24"/>
<path d="M113.619 13.0455V22.5H112.779L107.193 14.5827H107.119V22.5H106.256V13.0455H107.091L112.696 20.9719H112.77V13.0455H113.619ZM116.133 22.5V13.0455H121.617V13.821H116.996V17.3803H121.326V18.1559H116.996V21.7244H121.709V22.5H116.133ZM123.999 13.0455L126.617 17.1495H126.677L129.294 13.0455H130.314L127.272 17.7727L130.314 22.5H129.294L126.677 18.4421H126.617L123.999 22.5H122.979L126.067 17.7727L122.979 13.0455H123.999ZM131.379 13.821V13.0455H138.234V13.821H135.238V22.5H134.375V13.821H131.379Z" fill="#1F2A24"/>
</g>
<defs>
<linearGradient id="paint0_linear_2008_39" x1="0" y1="0" x2="18.4111" y2="39.7561" gradientUnits="userSpaceOnUse">
<stop stop-color="#F2FFF9"/>
<stop offset="0.139174" stop-color="#C7EAE2"/>
<stop offset="0.298077" stop-color="#A6DAD2"/>
<stop offset="0.567308" stop-color="#BBD7F4"/>
<stop offset="0.774038" stop-color="#D2DADA"/>
<stop offset="1" stop-color="#F4DEB4"/>
</linearGradient>
<clipPath id="clip0_2008_39">
<rect width="139" height="33" fill="white"/>
</clipPath>
</defs>
</svg>
