<svg width="475" height="698" viewBox="0 0 475 698" fill="none" xmlns="http://www.w3.org/2000/svg">
<rect width="475" height="698" fill="url(#paint0_linear_1994_3)"/>
<g clip-path="url(#clip0_1994_3)">
<path d="M102.5 91.936L66.2 156.49H72.4L59.6 180.022H61.3H61.6H62.3H68.3L77.6 162.426H75.6L67.3 178.22H62.6L74.4 156.49H121L120.2 154.688H75.4L102.4 104.974L142 178.22H127.6L129 175.252H137.2L105.9 117.694L105.1 119.814L134.2 173.45H127.9L124.8 180.022H145L102.4 101.264L73.4 154.688H69.3L102.5 95.54L149.8 183.096H62.3H60H58L57 184.898H152.8L102.5 91.936Z" fill="#B97B2B"/>
<path d="M49.152 212L52.808 200.368H56.04L59.696 212H57.32L56.264 208.36L57.52 209.28H51.776L52.128 207.464H56.992L56.256 208.336L55.104 204.408L54.464 201.92H54.36L53.728 204.408L51.52 212H49.152ZM60.9249 212V203.272H62.8689L63.0769 206.664L62.9169 206.168C62.9649 205.757 63.0449 205.368 63.1569 205C63.2742 204.632 63.4315 204.304 63.6289 204.016C63.8315 203.728 64.0795 203.501 64.3729 203.336C64.6715 203.171 65.0209 203.088 65.4209 203.088C65.5275 203.088 65.6342 203.093 65.7409 203.104C65.8529 203.115 65.9515 203.133 66.0369 203.16V205.48C65.8555 205.427 65.6715 205.392 65.4849 205.376C65.3035 205.355 65.1275 205.344 64.9569 205.344C64.7062 205.344 64.4609 205.379 64.2209 205.448C63.9809 205.512 63.7675 205.613 63.5809 205.752C63.3942 205.885 63.2475 206.053 63.1409 206.256V212H60.9249ZM71.0078 212.12C70.1438 212.12 69.4024 211.947 68.7838 211.6C68.1651 211.248 67.6904 210.739 67.3598 210.072C67.0291 209.4 66.8638 208.584 66.8638 207.624C66.8638 206.653 67.0371 205.832 67.3838 205.16C67.7358 204.488 68.2238 203.976 68.8478 203.624C69.4771 203.272 70.2078 203.096 71.0398 203.096C71.8504 203.096 72.5358 203.253 73.0958 203.568C73.6611 203.877 74.0904 204.339 74.3837 204.952C74.6771 205.56 74.8238 206.307 74.8238 207.192C74.8238 207.336 74.8184 207.472 74.8078 207.6C74.8024 207.728 74.7944 207.88 74.7838 208.056H69.0398C69.0931 208.856 69.2878 209.443 69.6238 209.816C69.9651 210.189 70.4078 210.376 70.9518 210.376C71.4318 210.376 71.7971 210.272 72.0478 210.064C72.2984 209.856 72.4558 209.603 72.5198 209.304H74.6398C74.5918 209.885 74.4104 210.389 74.0958 210.816C73.7864 211.237 73.3678 211.56 72.8398 211.784C72.3171 212.008 71.7064 212.12 71.0078 212.12ZM69.9838 206.704H72.6718C72.6504 206.107 72.5038 205.653 72.2318 205.344C71.9651 205.035 71.5384 204.88 70.9518 204.88C70.3064 204.88 69.8291 205.104 69.5198 205.552C69.2158 205.995 69.0504 206.619 69.0238 207.424C69.0664 207.147 69.1651 206.957 69.3198 206.856C69.4744 206.755 69.6958 206.704 69.9838 206.704ZM78.7648 212.096C78.2528 212.096 77.7914 212 77.3808 211.808C76.9754 211.616 76.6554 211.339 76.4208 210.976C76.1914 210.613 76.0768 210.184 76.0768 209.688C76.0768 209.165 76.1781 208.736 76.3808 208.4C76.5834 208.059 76.8661 207.789 77.2288 207.592C77.5914 207.389 78.0101 207.24 78.4848 207.144C78.8154 207.075 79.1568 207.019 79.5087 206.976C79.8661 206.928 80.1994 206.891 80.5088 206.864C80.8181 206.837 81.0688 206.816 81.2608 206.8V206.504C81.2608 205.933 81.1568 205.52 80.9488 205.264C80.7408 205.003 80.3834 204.872 79.8767 204.872C79.5514 204.872 79.2768 204.915 79.0528 205C78.8341 205.085 78.6688 205.24 78.5568 205.464C78.4448 205.688 78.3888 206.011 78.3888 206.432H76.3248C76.2661 205.669 76.3808 205.043 76.6688 204.552C76.9621 204.061 77.3914 203.699 77.9568 203.464C78.5274 203.224 79.1968 203.104 79.9648 203.104C80.4181 203.104 80.8501 203.155 81.2608 203.256C81.6768 203.352 82.0448 203.52 82.3648 203.76C82.6901 203.995 82.9461 204.317 83.1328 204.728C83.3248 205.139 83.4208 205.659 83.4208 206.288V212H81.2448L81.2608 210C81.1648 210.587 80.9194 211.083 80.5248 211.488C80.1301 211.893 79.5434 212.096 78.7648 212.096ZM79.4368 210.552C79.7088 210.552 79.9728 210.504 80.2288 210.408C80.4901 210.307 80.7141 210.168 80.9008 209.992C81.0928 209.816 81.2128 209.613 81.2608 209.384V207.904C81.0474 207.936 80.8154 207.973 80.5648 208.016C80.3141 208.059 80.0954 208.101 79.9088 208.144C79.3434 208.261 78.9461 208.424 78.7168 208.632C78.4928 208.835 78.3808 209.12 78.3808 209.488C78.3808 209.707 78.4234 209.896 78.5088 210.056C78.5994 210.216 78.7248 210.339 78.8848 210.424C79.0501 210.509 79.2341 210.552 79.4368 210.552ZM89.3251 212.16C88.4558 212.16 87.6851 212.024 87.0131 211.752C86.3411 211.475 85.8158 211.053 85.4371 210.488C85.0638 209.917 84.8825 209.195 84.8931 208.32H87.0691C87.0798 208.736 87.1705 209.088 87.3411 209.376C87.5171 209.659 87.7758 209.872 88.1171 210.016C88.4638 210.16 88.8931 210.232 89.4051 210.232C89.8585 210.232 90.2291 210.184 90.5171 210.088C90.8051 209.987 91.0185 209.84 91.1571 209.648C91.2958 209.456 91.3651 209.227 91.3651 208.96C91.3651 208.667 91.2771 208.421 91.1011 208.224C90.9251 208.021 90.6478 207.835 90.2691 207.664C89.8905 207.488 89.3971 207.296 88.7891 207.088C88.0958 206.843 87.4878 206.56 86.9651 206.24C86.4478 205.915 86.0478 205.523 85.7651 205.064C85.4825 204.6 85.3411 204.045 85.3411 203.4C85.3411 202.349 85.6931 201.552 86.3971 201.008C87.1065 200.459 88.0718 200.184 89.2931 200.184C90.1305 200.184 90.8211 200.315 91.3651 200.576C91.9091 200.837 92.3225 201.224 92.6051 201.736C92.8931 202.248 93.0718 202.88 93.1411 203.632H90.9891C90.9625 203.301 90.8798 203.024 90.7411 202.8C90.6078 202.571 90.4185 202.4 90.1731 202.288C89.9331 202.171 89.6318 202.112 89.2691 202.112C88.7145 202.112 88.2878 202.213 87.9891 202.416C87.6905 202.619 87.5411 202.928 87.5411 203.344C87.5411 203.616 87.5998 203.856 87.7171 204.064C87.8345 204.267 88.0505 204.464 88.3651 204.656C88.6851 204.843 89.1465 205.051 89.7491 205.28C90.2558 205.477 90.7411 205.667 91.2051 205.848C91.6691 206.029 92.0798 206.243 92.4371 206.488C92.7998 206.728 93.0825 207.029 93.2851 207.392C93.4931 207.749 93.5998 208.208 93.6051 208.768C93.6105 209.883 93.2371 210.728 92.4851 211.304C91.7331 211.875 90.6798 212.16 89.3251 212.16ZM95.0968 212V203.272H97.3048L97.2968 212H95.0968ZM96.2088 202.128C95.8248 202.128 95.4994 201.995 95.2328 201.728C94.9661 201.461 94.8328 201.12 94.8328 200.704C94.8328 200.288 94.9661 199.949 95.2328 199.688C95.5048 199.421 95.8301 199.288 96.2088 199.288C96.5874 199.288 96.9101 199.421 97.1768 199.688C97.4488 199.949 97.5848 200.288 97.5848 200.704C97.5848 201.12 97.4488 201.461 97.1768 201.728C96.9101 201.995 96.5874 202.128 96.2088 202.128ZM99.5186 212V203.272H101.463L101.671 206.56L101.559 205.896C101.623 205.416 101.743 204.963 101.919 204.536C102.1 204.104 102.372 203.755 102.735 203.488C103.103 203.221 103.596 203.088 104.215 203.088C104.908 203.088 105.476 203.293 105.919 203.704C106.367 204.109 106.641 204.736 106.743 205.584L106.775 205.872V212H104.559V207.016C104.559 206.488 104.511 206.077 104.415 205.784C104.324 205.485 104.188 205.275 104.007 205.152C103.825 205.029 103.599 204.968 103.327 204.968C102.959 204.968 102.636 205.08 102.359 205.304C102.081 205.528 101.873 205.787 101.735 206.08V212H99.5186ZM109.591 212V207.016C109.591 206.488 109.543 206.077 109.447 205.784C109.356 205.485 109.22 205.275 109.039 205.152C108.857 205.029 108.631 204.968 108.359 204.968C107.991 204.968 107.668 205.08 107.391 205.304C107.119 205.528 106.913 205.787 106.775 206.08L106.743 206.56L106.655 205.992C106.708 205.528 106.82 205.075 106.991 204.632C107.161 204.184 107.425 203.816 107.783 203.528C108.145 203.235 108.633 203.088 109.247 203.088C110.031 203.088 110.652 203.347 111.111 203.864C111.575 204.376 111.807 205.16 111.807 206.216V212H109.591Z" fill="#B97B2B"/>
<path d="M127.608 200.364V212H126.574L119.699 202.256H119.608V212H118.545V200.364H119.574L126.472 210.119H126.562V200.364H127.608ZM130.702 212V200.364H137.452V201.318H131.764V205.699H137.094V206.653H131.764V211.045H137.565V212H130.702ZM140.384 200.364L143.605 205.415H143.679L146.901 200.364H148.156L144.412 206.182L148.156 212H146.901L143.679 207.006H143.605L140.384 212H139.128L142.929 206.182L139.128 200.364H140.384ZM149.466 201.318V200.364H157.903V201.318H154.216V212H153.153V201.318H149.466Z" fill="#B97B2B"/>
</g>
<path d="M58.0767 313L49.7528 283.909H56.4716L61.2869 304.122H61.5284L66.8409 283.909H72.5938L77.892 304.165H78.1477L82.9631 283.909H89.6818L81.358 313H75.3636L69.8239 293.98H69.5966L64.071 313H58.0767ZM100.374 313.426C98.1679 313.426 96.2597 312.957 94.6499 312.02C93.0495 311.073 91.8137 309.757 90.9425 308.071C90.0713 306.376 89.6357 304.411 89.6357 302.176C89.6357 299.922 90.0713 297.953 90.9425 296.267C91.8137 294.572 93.0495 293.256 94.6499 292.318C96.2597 291.371 98.1679 290.898 100.374 290.898C102.581 290.898 104.484 291.371 106.085 292.318C107.694 293.256 108.935 294.572 109.806 296.267C110.677 297.953 111.113 299.922 111.113 302.176C111.113 304.411 110.677 306.376 109.806 308.071C108.935 309.757 107.694 311.073 106.085 312.02C104.484 312.957 102.581 313.426 100.374 313.426ZM100.403 308.739C101.406 308.739 102.245 308.455 102.917 307.886C103.589 307.309 104.096 306.523 104.437 305.528C104.787 304.534 104.962 303.402 104.962 302.134C104.962 300.865 104.787 299.733 104.437 298.739C104.096 297.744 103.589 296.958 102.917 296.381C102.245 295.803 101.406 295.514 100.403 295.514C99.3894 295.514 98.5372 295.803 97.8459 296.381C97.1641 296.958 96.648 297.744 96.2976 298.739C95.9567 299.733 95.7862 300.865 95.7862 302.134C95.7862 303.402 95.9567 304.534 96.2976 305.528C96.648 306.523 97.1641 307.309 97.8459 307.886C98.5372 308.455 99.3894 308.739 100.403 308.739ZM115.048 313V291.182H120.914V294.989H121.141C121.539 293.634 122.207 292.612 123.144 291.92C124.082 291.22 125.161 290.869 126.383 290.869C126.686 290.869 127.013 290.888 127.363 290.926C127.713 290.964 128.021 291.016 128.286 291.082V296.452C128.002 296.366 127.609 296.291 127.107 296.224C126.605 296.158 126.146 296.125 125.729 296.125C124.839 296.125 124.044 296.319 123.343 296.707C122.652 297.086 122.103 297.616 121.695 298.298C121.298 298.98 121.099 299.766 121.099 300.656V313H115.048ZM136.898 306.722L136.912 299.463H137.793L144.781 291.182H151.727L142.338 302.148H140.903L136.898 306.722ZM131.415 313V283.909H137.466V313H131.415ZM145.051 313L138.631 303.497L142.665 299.222L152.139 313H145.051ZM172.849 297.403L167.31 297.744C167.215 297.271 167.011 296.845 166.699 296.466C166.386 296.078 165.974 295.77 165.463 295.543C164.961 295.306 164.36 295.188 163.659 295.188C162.722 295.188 161.931 295.386 161.287 295.784C160.643 296.172 160.321 296.693 160.321 297.347C160.321 297.867 160.529 298.308 160.946 298.668C161.363 299.027 162.078 299.316 163.091 299.534L167.04 300.33C169.161 300.765 170.742 301.466 171.784 302.432C172.826 303.398 173.347 304.667 173.347 306.239C173.347 307.669 172.925 308.923 172.082 310.003C171.249 311.082 170.103 311.925 168.645 312.531C167.196 313.128 165.525 313.426 163.631 313.426C160.742 313.426 158.441 312.825 156.727 311.622C155.023 310.41 154.024 308.762 153.73 306.679L159.682 306.366C159.862 307.247 160.297 307.92 160.989 308.384C161.68 308.838 162.565 309.065 163.645 309.065C164.705 309.065 165.558 308.862 166.202 308.455C166.855 308.038 167.187 307.503 167.196 306.849C167.187 306.3 166.955 305.85 166.5 305.5C166.045 305.14 165.345 304.866 164.398 304.676L160.619 303.923C158.489 303.497 156.902 302.759 155.861 301.707C154.829 300.656 154.312 299.316 154.312 297.688C154.312 296.286 154.691 295.079 155.449 294.065C156.216 293.052 157.291 292.271 158.673 291.722C160.065 291.172 161.694 290.898 163.56 290.898C166.315 290.898 168.484 291.48 170.065 292.645C171.656 293.81 172.584 295.396 172.849 297.403ZM177.157 321.182V291.182H183.123V294.847H183.393C183.658 294.259 184.041 293.663 184.543 293.057C185.055 292.441 185.718 291.93 186.532 291.523C187.356 291.106 188.379 290.898 189.6 290.898C191.191 290.898 192.659 291.314 194.004 292.148C195.348 292.972 196.423 294.217 197.228 295.884C198.033 297.541 198.435 299.619 198.435 302.119C198.435 304.553 198.042 306.608 197.256 308.284C196.48 309.951 195.419 311.215 194.075 312.077C192.739 312.929 191.243 313.355 189.586 313.355C188.412 313.355 187.413 313.161 186.589 312.773C185.774 312.384 185.107 311.897 184.586 311.31C184.065 310.713 183.667 310.112 183.393 309.506H183.208V321.182H177.157ZM183.08 302.091C183.08 303.388 183.26 304.52 183.62 305.486C183.98 306.452 184.501 307.205 185.183 307.744C185.864 308.275 186.693 308.54 187.668 308.54C188.653 308.54 189.487 308.27 190.168 307.73C190.85 307.181 191.366 306.423 191.717 305.457C192.076 304.482 192.256 303.36 192.256 302.091C192.256 300.831 192.081 299.723 191.731 298.767C191.38 297.811 190.864 297.062 190.183 296.523C189.501 295.983 188.663 295.713 187.668 295.713C186.683 295.713 185.85 295.973 185.168 296.494C184.496 297.015 183.98 297.754 183.62 298.71C183.26 299.667 183.08 300.794 183.08 302.091ZM208.691 313.412C207.299 313.412 206.058 313.17 204.969 312.688C203.88 312.195 203.019 311.471 202.384 310.514C201.759 309.548 201.447 308.346 201.447 306.906C201.447 305.694 201.669 304.676 202.114 303.852C202.559 303.028 203.165 302.366 203.933 301.864C204.7 301.362 205.571 300.983 206.546 300.727C207.531 300.472 208.563 300.292 209.643 300.188C210.912 300.055 211.934 299.932 212.711 299.818C213.487 299.695 214.051 299.515 214.401 299.278C214.752 299.042 214.927 298.691 214.927 298.227V298.142C214.927 297.242 214.643 296.546 214.075 296.054C213.516 295.562 212.72 295.315 211.688 295.315C210.599 295.315 209.733 295.557 209.089 296.04C208.445 296.513 208.019 297.11 207.81 297.83L202.214 297.375C202.498 296.049 203.057 294.903 203.89 293.938C204.723 292.962 205.798 292.214 207.114 291.693C208.44 291.163 209.974 290.898 211.717 290.898C212.929 290.898 214.089 291.04 215.197 291.324C216.314 291.608 217.304 292.048 218.165 292.645C219.037 293.241 219.723 294.009 220.225 294.946C220.727 295.874 220.978 296.987 220.978 298.284V313H215.239V309.974H215.069C214.719 310.656 214.25 311.258 213.663 311.778C213.076 312.29 212.37 312.692 211.546 312.986C210.722 313.27 209.771 313.412 208.691 313.412ZM210.424 309.236C211.314 309.236 212.1 309.061 212.782 308.71C213.464 308.35 213.999 307.867 214.387 307.261C214.775 306.655 214.969 305.969 214.969 305.202V302.886C214.78 303.009 214.52 303.123 214.188 303.227C213.866 303.322 213.502 303.412 213.094 303.497C212.687 303.573 212.28 303.644 211.873 303.71C211.466 303.767 211.096 303.819 210.765 303.866C210.055 303.971 209.434 304.136 208.904 304.364C208.374 304.591 207.962 304.899 207.668 305.287C207.375 305.666 207.228 306.139 207.228 306.707C207.228 307.531 207.526 308.161 208.123 308.597C208.729 309.023 209.496 309.236 210.424 309.236ZM235.531 313.426C233.296 313.426 231.373 312.953 229.763 312.006C228.163 311.049 226.932 309.723 226.07 308.028C225.218 306.333 224.792 304.383 224.792 302.176C224.792 299.941 225.223 297.981 226.085 296.295C226.956 294.6 228.192 293.279 229.792 292.332C231.392 291.376 233.296 290.898 235.502 290.898C237.406 290.898 239.072 291.243 240.502 291.935C241.932 292.626 243.064 293.597 243.897 294.847C244.73 296.097 245.19 297.564 245.275 299.25H239.565C239.404 298.161 238.978 297.285 238.286 296.622C237.604 295.95 236.71 295.614 235.602 295.614C234.664 295.614 233.845 295.869 233.144 296.381C232.453 296.883 231.913 297.616 231.525 298.582C231.137 299.548 230.942 300.718 230.942 302.091C230.942 303.483 231.132 304.667 231.511 305.642C231.899 306.617 232.443 307.361 233.144 307.872C233.845 308.384 234.664 308.639 235.602 308.639C236.293 308.639 236.913 308.497 237.462 308.213C238.021 307.929 238.48 307.517 238.84 306.977C239.21 306.428 239.451 305.77 239.565 305.003H245.275C245.18 306.67 244.726 308.137 243.911 309.406C243.106 310.666 241.994 311.651 240.573 312.361C239.153 313.071 237.472 313.426 235.531 313.426ZM259.092 313.426C256.848 313.426 254.916 312.972 253.297 312.062C251.687 311.144 250.446 309.847 249.575 308.17C248.704 306.485 248.268 304.491 248.268 302.19C248.268 299.946 248.704 297.976 249.575 296.281C250.446 294.586 251.673 293.265 253.254 292.318C254.845 291.371 256.711 290.898 258.851 290.898C260.29 290.898 261.63 291.13 262.871 291.594C264.121 292.048 265.21 292.735 266.138 293.653C267.075 294.572 267.804 295.727 268.325 297.119C268.846 298.502 269.107 300.121 269.107 301.977V303.639H250.683V299.889H263.411C263.411 299.018 263.221 298.246 262.842 297.574C262.464 296.902 261.938 296.376 261.266 295.997C260.603 295.609 259.831 295.415 258.95 295.415C258.032 295.415 257.217 295.628 256.507 296.054C255.806 296.471 255.257 297.034 254.859 297.744C254.462 298.445 254.258 299.226 254.249 300.088V303.653C254.249 304.733 254.447 305.666 254.845 306.452C255.252 307.238 255.825 307.844 256.564 308.27C257.303 308.696 258.179 308.909 259.192 308.909C259.864 308.909 260.48 308.814 261.038 308.625C261.597 308.436 262.075 308.152 262.473 307.773C262.871 307.394 263.174 306.93 263.382 306.381L268.979 306.75C268.695 308.095 268.112 309.269 267.232 310.273C266.36 311.267 265.233 312.044 263.851 312.602C262.478 313.152 260.892 313.426 259.092 313.426ZM57.679 331.909V361H51.5284V331.909H57.679ZM68.6768 348.386V361H62.6257V339.182H68.3928V343.031H68.6484C69.1314 341.762 69.9411 340.759 71.0774 340.02C72.2138 339.272 73.5916 338.898 75.2109 338.898C76.7261 338.898 78.0471 339.229 79.174 339.892C80.3009 340.555 81.1768 341.502 81.8018 342.733C82.4268 343.955 82.7393 345.413 82.7393 347.108V361H76.6882V348.188C76.6977 346.852 76.3568 345.811 75.6655 345.062C74.9742 344.305 74.0225 343.926 72.8104 343.926C71.996 343.926 71.2763 344.101 70.6513 344.452C70.0357 344.802 69.5528 345.313 69.2024 345.986C68.8615 346.649 68.6863 347.449 68.6768 348.386ZM99.1136 339.182V343.727H85.9744V339.182H99.1136ZM88.9574 333.955H95.0085V354.295C95.0085 354.854 95.0938 355.29 95.2642 355.602C95.4347 355.905 95.6714 356.118 95.9744 356.241C96.2869 356.365 96.6468 356.426 97.054 356.426C97.3381 356.426 97.6222 356.402 97.9062 356.355C98.1903 356.298 98.4081 356.256 98.5597 356.227L99.5114 360.73C99.2083 360.825 98.7822 360.934 98.233 361.057C97.6837 361.189 97.0161 361.27 96.2301 361.298C94.7718 361.355 93.4934 361.161 92.3949 360.716C91.3059 360.271 90.4583 359.58 89.8523 358.642C89.2462 357.705 88.9479 356.521 88.9574 355.091V333.955ZM112.764 361.426C110.52 361.426 108.588 360.972 106.969 360.062C105.359 359.144 104.118 357.847 103.247 356.17C102.376 354.485 101.94 352.491 101.94 350.19C101.94 347.946 102.376 345.976 103.247 344.281C104.118 342.586 105.345 341.265 106.926 340.318C108.517 339.371 110.383 338.898 112.523 338.898C113.962 338.898 115.302 339.13 116.543 339.594C117.793 340.048 118.882 340.735 119.81 341.653C120.747 342.572 121.476 343.727 121.997 345.119C122.518 346.502 122.778 348.121 122.778 349.977V351.639H104.355V347.889H117.082C117.082 347.018 116.893 346.246 116.514 345.574C116.135 344.902 115.61 344.376 114.938 343.997C114.275 343.609 113.503 343.415 112.622 343.415C111.704 343.415 110.889 343.628 110.179 344.054C109.478 344.471 108.929 345.034 108.531 345.744C108.134 346.445 107.93 347.226 107.92 348.088V351.653C107.92 352.733 108.119 353.666 108.517 354.452C108.924 355.238 109.497 355.844 110.236 356.27C110.974 356.696 111.85 356.909 112.864 356.909C113.536 356.909 114.152 356.814 114.71 356.625C115.269 356.436 115.747 356.152 116.145 355.773C116.543 355.394 116.846 354.93 117.054 354.381L122.651 354.75C122.366 356.095 121.784 357.269 120.903 358.273C120.032 359.267 118.905 360.044 117.523 360.602C116.15 361.152 114.563 361.426 112.764 361.426ZM132.778 331.909V361H126.727V331.909H132.778ZM143.677 331.909V361H137.626V331.909H143.677ZM148.524 361V339.182H154.575V361H148.524ZM151.564 336.369C150.664 336.369 149.893 336.071 149.249 335.474C148.614 334.868 148.297 334.144 148.297 333.301C148.297 332.468 148.614 331.753 149.249 331.156C149.893 330.55 150.664 330.247 151.564 330.247C152.464 330.247 153.231 330.55 153.865 331.156C154.509 331.753 154.831 332.468 154.831 333.301C154.831 334.144 154.509 334.868 153.865 335.474C153.231 336.071 152.464 336.369 151.564 336.369ZM169.252 369.636C167.292 369.636 165.611 369.366 164.21 368.827C162.817 368.296 161.71 367.572 160.886 366.653C160.062 365.735 159.527 364.703 159.281 363.557L164.877 362.804C165.048 363.24 165.317 363.647 165.687 364.026C166.056 364.404 166.544 364.707 167.15 364.935C167.765 365.171 168.513 365.29 169.394 365.29C170.71 365.29 171.795 364.968 172.647 364.324C173.509 363.689 173.94 362.624 173.94 361.128V357.136H173.684C173.419 357.742 173.021 358.315 172.491 358.855C171.96 359.395 171.279 359.835 170.445 360.176C169.612 360.517 168.618 360.688 167.462 360.688C165.824 360.688 164.333 360.309 162.988 359.551C161.653 358.784 160.587 357.615 159.792 356.043C159.006 354.461 158.613 352.463 158.613 350.048C158.613 347.577 159.015 345.512 159.82 343.855C160.625 342.198 161.695 340.957 163.031 340.134C164.375 339.31 165.848 338.898 167.448 338.898C168.67 338.898 169.692 339.106 170.516 339.523C171.34 339.93 172.003 340.441 172.505 341.057C173.016 341.663 173.409 342.259 173.684 342.847H173.911V339.182H179.92V361.213C179.92 363.069 179.465 364.622 178.556 365.872C177.647 367.122 176.388 368.06 174.778 368.685C173.177 369.319 171.335 369.636 169.252 369.636ZM169.38 356.142C170.355 356.142 171.179 355.901 171.852 355.418C172.533 354.925 173.054 354.224 173.414 353.315C173.783 352.397 173.968 351.298 173.968 350.02C173.968 348.741 173.788 347.634 173.428 346.696C173.068 345.749 172.548 345.015 171.866 344.494C171.184 343.973 170.355 343.713 169.38 343.713C168.386 343.713 167.548 343.983 166.866 344.523C166.184 345.053 165.668 345.792 165.317 346.739C164.967 347.686 164.792 348.779 164.792 350.02C164.792 351.279 164.967 352.368 165.317 353.287C165.677 354.196 166.193 354.902 166.866 355.403C167.548 355.896 168.386 356.142 169.38 356.142ZM194.678 361.426C192.434 361.426 190.502 360.972 188.883 360.062C187.273 359.144 186.032 357.847 185.161 356.17C184.29 354.485 183.854 352.491 183.854 350.19C183.854 347.946 184.29 345.976 185.161 344.281C186.032 342.586 187.259 341.265 188.84 340.318C190.431 339.371 192.297 338.898 194.437 338.898C195.876 338.898 197.216 339.13 198.457 339.594C199.707 340.048 200.796 340.735 201.724 341.653C202.661 342.572 203.39 343.727 203.911 345.119C204.432 346.502 204.692 348.121 204.692 349.977V351.639H186.269V347.889H198.996C198.996 347.018 198.807 346.246 198.428 345.574C198.049 344.902 197.524 344.376 196.852 343.997C196.189 343.609 195.417 343.415 194.536 343.415C193.618 343.415 192.803 343.628 192.093 344.054C191.392 344.471 190.843 345.034 190.445 345.744C190.048 346.445 189.844 347.226 189.835 348.088V351.653C189.835 352.733 190.033 353.666 190.431 354.452C190.838 355.238 191.411 355.844 192.15 356.27C192.888 356.696 193.764 356.909 194.778 356.909C195.45 356.909 196.066 356.814 196.624 356.625C197.183 356.436 197.661 356.152 198.059 355.773C198.457 355.394 198.76 354.93 198.968 354.381L204.565 354.75C204.281 356.095 203.698 357.269 202.817 358.273C201.946 359.267 200.819 360.044 199.437 360.602C198.064 361.152 196.478 361.426 194.678 361.426ZM214.692 348.386V361H208.641V339.182H214.408V343.031H214.664C215.147 341.762 215.957 340.759 217.093 340.02C218.229 339.272 219.607 338.898 221.227 338.898C222.742 338.898 224.063 339.229 225.19 339.892C226.317 340.555 227.192 341.502 227.817 342.733C228.442 343.955 228.755 345.413 228.755 347.108V361H222.704V348.188C222.713 346.852 222.372 345.811 221.681 345.062C220.99 344.305 220.038 343.926 218.826 343.926C218.012 343.926 217.292 344.101 216.667 344.452C216.051 344.802 215.568 345.313 215.218 345.986C214.877 346.649 214.702 347.449 214.692 348.386ZM243.467 361.426C241.223 361.426 239.291 360.972 237.672 360.062C236.062 359.144 234.821 357.847 233.95 356.17C233.079 354.485 232.643 352.491 232.643 350.19C232.643 347.946 233.079 345.976 233.95 344.281C234.821 342.586 236.048 341.265 237.629 340.318C239.22 339.371 241.086 338.898 243.226 338.898C244.665 338.898 246.005 339.13 247.246 339.594C248.496 340.048 249.585 340.735 250.513 341.653C251.45 342.572 252.179 343.727 252.7 345.119C253.221 346.502 253.482 348.121 253.482 349.977V351.639H235.058V347.889H247.786C247.786 347.018 247.596 346.246 247.217 345.574C246.839 344.902 246.313 344.376 245.641 343.997C244.978 343.609 244.206 343.415 243.325 343.415C242.407 343.415 241.592 343.628 240.882 344.054C240.181 344.471 239.632 345.034 239.234 345.744C238.837 346.445 238.633 347.226 238.624 348.088V351.653C238.624 352.733 238.822 353.666 239.22 354.452C239.627 355.238 240.2 355.844 240.939 356.27C241.678 356.696 242.554 356.909 243.567 356.909C244.239 356.909 244.855 356.814 245.413 356.625C245.972 356.436 246.45 356.152 246.848 355.773C247.246 355.394 247.549 354.93 247.757 354.381L253.354 354.75C253.07 356.095 252.487 357.269 251.607 358.273C250.735 359.267 249.608 360.044 248.226 360.602C246.853 361.152 245.267 361.426 243.467 361.426ZM264.007 357.023L263.851 358.585C263.728 359.835 263.491 361.08 263.141 362.321C262.8 363.571 262.44 364.703 262.061 365.716C261.692 366.729 261.393 367.525 261.166 368.102H257.246C257.388 367.544 257.582 366.762 257.828 365.759C258.074 364.764 258.306 363.647 258.524 362.406C258.742 361.166 258.879 359.902 258.936 358.614L259.007 357.023H264.007ZM51.5284 409V379.909H63.0057C65.2027 379.909 67.0777 380.302 68.6307 381.088C70.1932 381.865 71.3816 382.968 72.196 384.398C73.0199 385.818 73.4318 387.49 73.4318 389.412C73.4318 391.344 73.0152 393.006 72.1818 394.398C71.3485 395.78 70.1411 396.841 68.5597 397.58C66.9877 398.318 65.0843 398.688 62.8494 398.688H55.1648V393.744H61.8551C63.0294 393.744 64.0047 393.583 64.7812 393.261C65.5578 392.939 66.1354 392.456 66.5142 391.812C66.9025 391.169 67.0966 390.368 67.0966 389.412C67.0966 388.446 66.9025 387.632 66.5142 386.969C66.1354 386.306 65.553 385.804 64.767 385.463C63.9905 385.113 63.0104 384.938 61.8267 384.938H57.679V409H51.5284ZM67.2386 395.761L74.4688 409H67.679L60.6051 395.761H67.2386ZM87.2564 409.426C85.0121 409.426 83.0803 408.972 81.4609 408.062C79.8511 407.144 78.6106 405.847 77.7393 404.17C76.8681 402.485 76.4325 400.491 76.4325 398.19C76.4325 395.946 76.8681 393.976 77.7393 392.281C78.6106 390.586 79.8369 389.265 81.4183 388.318C83.0092 387.371 84.8748 386.898 87.0149 386.898C88.4543 386.898 89.7943 387.13 91.0348 387.594C92.2848 388.048 93.3738 388.735 94.3018 389.653C95.2393 390.572 95.9685 391.727 96.4893 393.119C97.0102 394.502 97.2706 396.121 97.2706 397.977V399.639H78.8473V395.889H91.5746C91.5746 395.018 91.3852 394.246 91.0064 393.574C90.6276 392.902 90.102 392.376 89.4297 391.997C88.7668 391.609 87.995 391.415 87.1143 391.415C86.1958 391.415 85.3814 391.628 84.6712 392.054C83.9704 392.471 83.4212 393.034 83.0234 393.744C82.6257 394.445 82.4221 395.226 82.4126 396.088V399.653C82.4126 400.733 82.6115 401.666 83.0092 402.452C83.4164 403.238 83.9893 403.844 84.728 404.27C85.4666 404.696 86.3426 404.909 87.3558 404.909C88.0282 404.909 88.6437 404.814 89.2024 404.625C89.7611 404.436 90.2393 404.152 90.6371 403.773C91.0348 403.394 91.3378 402.93 91.5462 402.381L97.1428 402.75C96.8587 404.095 96.2763 405.269 95.3956 406.273C94.5244 407.267 93.3975 408.044 92.0149 408.602C90.6418 409.152 89.0556 409.426 87.2564 409.426ZM101.219 409V387.182H107.271V409H101.219ZM104.259 384.369C103.36 384.369 102.588 384.071 101.944 383.474C101.309 382.868 100.992 382.144 100.992 381.301C100.992 380.468 101.309 379.753 101.944 379.156C102.588 378.55 103.36 378.247 104.259 378.247C105.159 378.247 105.926 378.55 106.56 379.156C107.204 379.753 107.526 380.468 107.526 381.301C107.526 382.144 107.204 382.868 106.56 383.474C105.926 384.071 105.159 384.369 104.259 384.369ZM112.118 409V387.182H117.885V391.031H118.141C118.595 389.753 119.353 388.744 120.413 388.006C121.474 387.267 122.743 386.898 124.22 386.898C125.716 386.898 126.99 387.272 128.041 388.02C129.092 388.759 129.793 389.762 130.143 391.031H130.371C130.816 389.781 131.621 388.782 132.786 388.034C133.96 387.277 135.347 386.898 136.947 386.898C138.983 386.898 140.636 387.546 141.905 388.844C143.183 390.132 143.822 391.959 143.822 394.327V409H137.786V395.52C137.786 394.308 137.464 393.399 136.82 392.793C136.176 392.187 135.371 391.884 134.405 391.884C133.306 391.884 132.449 392.234 131.834 392.935C131.218 393.626 130.911 394.54 130.911 395.676V409H125.044V395.392C125.044 394.322 124.736 393.47 124.121 392.835C123.515 392.201 122.714 391.884 121.72 391.884C121.048 391.884 120.442 392.054 119.902 392.395C119.372 392.726 118.95 393.195 118.638 393.801C118.325 394.398 118.169 395.098 118.169 395.903V409H112.118ZM154.824 409.412C153.432 409.412 152.191 409.17 151.102 408.688C150.013 408.195 149.152 407.471 148.517 406.514C147.892 405.548 147.58 404.346 147.58 402.906C147.58 401.694 147.802 400.676 148.247 399.852C148.692 399.028 149.298 398.366 150.065 397.864C150.832 397.362 151.704 396.983 152.679 396.727C153.664 396.472 154.696 396.292 155.776 396.188C157.045 396.055 158.067 395.932 158.844 395.818C159.62 395.695 160.184 395.515 160.534 395.278C160.884 395.042 161.06 394.691 161.06 394.227V394.142C161.06 393.242 160.776 392.546 160.207 392.054C159.649 391.562 158.853 391.315 157.821 391.315C156.732 391.315 155.866 391.557 155.222 392.04C154.578 392.513 154.152 393.11 153.943 393.83L148.347 393.375C148.631 392.049 149.189 390.903 150.023 389.938C150.856 388.962 151.931 388.214 153.247 387.693C154.573 387.163 156.107 386.898 157.849 386.898C159.062 386.898 160.222 387.04 161.33 387.324C162.447 387.608 163.437 388.048 164.298 388.645C165.17 389.241 165.856 390.009 166.358 390.946C166.86 391.874 167.111 392.987 167.111 394.284V409H161.372V405.974H161.202C160.851 406.656 160.383 407.258 159.795 407.778C159.208 408.29 158.503 408.692 157.679 408.986C156.855 409.27 155.903 409.412 154.824 409.412ZM156.557 405.236C157.447 405.236 158.233 405.061 158.915 404.71C159.597 404.35 160.132 403.867 160.52 403.261C160.908 402.655 161.102 401.969 161.102 401.202V398.886C160.913 399.009 160.652 399.123 160.321 399.227C159.999 399.322 159.634 399.412 159.227 399.497C158.82 399.573 158.413 399.644 158.006 399.71C157.598 399.767 157.229 399.819 156.898 399.866C156.188 399.971 155.567 400.136 155.037 400.364C154.507 400.591 154.095 400.899 153.801 401.287C153.508 401.666 153.361 402.139 153.361 402.707C153.361 403.531 153.659 404.161 154.256 404.597C154.862 405.023 155.629 405.236 156.557 405.236ZM181.635 417.636C179.675 417.636 177.994 417.366 176.592 416.827C175.2 416.296 174.092 415.572 173.268 414.653C172.445 413.735 171.91 412.703 171.663 411.557L177.26 410.804C177.43 411.24 177.7 411.647 178.07 412.026C178.439 412.404 178.927 412.707 179.533 412.935C180.148 413.171 180.896 413.29 181.777 413.29C183.093 413.29 184.178 412.968 185.03 412.324C185.892 411.689 186.322 410.624 186.322 409.128V405.136H186.067C185.802 405.742 185.404 406.315 184.874 406.855C184.343 407.395 183.661 407.835 182.828 408.176C181.995 408.517 181 408.688 179.845 408.688C178.207 408.688 176.715 408.309 175.371 407.551C174.036 406.784 172.97 405.615 172.175 404.043C171.389 402.461 170.996 400.463 170.996 398.048C170.996 395.577 171.398 393.512 172.203 391.855C173.008 390.198 174.078 388.957 175.413 388.134C176.758 387.31 178.231 386.898 179.831 386.898C181.053 386.898 182.075 387.106 182.899 387.523C183.723 387.93 184.386 388.441 184.888 389.057C185.399 389.663 185.792 390.259 186.067 390.847H186.294V387.182H192.303V409.213C192.303 411.069 191.848 412.622 190.939 413.872C190.03 415.122 188.77 416.06 187.161 416.685C185.56 417.319 183.718 417.636 181.635 417.636ZM181.763 404.142C182.738 404.142 183.562 403.901 184.234 403.418C184.916 402.925 185.437 402.224 185.797 401.315C186.166 400.397 186.351 399.298 186.351 398.02C186.351 396.741 186.171 395.634 185.811 394.696C185.451 393.749 184.93 393.015 184.249 392.494C183.567 391.973 182.738 391.713 181.763 391.713C180.768 391.713 179.93 391.983 179.249 392.523C178.567 393.053 178.051 393.792 177.7 394.739C177.35 395.686 177.175 396.779 177.175 398.02C177.175 399.279 177.35 400.368 177.7 401.287C178.06 402.196 178.576 402.902 179.249 403.403C179.93 403.896 180.768 404.142 181.763 404.142ZM197.118 409V387.182H203.169V409H197.118ZM200.158 384.369C199.258 384.369 198.486 384.071 197.842 383.474C197.208 382.868 196.891 382.144 196.891 381.301C196.891 380.468 197.208 379.753 197.842 379.156C198.486 378.55 199.258 378.247 200.158 378.247C201.057 378.247 201.824 378.55 202.459 379.156C203.103 379.753 203.425 380.468 203.425 381.301C203.425 382.144 203.103 382.868 202.459 383.474C201.824 384.071 201.057 384.369 200.158 384.369ZM214.067 396.386V409H208.016V387.182H213.783V391.031H214.039C214.522 389.762 215.332 388.759 216.468 388.02C217.604 387.272 218.982 386.898 220.602 386.898C222.117 386.898 223.438 387.229 224.565 387.892C225.692 388.555 226.567 389.502 227.192 390.733C227.817 391.955 228.13 393.413 228.13 395.108V409H222.079V396.188C222.088 394.852 221.747 393.811 221.056 393.062C220.365 392.305 219.413 391.926 218.201 391.926C217.387 391.926 216.667 392.101 216.042 392.452C215.426 392.802 214.943 393.313 214.593 393.986C214.252 394.649 214.077 395.449 214.067 396.386ZM242.842 409.426C240.598 409.426 238.666 408.972 237.047 408.062C235.437 407.144 234.196 405.847 233.325 404.17C232.454 402.485 232.018 400.491 232.018 398.19C232.018 395.946 232.454 393.976 233.325 392.281C234.196 390.586 235.423 389.265 237.004 388.318C238.595 387.371 240.461 386.898 242.601 386.898C244.04 386.898 245.38 387.13 246.621 387.594C247.871 388.048 248.96 388.735 249.888 389.653C250.825 390.572 251.554 391.727 252.075 393.119C252.596 394.502 252.857 396.121 252.857 397.977V399.639H234.433V395.889H247.161C247.161 395.018 246.971 394.246 246.592 393.574C246.214 392.902 245.688 392.376 245.016 391.997C244.353 391.609 243.581 391.415 242.7 391.415C241.782 391.415 240.967 391.628 240.257 392.054C239.556 392.471 239.007 393.034 238.609 393.744C238.212 394.445 238.008 395.226 237.999 396.088V399.653C237.999 400.733 238.197 401.666 238.595 402.452C239.002 403.238 239.575 403.844 240.314 404.27C241.053 404.696 241.929 404.909 242.942 404.909C243.614 404.909 244.23 404.814 244.788 404.625C245.347 404.436 245.825 404.152 246.223 403.773C246.621 403.394 246.924 402.93 247.132 402.381L252.729 402.75C252.445 404.095 251.862 405.269 250.982 406.273C250.11 407.267 248.983 408.044 247.601 408.602C246.228 409.152 244.642 409.426 242.842 409.426ZM264.845 409.355C263.188 409.355 261.687 408.929 260.342 408.077C259.007 407.215 257.946 405.951 257.161 404.284C256.384 402.608 255.996 400.553 255.996 398.119C255.996 395.619 256.398 393.541 257.203 391.884C258.008 390.217 259.078 388.972 260.413 388.148C261.758 387.314 263.231 386.898 264.831 386.898C266.053 386.898 267.071 387.106 267.885 387.523C268.709 387.93 269.372 388.441 269.874 389.057C270.385 389.663 270.773 390.259 271.038 390.847H271.223V379.909H277.26V409H271.294V405.506H271.038C270.754 406.112 270.352 406.713 269.831 407.31C269.32 407.897 268.652 408.384 267.828 408.773C267.014 409.161 266.019 409.355 264.845 409.355ZM266.763 404.54C267.738 404.54 268.562 404.275 269.234 403.744C269.916 403.205 270.437 402.452 270.797 401.486C271.166 400.52 271.351 399.388 271.351 398.091C271.351 396.794 271.171 395.667 270.811 394.71C270.451 393.754 269.93 393.015 269.249 392.494C268.567 391.973 267.738 391.713 266.763 391.713C265.768 391.713 264.93 391.983 264.249 392.523C263.567 393.062 263.051 393.811 262.7 394.767C262.35 395.723 262.175 396.831 262.175 398.091C262.175 399.36 262.35 400.482 262.7 401.457C263.06 402.423 263.576 403.181 264.249 403.73C264.93 404.27 265.768 404.54 266.763 404.54Z" fill="#139485"/>
<path d="M52.5227 446L49.3409 434.364H50.7727L53.2045 443.841H53.3182L55.7955 434.364H57.3864L59.8636 443.841H59.9773L62.4091 434.364H63.8409L60.6591 446H59.2045L56.6364 436.727H56.5455L53.9773 446H52.5227ZM68.2614 446.182C67.4205 446.182 66.6951 445.996 66.0852 445.625C65.4792 445.25 65.0114 444.727 64.6818 444.057C64.3561 443.383 64.1932 442.598 64.1932 441.705C64.1932 440.811 64.3561 440.023 64.6818 439.341C65.0114 438.655 65.4697 438.121 66.0568 437.739C66.6477 437.352 67.3371 437.159 68.125 437.159C68.5795 437.159 69.0284 437.235 69.4716 437.386C69.9148 437.538 70.3182 437.784 70.6818 438.125C71.0455 438.462 71.3352 438.909 71.5511 439.466C71.767 440.023 71.875 440.708 71.875 441.523V442.091H65.1477V440.932H70.5114C70.5114 440.439 70.4129 440 70.2159 439.614C70.0227 439.227 69.7462 438.922 69.3864 438.699C69.0303 438.475 68.6098 438.364 68.125 438.364C67.5909 438.364 67.1288 438.496 66.7386 438.761C66.3523 439.023 66.0549 439.364 65.8466 439.784C65.6383 440.205 65.5341 440.655 65.5341 441.136V441.909C65.5341 442.568 65.6477 443.127 65.875 443.585C66.1061 444.04 66.4261 444.386 66.8352 444.625C67.2443 444.86 67.7197 444.977 68.2614 444.977C68.6136 444.977 68.9318 444.928 69.2159 444.83C69.5038 444.727 69.7519 444.576 69.9602 444.375C70.1686 444.17 70.3295 443.917 70.4432 443.614L71.7386 443.977C71.6023 444.417 71.3731 444.803 71.0511 445.136C70.7292 445.466 70.3314 445.723 69.858 445.909C69.3845 446.091 68.8523 446.182 68.2614 446.182ZM79.7557 440.75V446H78.4148V434.364H79.7557V438.636H79.8693C80.0739 438.186 80.3807 437.828 80.7898 437.562C81.2027 437.294 81.7519 437.159 82.4375 437.159C83.0322 437.159 83.553 437.278 84 437.517C84.447 437.752 84.7936 438.114 85.0398 438.602C85.2898 439.087 85.4148 439.705 85.4148 440.455V446H84.0739V440.545C84.0739 439.852 83.8939 439.316 83.5341 438.938C83.178 438.555 82.6837 438.364 82.0511 438.364C81.6117 438.364 81.2178 438.456 80.8693 438.642C80.5246 438.828 80.2519 439.098 80.0511 439.455C79.8542 439.811 79.7557 440.242 79.7557 440.75ZM91.527 446.182C90.6861 446.182 89.9607 445.996 89.3509 445.625C88.7448 445.25 88.277 444.727 87.9474 444.057C87.6217 443.383 87.4588 442.598 87.4588 441.705C87.4588 440.811 87.6217 440.023 87.9474 439.341C88.277 438.655 88.7353 438.121 89.3224 437.739C89.9134 437.352 90.6027 437.159 91.3906 437.159C91.8452 437.159 92.294 437.235 92.7372 437.386C93.1804 437.538 93.5838 437.784 93.9474 438.125C94.3111 438.462 94.6009 438.909 94.8168 439.466C95.0327 440.023 95.1406 440.708 95.1406 441.523V442.091H88.4134V440.932H93.777C93.777 440.439 93.6785 440 93.4815 439.614C93.2884 439.227 93.0118 438.922 92.652 438.699C92.2959 438.475 91.8755 438.364 91.3906 438.364C90.8565 438.364 90.3944 438.496 90.0043 438.761C89.6179 439.023 89.3205 439.364 89.1122 439.784C88.9039 440.205 88.7997 440.655 88.7997 441.136V441.909C88.7997 442.568 88.9134 443.127 89.1406 443.585C89.3717 444.04 89.6918 444.386 90.1009 444.625C90.5099 444.86 90.9853 444.977 91.527 444.977C91.8793 444.977 92.1974 444.928 92.4815 444.83C92.7694 444.727 93.0175 444.576 93.2259 444.375C93.4342 444.17 93.5952 443.917 93.7088 443.614L95.0043 443.977C94.8679 444.417 94.6387 444.803 94.3168 445.136C93.9948 445.466 93.5971 445.723 93.1236 445.909C92.6501 446.091 92.1179 446.182 91.527 446.182ZM98.5213 434.364V446H97.1804V434.364H98.5213ZM100.977 449.273V437.273H102.273V438.659H102.432C102.53 438.508 102.667 438.314 102.841 438.08C103.019 437.841 103.273 437.629 103.602 437.443C103.936 437.254 104.386 437.159 104.955 437.159C105.689 437.159 106.337 437.343 106.898 437.71C107.458 438.078 107.896 438.598 108.21 439.273C108.525 439.947 108.682 440.742 108.682 441.659C108.682 442.583 108.525 443.384 108.21 444.062C107.896 444.737 107.46 445.259 106.903 445.631C106.347 445.998 105.705 446.182 104.977 446.182C104.417 446.182 103.968 446.089 103.631 445.903C103.294 445.714 103.034 445.5 102.852 445.261C102.67 445.019 102.53 444.818 102.432 444.659H102.318V449.273H100.977ZM102.295 441.636C102.295 442.295 102.392 442.877 102.585 443.381C102.778 443.881 103.061 444.273 103.432 444.557C103.803 444.837 104.258 444.977 104.795 444.977C105.356 444.977 105.824 444.83 106.199 444.534C106.578 444.235 106.862 443.833 107.051 443.33C107.244 442.822 107.341 442.258 107.341 441.636C107.341 441.023 107.246 440.47 107.057 439.977C106.871 439.481 106.589 439.089 106.21 438.801C105.835 438.509 105.364 438.364 104.795 438.364C104.25 438.364 103.792 438.502 103.42 438.778C103.049 439.051 102.769 439.434 102.58 439.926C102.39 440.415 102.295 440.985 102.295 441.636ZM116.091 449.273C115.864 449.273 115.661 449.254 115.483 449.216C115.305 449.182 115.182 449.148 115.114 449.114L115.455 447.932C115.78 448.015 116.068 448.045 116.318 448.023C116.568 448 116.79 447.888 116.983 447.688C117.18 447.491 117.36 447.17 117.523 446.727L117.773 446.045L114.545 437.273H116L118.409 444.227H118.5L120.909 437.273H122.364L118.659 447.273C118.492 447.723 118.286 448.097 118.04 448.392C117.794 448.691 117.508 448.913 117.182 449.057C116.86 449.201 116.496 449.273 116.091 449.273ZM127.366 446.182C126.579 446.182 125.887 445.994 125.293 445.619C124.702 445.244 124.24 444.72 123.906 444.045C123.577 443.371 123.412 442.583 123.412 441.682C123.412 440.773 123.577 439.979 123.906 439.301C124.24 438.623 124.702 438.097 125.293 437.722C125.887 437.347 126.579 437.159 127.366 437.159C128.154 437.159 128.844 437.347 129.435 437.722C130.029 438.097 130.491 438.623 130.821 439.301C131.154 439.979 131.321 440.773 131.321 441.682C131.321 442.583 131.154 443.371 130.821 444.045C130.491 444.72 130.029 445.244 129.435 445.619C128.844 445.994 128.154 446.182 127.366 446.182ZM127.366 444.977C127.965 444.977 128.457 444.824 128.844 444.517C129.23 444.21 129.516 443.807 129.702 443.307C129.887 442.807 129.98 442.265 129.98 441.682C129.98 441.098 129.887 440.555 129.702 440.051C129.516 439.547 129.23 439.14 128.844 438.83C128.457 438.519 127.965 438.364 127.366 438.364C126.768 438.364 126.276 438.519 125.889 438.83C125.503 439.14 125.217 439.547 125.031 440.051C124.846 440.555 124.753 441.098 124.753 441.682C124.753 442.265 124.846 442.807 125.031 443.307C125.217 443.807 125.503 444.21 125.889 444.517C126.276 444.824 126.768 444.977 127.366 444.977ZM138.868 442.432V437.273H140.209V446H138.868V444.523H138.777C138.572 444.966 138.254 445.343 137.822 445.653C137.391 445.96 136.845 446.114 136.186 446.114C135.641 446.114 135.156 445.994 134.732 445.756C134.307 445.513 133.974 445.15 133.732 444.665C133.489 444.176 133.368 443.561 133.368 442.818V437.273H134.709V442.727C134.709 443.364 134.887 443.871 135.243 444.25C135.603 444.629 136.061 444.818 136.618 444.818C136.951 444.818 137.29 444.733 137.635 444.562C137.983 444.392 138.275 444.131 138.51 443.778C138.749 443.426 138.868 442.977 138.868 442.432ZM150.96 437.273V438.409H146.438V437.273H150.96ZM147.756 435.182H149.097V443.5C149.097 443.879 149.152 444.163 149.261 444.352C149.375 444.538 149.519 444.663 149.693 444.727C149.871 444.788 150.059 444.818 150.256 444.818C150.403 444.818 150.525 444.811 150.619 444.795C150.714 444.777 150.79 444.761 150.847 444.75L151.119 445.955C151.028 445.989 150.902 446.023 150.739 446.057C150.576 446.095 150.369 446.114 150.119 446.114C149.741 446.114 149.369 446.032 149.006 445.869C148.646 445.706 148.347 445.458 148.108 445.125C147.873 444.792 147.756 444.371 147.756 443.864V435.182ZM156.429 446.182C155.641 446.182 154.95 445.994 154.355 445.619C153.764 445.244 153.302 444.72 152.969 444.045C152.639 443.371 152.474 442.583 152.474 441.682C152.474 440.773 152.639 439.979 152.969 439.301C153.302 438.623 153.764 438.097 154.355 437.722C154.95 437.347 155.641 437.159 156.429 437.159C157.217 437.159 157.906 437.347 158.497 437.722C159.092 438.097 159.554 438.623 159.884 439.301C160.217 439.979 160.384 440.773 160.384 441.682C160.384 442.583 160.217 443.371 159.884 444.045C159.554 444.72 159.092 445.244 158.497 445.619C157.906 445.994 157.217 446.182 156.429 446.182ZM156.429 444.977C157.027 444.977 157.52 444.824 157.906 444.517C158.293 444.21 158.579 443.807 158.764 443.307C158.95 442.807 159.043 442.265 159.043 441.682C159.043 441.098 158.95 440.555 158.764 440.051C158.579 439.547 158.293 439.14 157.906 438.83C157.52 438.519 157.027 438.364 156.429 438.364C155.83 438.364 155.338 438.519 154.952 438.83C154.565 439.14 154.279 439.547 154.094 440.051C153.908 440.555 153.815 441.098 153.815 441.682C153.815 442.265 153.908 442.807 154.094 443.307C154.279 443.807 154.565 444.21 154.952 444.517C155.338 444.824 155.83 444.977 156.429 444.977ZM170.476 446.182C169.688 446.182 168.997 445.994 168.402 445.619C167.811 445.244 167.349 444.72 167.016 444.045C166.686 443.371 166.521 442.583 166.521 441.682C166.521 440.773 166.686 439.979 167.016 439.301C167.349 438.623 167.811 438.097 168.402 437.722C168.997 437.347 169.688 437.159 170.476 437.159C171.264 437.159 171.953 437.347 172.544 437.722C173.139 438.097 173.601 438.623 173.93 439.301C174.264 439.979 174.43 440.773 174.43 441.682C174.43 442.583 174.264 443.371 173.93 444.045C173.601 444.72 173.139 445.244 172.544 445.619C171.953 445.994 171.264 446.182 170.476 446.182ZM170.476 444.977C171.074 444.977 171.567 444.824 171.953 444.517C172.339 444.21 172.625 443.807 172.811 443.307C172.997 442.807 173.089 442.265 173.089 441.682C173.089 441.098 172.997 440.555 172.811 440.051C172.625 439.547 172.339 439.14 171.953 438.83C171.567 438.519 171.074 438.364 170.476 438.364C169.877 438.364 169.385 438.519 168.999 438.83C168.612 439.14 168.326 439.547 168.141 440.051C167.955 440.555 167.862 441.098 167.862 441.682C167.862 442.265 167.955 442.807 168.141 443.307C168.326 443.807 168.612 444.21 168.999 444.517C169.385 444.824 169.877 444.977 170.476 444.977ZM176.477 449.273V437.273H177.773V438.659H177.932C178.03 438.508 178.167 438.314 178.341 438.08C178.519 437.841 178.773 437.629 179.102 437.443C179.436 437.254 179.886 437.159 180.455 437.159C181.189 437.159 181.837 437.343 182.398 437.71C182.958 438.078 183.396 438.598 183.71 439.273C184.025 439.947 184.182 440.742 184.182 441.659C184.182 442.583 184.025 443.384 183.71 444.062C183.396 444.737 182.96 445.259 182.403 445.631C181.847 445.998 181.205 446.182 180.477 446.182C179.917 446.182 179.468 446.089 179.131 445.903C178.794 445.714 178.534 445.5 178.352 445.261C178.17 445.019 178.03 444.818 177.932 444.659H177.818V449.273H176.477ZM177.795 441.636C177.795 442.295 177.892 442.877 178.085 443.381C178.278 443.881 178.561 444.273 178.932 444.557C179.303 444.837 179.758 444.977 180.295 444.977C180.856 444.977 181.324 444.83 181.699 444.534C182.078 444.235 182.362 443.833 182.551 443.33C182.744 442.822 182.841 442.258 182.841 441.636C182.841 441.023 182.746 440.47 182.557 439.977C182.371 439.481 182.089 439.089 181.71 438.801C181.335 438.509 180.864 438.364 180.295 438.364C179.75 438.364 179.292 438.502 178.92 438.778C178.549 439.051 178.269 439.434 178.08 439.926C177.89 440.415 177.795 440.985 177.795 441.636ZM190.023 437.273V438.409H185.5V437.273H190.023ZM186.818 435.182H188.159V443.5C188.159 443.879 188.214 444.163 188.324 444.352C188.438 444.538 188.581 444.663 188.756 444.727C188.934 444.788 189.121 444.818 189.318 444.818C189.466 444.818 189.587 444.811 189.682 444.795C189.777 444.777 189.852 444.761 189.909 444.75L190.182 445.955C190.091 445.989 189.964 446.023 189.801 446.057C189.638 446.095 189.432 446.114 189.182 446.114C188.803 446.114 188.432 446.032 188.068 445.869C187.708 445.706 187.409 445.458 187.17 445.125C186.936 444.792 186.818 444.371 186.818 443.864V435.182ZM192.04 446V437.273H193.381V446H192.04ZM192.722 435.818C192.46 435.818 192.235 435.729 192.045 435.551C191.86 435.373 191.767 435.159 191.767 434.909C191.767 434.659 191.86 434.445 192.045 434.267C192.235 434.089 192.46 434 192.722 434C192.983 434 193.206 434.089 193.392 434.267C193.581 434.445 193.676 434.659 193.676 434.909C193.676 435.159 193.581 435.373 193.392 435.551C193.206 435.729 192.983 435.818 192.722 435.818ZM195.837 446V437.273H197.132V438.636H197.246C197.428 438.17 197.721 437.809 198.126 437.551C198.532 437.29 199.018 437.159 199.587 437.159C200.162 437.159 200.642 437.29 201.024 437.551C201.411 437.809 201.712 438.17 201.928 438.636H202.018C202.242 438.186 202.577 437.828 203.024 437.562C203.471 437.294 204.007 437.159 204.632 437.159C205.412 437.159 206.051 437.403 206.547 437.892C207.043 438.377 207.291 439.133 207.291 440.159V446H205.95V440.159C205.95 439.515 205.774 439.055 205.422 438.778C205.07 438.502 204.655 438.364 204.178 438.364C203.564 438.364 203.089 438.549 202.751 438.92C202.414 439.288 202.246 439.754 202.246 440.318V446H200.882V440.023C200.882 439.527 200.721 439.127 200.399 438.824C200.077 438.517 199.662 438.364 199.155 438.364C198.806 438.364 198.481 438.456 198.178 438.642C197.878 438.828 197.636 439.085 197.45 439.415C197.268 439.741 197.178 440.117 197.178 440.545V446H195.837ZM209.743 446V437.273H211.084V446H209.743ZM210.425 435.818C210.163 435.818 209.938 435.729 209.749 435.551C209.563 435.373 209.47 435.159 209.47 434.909C209.47 434.659 209.563 434.445 209.749 434.267C209.938 434.089 210.163 434 210.425 434C210.686 434 210.91 434.089 211.095 434.267C211.285 434.445 211.379 434.659 211.379 434.909C211.379 435.159 211.285 435.373 211.095 435.551C210.91 435.729 210.686 435.818 210.425 435.818ZM213.29 446V444.977L218.244 438.614V438.523H213.449V437.273H219.972V438.341L215.153 444.659V444.75H220.131V446H213.29ZM225.605 446.182C224.764 446.182 224.039 445.996 223.429 445.625C222.823 445.25 222.355 444.727 222.026 444.057C221.7 443.383 221.537 442.598 221.537 441.705C221.537 440.811 221.7 440.023 222.026 439.341C222.355 438.655 222.813 438.121 223.401 437.739C223.991 437.352 224.681 437.159 225.469 437.159C225.923 437.159 226.372 437.235 226.815 437.386C227.259 437.538 227.662 437.784 228.026 438.125C228.389 438.462 228.679 438.909 228.895 439.466C229.111 440.023 229.219 440.708 229.219 441.523V442.091H222.491V440.932H227.855C227.855 440.439 227.757 440 227.56 439.614C227.366 439.227 227.09 438.922 226.73 438.699C226.374 438.475 225.954 438.364 225.469 438.364C224.935 438.364 224.473 438.496 224.082 438.761C223.696 439.023 223.399 439.364 223.19 439.784C222.982 440.205 222.878 440.655 222.878 441.136V441.909C222.878 442.568 222.991 443.127 223.219 443.585C223.45 444.04 223.77 444.386 224.179 444.625C224.588 444.86 225.063 444.977 225.605 444.977C225.957 444.977 226.276 444.928 226.56 444.83C226.848 444.727 227.096 444.576 227.304 444.375C227.512 444.17 227.673 443.917 227.787 443.614L229.082 443.977C228.946 444.417 228.717 444.803 228.395 445.136C228.073 445.466 227.675 445.723 227.202 445.909C226.728 446.091 226.196 446.182 225.605 446.182ZM236.622 449.273C236.395 449.273 236.192 449.254 236.014 449.216C235.836 449.182 235.713 449.148 235.645 449.114L235.986 447.932C236.312 448.015 236.599 448.045 236.849 448.023C237.099 448 237.321 447.888 237.514 447.688C237.711 447.491 237.891 447.17 238.054 446.727L238.304 446.045L235.077 437.273H236.531L238.94 444.227H239.031L241.44 437.273H242.895L239.19 447.273C239.024 447.723 238.817 448.097 238.571 448.392C238.325 448.691 238.039 448.913 237.713 449.057C237.391 449.201 237.027 449.273 236.622 449.273ZM247.898 446.182C247.11 446.182 246.419 445.994 245.824 445.619C245.233 445.244 244.771 444.72 244.438 444.045C244.108 443.371 243.943 442.583 243.943 441.682C243.943 440.773 244.108 439.979 244.438 439.301C244.771 438.623 245.233 438.097 245.824 437.722C246.419 437.347 247.11 437.159 247.898 437.159C248.686 437.159 249.375 437.347 249.966 437.722C250.561 438.097 251.023 438.623 251.352 439.301C251.686 439.979 251.852 440.773 251.852 441.682C251.852 442.583 251.686 443.371 251.352 444.045C251.023 444.72 250.561 445.244 249.966 445.619C249.375 445.994 248.686 446.182 247.898 446.182ZM247.898 444.977C248.496 444.977 248.989 444.824 249.375 444.517C249.761 444.21 250.047 443.807 250.233 443.307C250.419 442.807 250.511 442.265 250.511 441.682C250.511 441.098 250.419 440.555 250.233 440.051C250.047 439.547 249.761 439.14 249.375 438.83C248.989 438.519 248.496 438.364 247.898 438.364C247.299 438.364 246.807 438.519 246.42 438.83C246.034 439.14 245.748 439.547 245.562 440.051C245.377 440.555 245.284 441.098 245.284 441.682C245.284 442.265 245.377 442.807 245.562 443.307C245.748 443.807 246.034 444.21 246.42 444.517C246.807 444.824 247.299 444.977 247.898 444.977ZM259.399 442.432V437.273H260.74V446H259.399V444.523H259.308C259.104 444.966 258.786 445.343 258.354 445.653C257.922 445.96 257.376 446.114 256.717 446.114C256.172 446.114 255.687 445.994 255.263 445.756C254.839 445.513 254.505 445.15 254.263 444.665C254.02 444.176 253.899 443.561 253.899 442.818V437.273H255.24V442.727C255.24 443.364 255.418 443.871 255.774 444.25C256.134 444.629 256.592 444.818 257.149 444.818C257.482 444.818 257.821 444.733 258.166 444.562C258.515 444.392 258.806 444.131 259.041 443.778C259.28 443.426 259.399 442.977 259.399 442.432ZM263.196 446V437.273H264.491V438.591H264.582C264.741 438.159 265.029 437.809 265.446 437.54C265.863 437.271 266.332 437.136 266.855 437.136C266.954 437.136 267.077 437.138 267.224 437.142C267.372 437.146 267.484 437.152 267.56 437.159V438.523C267.514 438.511 267.41 438.494 267.247 438.472C267.088 438.445 266.92 438.432 266.741 438.432C266.317 438.432 265.938 438.521 265.605 438.699C265.276 438.873 265.014 439.116 264.821 439.426C264.632 439.733 264.537 440.083 264.537 440.477V446H263.196ZM52.2045 470L49.5455 461.273H50.9545L52.8409 467.955H52.9318L54.7955 461.273H56.2273L58.0682 467.932H58.1591L60.0455 461.273H61.4545L58.7955 470H57.4773L55.5682 463.295H55.4318L53.5227 470H52.2045ZM66.4759 470.182C65.688 470.182 64.9967 469.994 64.402 469.619C63.8111 469.244 63.349 468.72 63.0156 468.045C62.6861 467.371 62.5213 466.583 62.5213 465.682C62.5213 464.773 62.6861 463.979 63.0156 463.301C63.349 462.623 63.8111 462.097 64.402 461.722C64.9967 461.347 65.688 461.159 66.4759 461.159C67.2637 461.159 67.9531 461.347 68.544 461.722C69.1387 462.097 69.6009 462.623 69.9304 463.301C70.2637 463.979 70.4304 464.773 70.4304 465.682C70.4304 466.583 70.2637 467.371 69.9304 468.045C69.6009 468.72 69.1387 469.244 68.544 469.619C67.9531 469.994 67.2637 470.182 66.4759 470.182ZM66.4759 468.977C67.0743 468.977 67.5668 468.824 67.9531 468.517C68.3395 468.21 68.6255 467.807 68.8111 467.307C68.9967 466.807 69.0895 466.265 69.0895 465.682C69.0895 465.098 68.9967 464.555 68.8111 464.051C68.6255 463.547 68.3395 463.14 67.9531 462.83C67.5668 462.519 67.0743 462.364 66.4759 462.364C65.8774 462.364 65.3849 462.519 64.9986 462.83C64.6122 463.14 64.3262 463.547 64.1406 464.051C63.955 464.555 63.8622 465.098 63.8622 465.682C63.8622 466.265 63.955 466.807 64.1406 467.307C64.3262 467.807 64.6122 468.21 64.9986 468.517C65.3849 468.824 65.8774 468.977 66.4759 468.977ZM72.4773 470V461.273H73.7727V462.591H73.8636C74.0227 462.159 74.3106 461.809 74.7273 461.54C75.1439 461.271 75.6136 461.136 76.1364 461.136C76.2348 461.136 76.358 461.138 76.5057 461.142C76.6534 461.146 76.7652 461.152 76.8409 461.159V462.523C76.7955 462.511 76.6913 462.494 76.5284 462.472C76.3693 462.445 76.2008 462.432 76.0227 462.432C75.5985 462.432 75.2197 462.521 74.8864 462.699C74.5568 462.873 74.2955 463.116 74.1023 463.426C73.9129 463.733 73.8182 464.083 73.8182 464.477V470H72.4773ZM79.6804 466.818L79.6577 465.159H79.9304L83.7486 461.273H85.4077L81.3395 465.386H81.2259L79.6804 466.818ZM78.4304 470V458.364H79.7713V470H78.4304ZM83.9759 470L80.5668 465.682L81.5213 464.75L85.6804 470H83.9759ZM93.3153 463.227L92.1108 463.568C92.035 463.367 91.9233 463.172 91.7756 462.983C91.6316 462.79 91.4347 462.631 91.1847 462.506C90.9347 462.381 90.6146 462.318 90.2244 462.318C89.6903 462.318 89.2453 462.441 88.8892 462.688C88.5369 462.93 88.3608 463.239 88.3608 463.614C88.3608 463.947 88.482 464.21 88.7244 464.403C88.9669 464.597 89.3456 464.758 89.8608 464.886L91.1562 465.205C91.9366 465.394 92.518 465.684 92.9006 466.074C93.2831 466.46 93.4744 466.958 93.4744 467.568C93.4744 468.068 93.3305 468.515 93.0426 468.909C92.7585 469.303 92.3608 469.614 91.8494 469.841C91.3381 470.068 90.7434 470.182 90.0653 470.182C89.1752 470.182 88.4384 469.989 87.8551 469.602C87.2718 469.216 86.9025 468.652 86.7472 467.909L88.0199 467.591C88.1411 468.061 88.3703 468.413 88.7074 468.648C89.0483 468.883 89.4934 469 90.0426 469C90.6676 469 91.1638 468.867 91.5312 468.602C91.9025 468.333 92.0881 468.011 92.0881 467.636C92.0881 467.333 91.982 467.08 91.7699 466.875C91.5578 466.667 91.232 466.511 90.7926 466.409L89.3381 466.068C88.5388 465.879 87.9517 465.585 87.5767 465.188C87.2055 464.786 87.0199 464.284 87.0199 463.682C87.0199 463.189 87.1581 462.754 87.4347 462.375C87.715 461.996 88.0956 461.699 88.5767 461.483C89.0616 461.267 89.6108 461.159 90.2244 461.159C91.0881 461.159 91.7661 461.348 92.2585 461.727C92.7547 462.106 93.107 462.606 93.3153 463.227ZM95.4929 473.273V461.273H96.7884V462.659H96.9474C97.0459 462.508 97.1823 462.314 97.3565 462.08C97.5346 461.841 97.7884 461.629 98.1179 461.443C98.4512 461.254 98.902 461.159 99.4702 461.159C100.205 461.159 100.853 461.343 101.413 461.71C101.974 462.078 102.411 462.598 102.726 463.273C103.04 463.947 103.197 464.742 103.197 465.659C103.197 466.583 103.04 467.384 102.726 468.062C102.411 468.737 101.976 469.259 101.419 469.631C100.862 469.998 100.22 470.182 99.4929 470.182C98.9323 470.182 98.4834 470.089 98.1463 469.903C97.8092 469.714 97.5497 469.5 97.3679 469.261C97.1861 469.019 97.0459 468.818 96.9474 468.659H96.8338V473.273H95.4929ZM96.8111 465.636C96.8111 466.295 96.9077 466.877 97.1009 467.381C97.294 467.881 97.5762 468.273 97.9474 468.557C98.3187 468.837 98.7732 468.977 99.3111 468.977C99.8717 468.977 100.339 468.83 100.714 468.534C101.093 468.235 101.377 467.833 101.567 467.33C101.76 466.822 101.857 466.258 101.857 465.636C101.857 465.023 101.762 464.47 101.572 463.977C101.387 463.481 101.105 463.089 100.726 462.801C100.351 462.509 99.8793 462.364 99.3111 462.364C98.7656 462.364 98.3073 462.502 97.9361 462.778C97.5649 463.051 97.2846 463.434 97.0952 463.926C96.9058 464.415 96.8111 464.985 96.8111 465.636ZM107.811 470.205C107.258 470.205 106.756 470.1 106.305 469.892C105.855 469.68 105.497 469.375 105.232 468.977C104.966 468.576 104.834 468.091 104.834 467.523C104.834 467.023 104.932 466.617 105.129 466.307C105.326 465.992 105.589 465.746 105.919 465.568C106.249 465.39 106.612 465.258 107.01 465.17C107.411 465.08 107.815 465.008 108.22 464.955C108.75 464.886 109.18 464.835 109.51 464.801C109.843 464.763 110.086 464.701 110.237 464.614C110.393 464.527 110.47 464.375 110.47 464.159V464.114C110.47 463.553 110.317 463.117 110.01 462.807C109.707 462.496 109.247 462.341 108.629 462.341C107.989 462.341 107.487 462.481 107.124 462.761C106.76 463.042 106.504 463.341 106.357 463.659L105.084 463.205C105.311 462.674 105.614 462.261 105.993 461.966C106.375 461.667 106.792 461.458 107.243 461.341C107.697 461.22 108.144 461.159 108.584 461.159C108.864 461.159 109.186 461.193 109.55 461.261C109.917 461.326 110.271 461.46 110.612 461.665C110.957 461.869 111.243 462.178 111.47 462.591C111.697 463.004 111.811 463.557 111.811 464.25V470H110.47V468.818H110.402C110.311 469.008 110.16 469.21 109.947 469.426C109.735 469.642 109.453 469.826 109.101 469.977C108.749 470.129 108.319 470.205 107.811 470.205ZM108.016 469C108.546 469 108.993 468.896 109.357 468.688C109.724 468.479 110 468.21 110.186 467.881C110.375 467.551 110.47 467.205 110.47 466.841V465.614C110.413 465.682 110.288 465.744 110.095 465.801C109.906 465.854 109.686 465.902 109.436 465.943C109.19 465.981 108.949 466.015 108.714 466.045C108.483 466.072 108.296 466.095 108.152 466.114C107.804 466.159 107.478 466.233 107.175 466.335C106.875 466.434 106.633 466.583 106.447 466.784C106.266 466.981 106.175 467.25 106.175 467.591C106.175 468.057 106.347 468.409 106.692 468.648C107.04 468.883 107.482 469 108.016 469ZM117.804 470.182C116.986 470.182 116.281 469.989 115.69 469.602C115.099 469.216 114.645 468.684 114.327 468.006C114.009 467.328 113.849 466.553 113.849 465.682C113.849 464.795 114.012 464.013 114.338 463.335C114.668 462.653 115.126 462.121 115.713 461.739C116.304 461.352 116.993 461.159 117.781 461.159C118.395 461.159 118.948 461.273 119.44 461.5C119.933 461.727 120.336 462.045 120.651 462.455C120.965 462.864 121.16 463.341 121.236 463.886H119.895C119.793 463.489 119.565 463.136 119.213 462.83C118.865 462.519 118.395 462.364 117.804 462.364C117.281 462.364 116.823 462.5 116.429 462.773C116.039 463.042 115.734 463.422 115.514 463.915C115.298 464.403 115.19 464.977 115.19 465.636C115.19 466.311 115.296 466.898 115.509 467.398C115.724 467.898 116.027 468.286 116.418 468.562C116.812 468.839 117.274 468.977 117.804 468.977C118.152 468.977 118.469 468.917 118.753 468.795C119.037 468.674 119.277 468.5 119.474 468.273C119.671 468.045 119.812 467.773 119.895 467.455H121.236C121.16 467.97 120.973 468.434 120.673 468.847C120.378 469.256 119.986 469.581 119.497 469.824C119.012 470.062 118.448 470.182 117.804 470.182ZM126.855 470.182C126.014 470.182 125.289 469.996 124.679 469.625C124.073 469.25 123.605 468.727 123.276 468.057C122.95 467.383 122.787 466.598 122.787 465.705C122.787 464.811 122.95 464.023 123.276 463.341C123.605 462.655 124.063 462.121 124.651 461.739C125.241 461.352 125.931 461.159 126.719 461.159C127.173 461.159 127.622 461.235 128.065 461.386C128.509 461.538 128.912 461.784 129.276 462.125C129.639 462.462 129.929 462.909 130.145 463.466C130.361 464.023 130.469 464.708 130.469 465.523V466.091H123.741V464.932H129.105C129.105 464.439 129.007 464 128.81 463.614C128.616 463.227 128.34 462.922 127.98 462.699C127.624 462.475 127.204 462.364 126.719 462.364C126.185 462.364 125.723 462.496 125.332 462.761C124.946 463.023 124.649 463.364 124.44 463.784C124.232 464.205 124.128 464.655 124.128 465.136V465.909C124.128 466.568 124.241 467.127 124.469 467.585C124.7 468.04 125.02 468.386 125.429 468.625C125.838 468.86 126.313 468.977 126.855 468.977C127.207 468.977 127.526 468.928 127.81 468.83C128.098 468.727 128.346 468.576 128.554 468.375C128.762 468.17 128.923 467.917 129.037 467.614L130.332 467.977C130.196 468.417 129.967 468.803 129.645 469.136C129.323 469.466 128.925 469.723 128.452 469.909C127.978 470.091 127.446 470.182 126.855 470.182ZM139.577 470.205C139.024 470.205 138.522 470.1 138.071 469.892C137.62 469.68 137.262 469.375 136.997 468.977C136.732 468.576 136.599 468.091 136.599 467.523C136.599 467.023 136.698 466.617 136.895 466.307C137.092 465.992 137.355 465.746 137.685 465.568C138.014 465.39 138.378 465.258 138.776 465.17C139.177 465.08 139.58 465.008 139.986 464.955C140.516 464.886 140.946 464.835 141.276 464.801C141.609 464.763 141.851 464.701 142.003 464.614C142.158 464.527 142.236 464.375 142.236 464.159V464.114C142.236 463.553 142.082 463.117 141.776 462.807C141.473 462.496 141.012 462.341 140.395 462.341C139.755 462.341 139.253 462.481 138.889 462.761C138.526 463.042 138.27 463.341 138.122 463.659L136.849 463.205C137.077 462.674 137.38 462.261 137.759 461.966C138.141 461.667 138.558 461.458 139.009 461.341C139.463 461.22 139.91 461.159 140.349 461.159C140.63 461.159 140.952 461.193 141.315 461.261C141.683 461.326 142.037 461.46 142.378 461.665C142.723 461.869 143.009 462.178 143.236 462.591C143.463 463.004 143.577 463.557 143.577 464.25V470H142.236V468.818H142.168C142.077 469.008 141.925 469.21 141.713 469.426C141.501 469.642 141.219 469.826 140.866 469.977C140.514 470.129 140.084 470.205 139.577 470.205ZM139.781 469C140.312 469 140.759 468.896 141.122 468.688C141.49 468.479 141.766 468.21 141.952 467.881C142.141 467.551 142.236 467.205 142.236 466.841V465.614C142.179 465.682 142.054 465.744 141.861 465.801C141.671 465.854 141.452 465.902 141.202 465.943C140.955 465.981 140.715 466.015 140.48 466.045C140.249 466.072 140.062 466.095 139.918 466.114C139.569 466.159 139.243 466.233 138.94 466.335C138.641 466.434 138.399 466.583 138.213 466.784C138.031 466.981 137.94 467.25 137.94 467.591C137.94 468.057 138.113 468.409 138.457 468.648C138.806 468.883 139.247 469 139.781 469ZM147.365 464.75V470H146.024V461.273H147.32V462.636H147.433C147.638 462.193 147.948 461.837 148.365 461.568C148.782 461.295 149.32 461.159 149.979 461.159C150.57 461.159 151.087 461.28 151.53 461.523C151.973 461.761 152.318 462.125 152.564 462.614C152.81 463.098 152.933 463.712 152.933 464.455V470H151.592V464.545C151.592 463.86 151.414 463.326 151.058 462.943C150.702 462.557 150.214 462.364 149.592 462.364C149.164 462.364 148.782 462.456 148.445 462.642C148.111 462.828 147.848 463.098 147.655 463.455C147.462 463.811 147.365 464.242 147.365 464.75ZM158.679 470.182C157.952 470.182 157.31 469.998 156.753 469.631C156.196 469.259 155.76 468.737 155.446 468.062C155.132 467.384 154.974 466.583 154.974 465.659C154.974 464.742 155.132 463.947 155.446 463.273C155.76 462.598 156.198 462.078 156.759 461.71C157.319 461.343 157.967 461.159 158.702 461.159C159.27 461.159 159.719 461.254 160.048 461.443C160.382 461.629 160.635 461.841 160.81 462.08C160.988 462.314 161.126 462.508 161.224 462.659H161.338V458.364H162.679V470H161.384V468.659H161.224C161.126 468.818 160.986 469.019 160.804 469.261C160.622 469.5 160.363 469.714 160.026 469.903C159.688 470.089 159.24 470.182 158.679 470.182ZM158.861 468.977C159.399 468.977 159.853 468.837 160.224 468.557C160.596 468.273 160.878 467.881 161.071 467.381C161.264 466.877 161.361 466.295 161.361 465.636C161.361 464.985 161.266 464.415 161.077 463.926C160.887 463.434 160.607 463.051 160.236 462.778C159.865 462.502 159.406 462.364 158.861 462.364C158.293 462.364 157.819 462.509 157.44 462.801C157.065 463.089 156.783 463.481 156.594 463.977C156.408 464.47 156.315 465.023 156.315 465.636C156.315 466.258 156.41 466.822 156.599 467.33C156.793 467.833 157.077 468.235 157.452 468.534C157.83 468.83 158.3 468.977 158.861 468.977ZM173.366 470.182C172.548 470.182 171.844 469.989 171.253 469.602C170.662 469.216 170.207 468.684 169.889 468.006C169.571 467.328 169.412 466.553 169.412 465.682C169.412 464.795 169.575 464.013 169.901 463.335C170.23 462.653 170.688 462.121 171.276 461.739C171.866 461.352 172.556 461.159 173.344 461.159C173.957 461.159 174.51 461.273 175.003 461.5C175.495 461.727 175.899 462.045 176.213 462.455C176.527 462.864 176.723 463.341 176.798 463.886H175.457C175.355 463.489 175.128 463.136 174.776 462.83C174.427 462.519 173.957 462.364 173.366 462.364C172.844 462.364 172.385 462.5 171.991 462.773C171.601 463.042 171.296 463.422 171.077 463.915C170.861 464.403 170.753 464.977 170.753 465.636C170.753 466.311 170.859 466.898 171.071 467.398C171.287 467.898 171.59 468.286 171.98 468.562C172.374 468.839 172.836 468.977 173.366 468.977C173.715 468.977 174.031 468.917 174.315 468.795C174.599 468.674 174.84 468.5 175.037 468.273C175.234 468.045 175.374 467.773 175.457 467.455H176.798C176.723 467.97 176.535 468.434 176.236 468.847C175.94 469.256 175.548 469.581 175.06 469.824C174.575 470.062 174.01 470.182 173.366 470.182ZM184.259 466.432V461.273H185.599V470H184.259V468.523H184.168C183.963 468.966 183.645 469.343 183.213 469.653C182.781 469.96 182.236 470.114 181.577 470.114C181.031 470.114 180.546 469.994 180.122 469.756C179.698 469.513 179.365 469.15 179.122 468.665C178.88 468.176 178.759 467.561 178.759 466.818V461.273H180.099V466.727C180.099 467.364 180.277 467.871 180.634 468.25C180.993 468.629 181.452 468.818 182.009 468.818C182.342 468.818 182.681 468.733 183.026 468.562C183.374 468.392 183.666 468.131 183.901 467.778C184.139 467.426 184.259 466.977 184.259 466.432ZM191.851 461.273V462.409H187.328V461.273H191.851ZM188.646 459.182H189.987V467.5C189.987 467.879 190.042 468.163 190.152 468.352C190.266 468.538 190.41 468.663 190.584 468.727C190.762 468.788 190.949 468.818 191.146 468.818C191.294 468.818 191.415 468.811 191.51 468.795C191.605 468.777 191.68 468.761 191.737 468.75L192.01 469.955C191.919 469.989 191.792 470.023 191.629 470.057C191.466 470.095 191.26 470.114 191.01 470.114C190.631 470.114 190.26 470.032 189.896 469.869C189.536 469.706 189.237 469.458 188.999 469.125C188.764 468.792 188.646 468.371 188.646 467.864V459.182ZM198.368 470V461.273H199.663V462.591H199.754C199.913 462.159 200.201 461.809 200.618 461.54C201.035 461.271 201.504 461.136 202.027 461.136C202.125 461.136 202.249 461.138 202.396 461.142C202.544 461.146 202.656 461.152 202.732 461.159V462.523C202.686 462.511 202.582 462.494 202.419 462.472C202.26 462.445 202.091 462.432 201.913 462.432C201.489 462.432 201.11 462.521 200.777 462.699C200.447 462.873 200.186 463.116 199.993 463.426C199.804 463.733 199.709 464.083 199.709 464.477V470H198.368ZM207.714 470.182C206.874 470.182 206.148 469.996 205.538 469.625C204.932 469.25 204.464 468.727 204.135 468.057C203.809 467.383 203.646 466.598 203.646 465.705C203.646 464.811 203.809 464.023 204.135 463.341C204.464 462.655 204.923 462.121 205.51 461.739C206.101 461.352 206.79 461.159 207.578 461.159C208.033 461.159 208.482 461.235 208.925 461.386C209.368 461.538 209.771 461.784 210.135 462.125C210.499 462.462 210.788 462.909 211.004 463.466C211.22 464.023 211.328 464.708 211.328 465.523V466.091H204.601V464.932H209.964C209.964 464.439 209.866 464 209.669 463.614C209.476 463.227 209.199 462.922 208.839 462.699C208.483 462.475 208.063 462.364 207.578 462.364C207.044 462.364 206.582 462.496 206.192 462.761C205.805 463.023 205.508 463.364 205.3 463.784C205.091 464.205 204.987 464.655 204.987 465.136V465.909C204.987 466.568 205.101 467.127 205.328 467.585C205.559 468.04 205.879 468.386 206.288 468.625C206.697 468.86 207.173 468.977 207.714 468.977C208.067 468.977 208.385 468.928 208.669 468.83C208.957 468.727 209.205 468.576 209.413 468.375C209.622 468.17 209.783 467.917 209.896 467.614L211.192 467.977C211.055 468.417 210.826 468.803 210.504 469.136C210.182 469.466 209.785 469.723 209.311 469.909C208.838 470.091 208.305 470.182 207.714 470.182ZM215.936 470.205C215.383 470.205 214.881 470.1 214.43 469.892C213.98 469.68 213.622 469.375 213.357 468.977C213.091 468.576 212.959 468.091 212.959 467.523C212.959 467.023 213.057 466.617 213.254 466.307C213.451 465.992 213.714 465.746 214.044 465.568C214.374 465.39 214.737 465.258 215.135 465.17C215.536 465.08 215.94 465.008 216.345 464.955C216.875 464.886 217.305 464.835 217.635 464.801C217.968 464.763 218.211 464.701 218.362 464.614C218.518 464.527 218.595 464.375 218.595 464.159V464.114C218.595 463.553 218.442 463.117 218.135 462.807C217.832 462.496 217.372 462.341 216.754 462.341C216.114 462.341 215.612 462.481 215.249 462.761C214.885 463.042 214.629 463.341 214.482 463.659L213.209 463.205C213.436 462.674 213.739 462.261 214.118 461.966C214.5 461.667 214.917 461.458 215.368 461.341C215.822 461.22 216.269 461.159 216.709 461.159C216.989 461.159 217.311 461.193 217.675 461.261C218.042 461.326 218.396 461.46 218.737 461.665C219.082 461.869 219.368 462.178 219.595 462.591C219.822 463.004 219.936 463.557 219.936 464.25V470H218.595V468.818H218.527C218.436 469.008 218.285 469.21 218.072 469.426C217.86 469.642 217.578 469.826 217.226 469.977C216.874 470.129 216.444 470.205 215.936 470.205ZM216.141 469C216.671 469 217.118 468.896 217.482 468.688C217.849 468.479 218.125 468.21 218.311 467.881C218.5 467.551 218.595 467.205 218.595 466.841V465.614C218.538 465.682 218.413 465.744 218.22 465.801C218.031 465.854 217.811 465.902 217.561 465.943C217.315 465.981 217.074 466.015 216.839 466.045C216.608 466.072 216.421 466.095 216.277 466.114C215.929 466.159 215.603 466.233 215.3 466.335C215 466.434 214.758 466.583 214.572 466.784C214.391 466.981 214.3 467.25 214.3 467.591C214.3 468.057 214.472 468.409 214.817 468.648C215.165 468.883 215.607 469 216.141 469ZM223.724 458.364V470H222.384V458.364H223.724ZM234.339 470.182C233.499 470.182 232.773 469.996 232.163 469.625C231.557 469.25 231.089 468.727 230.76 468.057C230.434 467.383 230.271 466.598 230.271 465.705C230.271 464.811 230.434 464.023 230.76 463.341C231.089 462.655 231.548 462.121 232.135 461.739C232.726 461.352 233.415 461.159 234.203 461.159C234.658 461.159 235.107 461.235 235.55 461.386C235.993 461.538 236.396 461.784 236.76 462.125C237.124 462.462 237.413 462.909 237.629 463.466C237.845 464.023 237.953 464.708 237.953 465.523V466.091H231.226V464.932H236.589C236.589 464.439 236.491 464 236.294 463.614C236.101 463.227 235.824 462.922 235.464 462.699C235.108 462.475 234.688 462.364 234.203 462.364C233.669 462.364 233.207 462.496 232.817 462.761C232.43 463.023 232.133 463.364 231.925 463.784C231.716 464.205 231.612 464.655 231.612 465.136V465.909C231.612 466.568 231.726 467.127 231.953 467.585C232.184 468.04 232.504 468.386 232.913 468.625C233.322 468.86 233.798 468.977 234.339 468.977C234.692 468.977 235.01 468.928 235.294 468.83C235.582 468.727 235.83 468.576 236.038 468.375C236.247 468.17 236.408 467.917 236.521 467.614L237.817 467.977C237.68 468.417 237.451 468.803 237.129 469.136C236.807 469.466 236.41 469.723 235.936 469.909C235.463 470.091 234.93 470.182 234.339 470.182ZM246.175 463.227L244.97 463.568C244.894 463.367 244.783 463.172 244.635 462.983C244.491 462.79 244.294 462.631 244.044 462.506C243.794 462.381 243.474 462.318 243.084 462.318C242.55 462.318 242.105 462.441 241.749 462.688C241.396 462.93 241.22 463.239 241.22 463.614C241.22 463.947 241.341 464.21 241.584 464.403C241.826 464.597 242.205 464.758 242.72 464.886L244.016 465.205C244.796 465.394 245.377 465.684 245.76 466.074C246.143 466.46 246.334 466.958 246.334 467.568C246.334 468.068 246.19 468.515 245.902 468.909C245.618 469.303 245.22 469.614 244.709 469.841C244.197 470.068 243.603 470.182 242.925 470.182C242.035 470.182 241.298 469.989 240.714 469.602C240.131 469.216 239.762 468.652 239.607 467.909L240.879 467.591C241 468.061 241.23 468.413 241.567 468.648C241.908 468.883 242.353 469 242.902 469C243.527 469 244.023 468.867 244.391 468.602C244.762 468.333 244.947 468.011 244.947 467.636C244.947 467.333 244.841 467.08 244.629 466.875C244.417 466.667 244.091 466.511 243.652 466.409L242.197 466.068C241.398 465.879 240.811 465.585 240.436 465.188C240.065 464.786 239.879 464.284 239.879 463.682C239.879 463.189 240.018 462.754 240.294 462.375C240.574 461.996 240.955 461.699 241.436 461.483C241.921 461.267 242.47 461.159 243.084 461.159C243.947 461.159 244.625 461.348 245.118 461.727C245.614 462.106 245.966 462.606 246.175 463.227ZM252.148 461.273V462.409H247.625V461.273H252.148ZM248.943 459.182H250.284V467.5C250.284 467.879 250.339 468.163 250.449 468.352C250.563 468.538 250.706 468.663 250.881 468.727C251.059 468.788 251.246 468.818 251.443 468.818C251.591 468.818 251.712 468.811 251.807 468.795C251.902 468.777 251.977 468.761 252.034 468.75L252.307 469.955C252.216 469.989 252.089 470.023 251.926 470.057C251.763 470.095 251.557 470.114 251.307 470.114C250.928 470.114 250.557 470.032 250.193 469.869C249.833 469.706 249.534 469.458 249.295 469.125C249.061 468.792 248.943 468.371 248.943 467.864V459.182ZM256.733 470.205C256.18 470.205 255.678 470.1 255.227 469.892C254.777 469.68 254.419 469.375 254.153 468.977C253.888 468.576 253.756 468.091 253.756 467.523C253.756 467.023 253.854 466.617 254.051 466.307C254.248 465.992 254.511 465.746 254.841 465.568C255.17 465.39 255.534 465.258 255.932 465.17C256.333 465.08 256.737 465.008 257.142 464.955C257.672 464.886 258.102 464.835 258.432 464.801C258.765 464.763 259.008 464.701 259.159 464.614C259.314 464.527 259.392 464.375 259.392 464.159V464.114C259.392 463.553 259.239 463.117 258.932 462.807C258.629 462.496 258.169 462.341 257.551 462.341C256.911 462.341 256.409 462.481 256.045 462.761C255.682 463.042 255.426 463.341 255.278 463.659L254.006 463.205C254.233 462.674 254.536 462.261 254.915 461.966C255.297 461.667 255.714 461.458 256.165 461.341C256.619 461.22 257.066 461.159 257.506 461.159C257.786 461.159 258.108 461.193 258.472 461.261C258.839 461.326 259.193 461.46 259.534 461.665C259.879 461.869 260.165 462.178 260.392 462.591C260.619 463.004 260.733 463.557 260.733 464.25V470H259.392V468.818H259.324C259.233 469.008 259.081 469.21 258.869 469.426C258.657 469.642 258.375 469.826 258.023 469.977C257.67 470.129 257.241 470.205 256.733 470.205ZM256.938 469C257.468 469 257.915 468.896 258.278 468.688C258.646 468.479 258.922 468.21 259.108 467.881C259.297 467.551 259.392 467.205 259.392 466.841V465.614C259.335 465.682 259.21 465.744 259.017 465.801C258.828 465.854 258.608 465.902 258.358 465.943C258.112 465.981 257.871 466.015 257.636 466.045C257.405 466.072 257.218 466.095 257.074 466.114C256.725 466.159 256.4 466.233 256.097 466.335C255.797 466.434 255.555 466.583 255.369 466.784C255.188 466.981 255.097 467.25 255.097 467.591C255.097 468.057 255.269 468.409 255.614 468.648C255.962 468.883 256.403 469 256.938 469ZM266.976 461.273V462.409H262.453V461.273H266.976ZM263.771 459.182H265.112V467.5C265.112 467.879 265.167 468.163 265.277 468.352C265.391 468.538 265.535 468.663 265.709 468.727C265.887 468.788 266.074 468.818 266.271 468.818C266.419 468.818 266.54 468.811 266.635 468.795C266.73 468.777 266.805 468.761 266.862 468.75L267.135 469.955C267.044 469.989 266.917 470.023 266.754 470.057C266.591 470.095 266.385 470.114 266.135 470.114C265.756 470.114 265.385 470.032 265.021 469.869C264.661 469.706 264.362 469.458 264.124 469.125C263.889 468.792 263.771 468.371 263.771 467.864V459.182ZM272.558 470.182C271.717 470.182 270.992 469.996 270.382 469.625C269.776 469.25 269.308 468.727 268.979 468.057C268.653 467.383 268.49 466.598 268.49 465.705C268.49 464.811 268.653 464.023 268.979 463.341C269.308 462.655 269.767 462.121 270.354 461.739C270.945 461.352 271.634 461.159 272.422 461.159C272.876 461.159 273.325 461.235 273.768 461.386C274.212 461.538 274.615 461.784 274.979 462.125C275.342 462.462 275.632 462.909 275.848 463.466C276.064 464.023 276.172 464.708 276.172 465.523V466.091H269.445V464.932H274.808C274.808 464.439 274.71 464 274.513 463.614C274.32 463.227 274.043 462.922 273.683 462.699C273.327 462.475 272.907 462.364 272.422 462.364C271.888 462.364 271.426 462.496 271.036 462.761C270.649 463.023 270.352 463.364 270.143 463.784C269.935 464.205 269.831 464.655 269.831 465.136V465.909C269.831 466.568 269.945 467.127 270.172 467.585C270.403 468.04 270.723 468.386 271.132 468.625C271.541 468.86 272.017 468.977 272.558 468.977C272.911 468.977 273.229 468.928 273.513 468.83C273.801 468.727 274.049 468.576 274.257 468.375C274.465 468.17 274.626 467.917 274.74 467.614L276.036 467.977C275.899 468.417 275.67 468.803 275.348 469.136C275.026 469.466 274.628 469.723 274.155 469.909C273.681 470.091 273.149 470.182 272.558 470.182ZM286.257 470.182C285.439 470.182 284.734 469.989 284.143 469.602C283.553 469.216 283.098 468.684 282.78 468.006C282.462 467.328 282.303 466.553 282.303 465.682C282.303 464.795 282.465 464.013 282.791 463.335C283.121 462.653 283.579 462.121 284.166 461.739C284.757 461.352 285.446 461.159 286.234 461.159C286.848 461.159 287.401 461.273 287.893 461.5C288.386 461.727 288.789 462.045 289.104 462.455C289.418 462.864 289.613 463.341 289.689 463.886H288.348C288.246 463.489 288.018 463.136 287.666 462.83C287.318 462.519 286.848 462.364 286.257 462.364C285.734 462.364 285.276 462.5 284.882 462.773C284.492 463.042 284.187 463.422 283.967 463.915C283.751 464.403 283.643 464.977 283.643 465.636C283.643 466.311 283.75 466.898 283.962 467.398C284.178 467.898 284.481 468.286 284.871 468.562C285.265 468.839 285.727 468.977 286.257 468.977C286.606 468.977 286.922 468.917 287.206 468.795C287.49 468.674 287.731 468.5 287.928 468.273C288.125 468.045 288.265 467.773 288.348 467.455H289.689C289.613 467.97 289.426 468.434 289.126 468.847C288.831 469.256 288.439 469.581 287.95 469.824C287.465 470.062 286.901 470.182 286.257 470.182ZM295.195 470.182C294.407 470.182 293.715 469.994 293.121 469.619C292.53 469.244 292.068 468.72 291.734 468.045C291.405 467.371 291.24 466.583 291.24 465.682C291.24 464.773 291.405 463.979 291.734 463.301C292.068 462.623 292.53 462.097 293.121 461.722C293.715 461.347 294.407 461.159 295.195 461.159C295.982 461.159 296.672 461.347 297.263 461.722C297.857 462.097 298.32 462.623 298.649 463.301C298.982 463.979 299.149 464.773 299.149 465.682C299.149 466.583 298.982 467.371 298.649 468.045C298.32 468.72 297.857 469.244 297.263 469.619C296.672 469.994 295.982 470.182 295.195 470.182ZM295.195 468.977C295.793 468.977 296.286 468.824 296.672 468.517C297.058 468.21 297.344 467.807 297.53 467.307C297.715 466.807 297.808 466.265 297.808 465.682C297.808 465.098 297.715 464.555 297.53 464.051C297.344 463.547 297.058 463.14 296.672 462.83C296.286 462.519 295.793 462.364 295.195 462.364C294.596 462.364 294.104 462.519 293.717 462.83C293.331 463.14 293.045 463.547 292.859 464.051C292.674 464.555 292.581 465.098 292.581 465.682C292.581 466.265 292.674 466.807 292.859 467.307C293.045 467.807 293.331 468.21 293.717 468.517C294.104 468.824 294.596 468.977 295.195 468.977ZM307.378 463.227L306.173 463.568C306.098 463.367 305.986 463.172 305.838 462.983C305.694 462.79 305.497 462.631 305.247 462.506C304.997 462.381 304.677 462.318 304.287 462.318C303.753 462.318 303.308 462.441 302.952 462.688C302.599 462.93 302.423 463.239 302.423 463.614C302.423 463.947 302.545 464.21 302.787 464.403C303.029 464.597 303.408 464.758 303.923 464.886L305.219 465.205C305.999 465.394 306.58 465.684 306.963 466.074C307.346 466.46 307.537 466.958 307.537 467.568C307.537 468.068 307.393 468.515 307.105 468.909C306.821 469.303 306.423 469.614 305.912 469.841C305.401 470.068 304.806 470.182 304.128 470.182C303.238 470.182 302.501 469.989 301.918 469.602C301.334 469.216 300.965 468.652 300.81 467.909L302.082 467.591C302.204 468.061 302.433 468.413 302.77 468.648C303.111 468.883 303.556 469 304.105 469C304.73 469 305.226 468.867 305.594 468.602C305.965 468.333 306.151 468.011 306.151 467.636C306.151 467.333 306.045 467.08 305.832 466.875C305.62 466.667 305.295 466.511 304.855 466.409L303.401 466.068C302.601 465.879 302.014 465.585 301.639 465.188C301.268 464.786 301.082 464.284 301.082 463.682C301.082 463.189 301.221 462.754 301.497 462.375C301.777 461.996 302.158 461.699 302.639 461.483C303.124 461.267 303.673 461.159 304.287 461.159C305.151 461.159 305.829 461.348 306.321 461.727C306.817 462.106 307.17 462.606 307.378 463.227ZM313.351 461.273V462.409H308.828V461.273H313.351ZM310.146 459.182H311.487V467.5C311.487 467.879 311.542 468.163 311.652 468.352C311.766 468.538 311.91 468.663 312.084 468.727C312.262 468.788 312.449 468.818 312.646 468.818C312.794 468.818 312.915 468.811 313.01 468.795C313.105 468.777 313.18 468.761 313.237 468.75L313.51 469.955C313.419 469.989 313.292 470.023 313.129 470.057C312.966 470.095 312.76 470.114 312.51 470.114C312.131 470.114 311.76 470.032 311.396 469.869C311.036 469.706 310.737 469.458 310.499 469.125C310.264 468.792 310.146 468.371 310.146 467.864V459.182ZM316.345 470.091C316.065 470.091 315.824 469.991 315.624 469.79C315.423 469.589 315.322 469.348 315.322 469.068C315.322 468.788 315.423 468.547 315.624 468.347C315.824 468.146 316.065 468.045 316.345 468.045C316.625 468.045 316.866 468.146 317.067 468.347C317.268 468.547 317.368 468.788 317.368 469.068C317.368 469.254 317.321 469.424 317.226 469.58C317.135 469.735 317.012 469.86 316.857 469.955C316.705 470.045 316.535 470.091 316.345 470.091Z" fill="#139485"/>
<rect x="111" y="172" width="109" height="96" rx="15" stroke="white" stroke-opacity="0.1" stroke-width="2"/>
<rect x="317" y="95" width="109" height="96" rx="15" stroke="white" stroke-opacity="0.1" stroke-width="2"/>
<rect x="253" y="310" width="54" height="142" rx="15" stroke="white" stroke-opacity="0.1" stroke-width="2"/>
<rect x="345" y="517" width="54" height="54" rx="27" stroke="white" stroke-opacity="0.1" stroke-width="2"/>
<rect x="266" y="556" width="155" height="69" rx="15" stroke="white" stroke-opacity="0.1" stroke-width="2"/>
<defs>
<linearGradient id="paint0_linear_1994_3" x1="0" y1="0" x2="475" y2="698" gradientUnits="userSpaceOnUse">
<stop stop-color="#F2FFF9"/>
<stop offset="0.139174" stop-color="#C7EAE2"/>
<stop offset="0.298077" stop-color="#A6DAD2"/>
<stop offset="0.567308" stop-color="#BBD7F4"/>
<stop offset="0.774038" stop-color="#D2DADA"/>
<stop offset="1" stop-color="#F4DEB4"/>
</linearGradient>
<clipPath id="clip0_1994_3">
<rect width="110" height="126" fill="white" transform="translate(49 86)"/>
</clipPath>
</defs>
</svg>
