<svg width="475" height="698" viewBox="0 0 475 698" fill="none" xmlns="http://www.w3.org/2000/svg">
<rect width="475" height="698" fill="url(#paint0_linear_2057_1670)"/>
<path d="M58.0767 343L49.7528 313.909H56.4716L61.2869 334.122H61.5284L66.8409 313.909H72.5938L77.892 334.165H78.1477L82.9631 313.909H89.6818L81.358 343H75.3636L69.8239 323.98H69.5966L64.071 343H58.0767ZM100.374 343.426C98.1679 343.426 96.2597 342.957 94.6499 342.02C93.0495 341.073 91.8137 339.757 90.9425 338.071C90.0713 336.376 89.6357 334.411 89.6357 332.176C89.6357 329.922 90.0713 327.953 90.9425 326.267C91.8137 324.572 93.0495 323.256 94.6499 322.318C96.2597 321.371 98.1679 320.898 100.374 320.898C102.581 320.898 104.484 321.371 106.085 322.318C107.694 323.256 108.935 324.572 109.806 326.267C110.677 327.953 111.113 329.922 111.113 332.176C111.113 334.411 110.677 336.376 109.806 338.071C108.935 339.757 107.694 341.073 106.085 342.02C104.484 342.957 102.581 343.426 100.374 343.426ZM100.403 338.739C101.406 338.739 102.245 338.455 102.917 337.886C103.589 337.309 104.096 336.523 104.437 335.528C104.787 334.534 104.962 333.402 104.962 332.134C104.962 330.865 104.787 329.733 104.437 328.739C104.096 327.744 103.589 326.958 102.917 326.381C102.245 325.803 101.406 325.514 100.403 325.514C99.3894 325.514 98.5372 325.803 97.8459 326.381C97.1641 326.958 96.648 327.744 96.2976 328.739C95.9567 329.733 95.7862 330.865 95.7862 332.134C95.7862 333.402 95.9567 334.534 96.2976 335.528C96.648 336.523 97.1641 337.309 97.8459 337.886C98.5372 338.455 99.3894 338.739 100.403 338.739ZM115.048 343V321.182H120.914V324.989H121.141C121.539 323.634 122.207 322.612 123.144 321.92C124.082 321.22 125.161 320.869 126.383 320.869C126.686 320.869 127.013 320.888 127.363 320.926C127.713 320.964 128.021 321.016 128.286 321.082V326.452C128.002 326.366 127.609 326.291 127.107 326.224C126.605 326.158 126.146 326.125 125.729 326.125C124.839 326.125 124.044 326.319 123.343 326.707C122.652 327.086 122.103 327.616 121.695 328.298C121.298 328.98 121.099 329.766 121.099 330.656V343H115.048ZM136.898 336.722L136.912 329.463H137.793L144.781 321.182H151.727L142.338 332.148H140.903L136.898 336.722ZM131.415 343V313.909H137.466V343H131.415ZM145.051 343L138.631 333.497L142.665 329.222L152.139 343H145.051ZM172.849 327.403L167.31 327.744C167.215 327.271 167.011 326.845 166.699 326.466C166.386 326.078 165.974 325.77 165.463 325.543C164.961 325.306 164.36 325.188 163.659 325.188C162.722 325.188 161.931 325.386 161.287 325.784C160.643 326.172 160.321 326.693 160.321 327.347C160.321 327.867 160.529 328.308 160.946 328.668C161.363 329.027 162.078 329.316 163.091 329.534L167.04 330.33C169.161 330.765 170.742 331.466 171.784 332.432C172.826 333.398 173.347 334.667 173.347 336.239C173.347 337.669 172.925 338.923 172.082 340.003C171.249 341.082 170.103 341.925 168.645 342.531C167.196 343.128 165.525 343.426 163.631 343.426C160.742 343.426 158.441 342.825 156.727 341.622C155.023 340.41 154.024 338.762 153.73 336.679L159.682 336.366C159.862 337.247 160.297 337.92 160.989 338.384C161.68 338.838 162.565 339.065 163.645 339.065C164.705 339.065 165.558 338.862 166.202 338.455C166.855 338.038 167.187 337.503 167.196 336.849C167.187 336.3 166.955 335.85 166.5 335.5C166.045 335.14 165.345 334.866 164.398 334.676L160.619 333.923C158.489 333.497 156.902 332.759 155.861 331.707C154.829 330.656 154.312 329.316 154.312 327.688C154.312 326.286 154.691 325.079 155.449 324.065C156.216 323.052 157.291 322.271 158.673 321.722C160.065 321.172 161.694 320.898 163.56 320.898C166.315 320.898 168.484 321.48 170.065 322.645C171.656 323.81 172.584 325.396 172.849 327.403ZM177.157 351.182V321.182H183.123V324.847H183.393C183.658 324.259 184.041 323.663 184.543 323.057C185.055 322.441 185.718 321.93 186.532 321.523C187.356 321.106 188.379 320.898 189.6 320.898C191.191 320.898 192.659 321.314 194.004 322.148C195.348 322.972 196.423 324.217 197.228 325.884C198.033 327.541 198.435 329.619 198.435 332.119C198.435 334.553 198.042 336.608 197.256 338.284C196.48 339.951 195.419 341.215 194.075 342.077C192.739 342.929 191.243 343.355 189.586 343.355C188.412 343.355 187.413 343.161 186.589 342.773C185.774 342.384 185.107 341.897 184.586 341.31C184.065 340.713 183.667 340.112 183.393 339.506H183.208V351.182H177.157ZM183.08 332.091C183.08 333.388 183.26 334.52 183.62 335.486C183.98 336.452 184.501 337.205 185.183 337.744C185.864 338.275 186.693 338.54 187.668 338.54C188.653 338.54 189.487 338.27 190.168 337.73C190.85 337.181 191.366 336.423 191.717 335.457C192.076 334.482 192.256 333.36 192.256 332.091C192.256 330.831 192.081 329.723 191.731 328.767C191.38 327.811 190.864 327.062 190.183 326.523C189.501 325.983 188.663 325.713 187.668 325.713C186.683 325.713 185.85 325.973 185.168 326.494C184.496 327.015 183.98 327.754 183.62 328.71C183.26 329.667 183.08 330.794 183.08 332.091ZM208.691 343.412C207.299 343.412 206.058 343.17 204.969 342.688C203.88 342.195 203.019 341.471 202.384 340.514C201.759 339.548 201.447 338.346 201.447 336.906C201.447 335.694 201.669 334.676 202.114 333.852C202.559 333.028 203.165 332.366 203.933 331.864C204.7 331.362 205.571 330.983 206.546 330.727C207.531 330.472 208.563 330.292 209.643 330.188C210.912 330.055 211.934 329.932 212.711 329.818C213.487 329.695 214.051 329.515 214.401 329.278C214.752 329.042 214.927 328.691 214.927 328.227V328.142C214.927 327.242 214.643 326.546 214.075 326.054C213.516 325.562 212.72 325.315 211.688 325.315C210.599 325.315 209.733 325.557 209.089 326.04C208.445 326.513 208.019 327.11 207.81 327.83L202.214 327.375C202.498 326.049 203.057 324.903 203.89 323.938C204.723 322.962 205.798 322.214 207.114 321.693C208.44 321.163 209.974 320.898 211.717 320.898C212.929 320.898 214.089 321.04 215.197 321.324C216.314 321.608 217.304 322.048 218.165 322.645C219.037 323.241 219.723 324.009 220.225 324.946C220.727 325.874 220.978 326.987 220.978 328.284V343H215.239V339.974H215.069C214.719 340.656 214.25 341.258 213.663 341.778C213.076 342.29 212.37 342.692 211.546 342.986C210.722 343.27 209.771 343.412 208.691 343.412ZM210.424 339.236C211.314 339.236 212.1 339.061 212.782 338.71C213.464 338.35 213.999 337.867 214.387 337.261C214.775 336.655 214.969 335.969 214.969 335.202V332.886C214.78 333.009 214.52 333.123 214.188 333.227C213.866 333.322 213.502 333.412 213.094 333.497C212.687 333.573 212.28 333.644 211.873 333.71C211.466 333.767 211.096 333.819 210.765 333.866C210.055 333.971 209.434 334.136 208.904 334.364C208.374 334.591 207.962 334.899 207.668 335.287C207.375 335.666 207.228 336.139 207.228 336.707C207.228 337.531 207.526 338.161 208.123 338.597C208.729 339.023 209.496 339.236 210.424 339.236ZM235.531 343.426C233.296 343.426 231.373 342.953 229.763 342.006C228.163 341.049 226.932 339.723 226.07 338.028C225.218 336.333 224.792 334.383 224.792 332.176C224.792 329.941 225.223 327.981 226.085 326.295C226.956 324.6 228.192 323.279 229.792 322.332C231.392 321.376 233.296 320.898 235.502 320.898C237.406 320.898 239.072 321.243 240.502 321.935C241.932 322.626 243.064 323.597 243.897 324.847C244.73 326.097 245.19 327.564 245.275 329.25H239.565C239.404 328.161 238.978 327.285 238.286 326.622C237.604 325.95 236.71 325.614 235.602 325.614C234.664 325.614 233.845 325.869 233.144 326.381C232.453 326.883 231.913 327.616 231.525 328.582C231.137 329.548 230.942 330.718 230.942 332.091C230.942 333.483 231.132 334.667 231.511 335.642C231.899 336.617 232.443 337.361 233.144 337.872C233.845 338.384 234.664 338.639 235.602 338.639C236.293 338.639 236.913 338.497 237.462 338.213C238.021 337.929 238.48 337.517 238.84 336.977C239.21 336.428 239.451 335.77 239.565 335.003H245.275C245.18 336.67 244.726 338.137 243.911 339.406C243.106 340.666 241.994 341.651 240.573 342.361C239.153 343.071 237.472 343.426 235.531 343.426ZM259.092 343.426C256.848 343.426 254.916 342.972 253.297 342.062C251.687 341.144 250.446 339.847 249.575 338.17C248.704 336.485 248.268 334.491 248.268 332.19C248.268 329.946 248.704 327.976 249.575 326.281C250.446 324.586 251.673 323.265 253.254 322.318C254.845 321.371 256.711 320.898 258.851 320.898C260.29 320.898 261.63 321.13 262.871 321.594C264.121 322.048 265.21 322.735 266.138 323.653C267.075 324.572 267.804 325.727 268.325 327.119C268.846 328.502 269.107 330.121 269.107 331.977V333.639H250.683V329.889H263.411C263.411 329.018 263.221 328.246 262.842 327.574C262.464 326.902 261.938 326.376 261.266 325.997C260.603 325.609 259.831 325.415 258.95 325.415C258.032 325.415 257.217 325.628 256.507 326.054C255.806 326.471 255.257 327.034 254.859 327.744C254.462 328.445 254.258 329.226 254.249 330.088V333.653C254.249 334.733 254.447 335.666 254.845 336.452C255.252 337.238 255.825 337.844 256.564 338.27C257.303 338.696 258.179 338.909 259.192 338.909C259.864 338.909 260.48 338.814 261.038 338.625C261.597 338.436 262.075 338.152 262.473 337.773C262.871 337.394 263.174 336.93 263.382 336.381L268.979 336.75C268.695 338.095 268.112 339.269 267.232 340.273C266.36 341.267 265.233 342.044 263.851 342.602C262.478 343.152 260.892 343.426 259.092 343.426ZM57.679 361.909V391H51.5284V361.909H57.679ZM68.6768 378.386V391H62.6257V369.182H68.3928V373.031H68.6484C69.1314 371.762 69.9411 370.759 71.0774 370.02C72.2138 369.272 73.5916 368.898 75.2109 368.898C76.7261 368.898 78.0471 369.229 79.174 369.892C80.3009 370.555 81.1768 371.502 81.8018 372.733C82.4268 373.955 82.7393 375.413 82.7393 377.108V391H76.6882V378.188C76.6977 376.852 76.3568 375.811 75.6655 375.062C74.9742 374.305 74.0225 373.926 72.8104 373.926C71.996 373.926 71.2763 374.101 70.6513 374.452C70.0357 374.802 69.5528 375.313 69.2024 375.986C68.8615 376.649 68.6863 377.449 68.6768 378.386ZM99.1136 369.182V373.727H85.9744V369.182H99.1136ZM88.9574 363.955H95.0085V384.295C95.0085 384.854 95.0938 385.29 95.2642 385.602C95.4347 385.905 95.6714 386.118 95.9744 386.241C96.2869 386.365 96.6468 386.426 97.054 386.426C97.3381 386.426 97.6222 386.402 97.9062 386.355C98.1903 386.298 98.4081 386.256 98.5597 386.227L99.5114 390.73C99.2083 390.825 98.7822 390.934 98.233 391.057C97.6837 391.189 97.0161 391.27 96.2301 391.298C94.7718 391.355 93.4934 391.161 92.3949 390.716C91.3059 390.271 90.4583 389.58 89.8523 388.642C89.2462 387.705 88.9479 386.521 88.9574 385.091V363.955ZM112.764 391.426C110.52 391.426 108.588 390.972 106.969 390.062C105.359 389.144 104.118 387.847 103.247 386.17C102.376 384.485 101.94 382.491 101.94 380.19C101.94 377.946 102.376 375.976 103.247 374.281C104.118 372.586 105.345 371.265 106.926 370.318C108.517 369.371 110.383 368.898 112.523 368.898C113.962 368.898 115.302 369.13 116.543 369.594C117.793 370.048 118.882 370.735 119.81 371.653C120.747 372.572 121.476 373.727 121.997 375.119C122.518 376.502 122.778 378.121 122.778 379.977V381.639H104.355V377.889H117.082C117.082 377.018 116.893 376.246 116.514 375.574C116.135 374.902 115.61 374.376 114.938 373.997C114.275 373.609 113.503 373.415 112.622 373.415C111.704 373.415 110.889 373.628 110.179 374.054C109.478 374.471 108.929 375.034 108.531 375.744C108.134 376.445 107.93 377.226 107.92 378.088V381.653C107.92 382.733 108.119 383.666 108.517 384.452C108.924 385.238 109.497 385.844 110.236 386.27C110.974 386.696 111.85 386.909 112.864 386.909C113.536 386.909 114.152 386.814 114.71 386.625C115.269 386.436 115.747 386.152 116.145 385.773C116.543 385.394 116.846 384.93 117.054 384.381L122.651 384.75C122.366 386.095 121.784 387.269 120.903 388.273C120.032 389.267 118.905 390.044 117.523 390.602C116.15 391.152 114.563 391.426 112.764 391.426ZM132.778 361.909V391H126.727V361.909H132.778ZM143.677 361.909V391H137.626V361.909H143.677ZM148.524 391V369.182H154.575V391H148.524ZM151.564 366.369C150.664 366.369 149.893 366.071 149.249 365.474C148.614 364.868 148.297 364.144 148.297 363.301C148.297 362.468 148.614 361.753 149.249 361.156C149.893 360.55 150.664 360.247 151.564 360.247C152.464 360.247 153.231 360.55 153.865 361.156C154.509 361.753 154.831 362.468 154.831 363.301C154.831 364.144 154.509 364.868 153.865 365.474C153.231 366.071 152.464 366.369 151.564 366.369ZM169.252 399.636C167.292 399.636 165.611 399.366 164.21 398.827C162.817 398.296 161.71 397.572 160.886 396.653C160.062 395.735 159.527 394.703 159.281 393.557L164.877 392.804C165.048 393.24 165.317 393.647 165.687 394.026C166.056 394.404 166.544 394.707 167.15 394.935C167.765 395.171 168.513 395.29 169.394 395.29C170.71 395.29 171.795 394.968 172.647 394.324C173.509 393.689 173.94 392.624 173.94 391.128V387.136H173.684C173.419 387.742 173.021 388.315 172.491 388.855C171.96 389.395 171.279 389.835 170.445 390.176C169.612 390.517 168.618 390.688 167.462 390.688C165.824 390.688 164.333 390.309 162.988 389.551C161.653 388.784 160.587 387.615 159.792 386.043C159.006 384.461 158.613 382.463 158.613 380.048C158.613 377.577 159.015 375.512 159.82 373.855C160.625 372.198 161.695 370.957 163.031 370.134C164.375 369.31 165.848 368.898 167.448 368.898C168.67 368.898 169.692 369.106 170.516 369.523C171.34 369.93 172.003 370.441 172.505 371.057C173.016 371.663 173.409 372.259 173.684 372.847H173.911V369.182H179.92V391.213C179.92 393.069 179.465 394.622 178.556 395.872C177.647 397.122 176.388 398.06 174.778 398.685C173.177 399.319 171.335 399.636 169.252 399.636ZM169.38 386.142C170.355 386.142 171.179 385.901 171.852 385.418C172.533 384.925 173.054 384.224 173.414 383.315C173.783 382.397 173.968 381.298 173.968 380.02C173.968 378.741 173.788 377.634 173.428 376.696C173.068 375.749 172.548 375.015 171.866 374.494C171.184 373.973 170.355 373.713 169.38 373.713C168.386 373.713 167.548 373.983 166.866 374.523C166.184 375.053 165.668 375.792 165.317 376.739C164.967 377.686 164.792 378.779 164.792 380.02C164.792 381.279 164.967 382.368 165.317 383.287C165.677 384.196 166.193 384.902 166.866 385.403C167.548 385.896 168.386 386.142 169.38 386.142ZM194.678 391.426C192.434 391.426 190.502 390.972 188.883 390.062C187.273 389.144 186.032 387.847 185.161 386.17C184.29 384.485 183.854 382.491 183.854 380.19C183.854 377.946 184.29 375.976 185.161 374.281C186.032 372.586 187.259 371.265 188.84 370.318C190.431 369.371 192.297 368.898 194.437 368.898C195.876 368.898 197.216 369.13 198.457 369.594C199.707 370.048 200.796 370.735 201.724 371.653C202.661 372.572 203.39 373.727 203.911 375.119C204.432 376.502 204.692 378.121 204.692 379.977V381.639H186.269V377.889H198.996C198.996 377.018 198.807 376.246 198.428 375.574C198.049 374.902 197.524 374.376 196.852 373.997C196.189 373.609 195.417 373.415 194.536 373.415C193.618 373.415 192.803 373.628 192.093 374.054C191.392 374.471 190.843 375.034 190.445 375.744C190.048 376.445 189.844 377.226 189.835 378.088V381.653C189.835 382.733 190.033 383.666 190.431 384.452C190.838 385.238 191.411 385.844 192.15 386.27C192.888 386.696 193.764 386.909 194.778 386.909C195.45 386.909 196.066 386.814 196.624 386.625C197.183 386.436 197.661 386.152 198.059 385.773C198.457 385.394 198.76 384.93 198.968 384.381L204.565 384.75C204.281 386.095 203.698 387.269 202.817 388.273C201.946 389.267 200.819 390.044 199.437 390.602C198.064 391.152 196.478 391.426 194.678 391.426ZM214.692 378.386V391H208.641V369.182H214.408V373.031H214.664C215.147 371.762 215.957 370.759 217.093 370.02C218.229 369.272 219.607 368.898 221.227 368.898C222.742 368.898 224.063 369.229 225.19 369.892C226.317 370.555 227.192 371.502 227.817 372.733C228.442 373.955 228.755 375.413 228.755 377.108V391H222.704V378.188C222.713 376.852 222.372 375.811 221.681 375.062C220.99 374.305 220.038 373.926 218.826 373.926C218.012 373.926 217.292 374.101 216.667 374.452C216.051 374.802 215.568 375.313 215.218 375.986C214.877 376.649 214.702 377.449 214.692 378.386ZM243.467 391.426C241.223 391.426 239.291 390.972 237.672 390.062C236.062 389.144 234.821 387.847 233.95 386.17C233.079 384.485 232.643 382.491 232.643 380.19C232.643 377.946 233.079 375.976 233.95 374.281C234.821 372.586 236.048 371.265 237.629 370.318C239.22 369.371 241.086 368.898 243.226 368.898C244.665 368.898 246.005 369.13 247.246 369.594C248.496 370.048 249.585 370.735 250.513 371.653C251.45 372.572 252.179 373.727 252.7 375.119C253.221 376.502 253.482 378.121 253.482 379.977V381.639H235.058V377.889H247.786C247.786 377.018 247.596 376.246 247.217 375.574C246.839 374.902 246.313 374.376 245.641 373.997C244.978 373.609 244.206 373.415 243.325 373.415C242.407 373.415 241.592 373.628 240.882 374.054C240.181 374.471 239.632 375.034 239.234 375.744C238.837 376.445 238.633 377.226 238.624 378.088V381.653C238.624 382.733 238.822 383.666 239.22 384.452C239.627 385.238 240.2 385.844 240.939 386.27C241.678 386.696 242.554 386.909 243.567 386.909C244.239 386.909 244.855 386.814 245.413 386.625C245.972 386.436 246.45 386.152 246.848 385.773C247.246 385.394 247.549 384.93 247.757 384.381L253.354 384.75C253.07 386.095 252.487 387.269 251.607 388.273C250.735 389.267 249.608 390.044 248.226 390.602C246.853 391.152 245.267 391.426 243.467 391.426ZM264.007 387.023L263.851 388.585C263.728 389.835 263.491 391.08 263.141 392.321C262.8 393.571 262.44 394.703 262.061 395.716C261.692 396.729 261.393 397.525 261.166 398.102H257.246C257.388 397.544 257.582 396.762 257.828 395.759C258.074 394.764 258.306 393.647 258.524 392.406C258.742 391.166 258.879 389.902 258.936 388.614L259.007 387.023H264.007ZM51.5284 439V409.909H63.0057C65.2027 409.909 67.0777 410.302 68.6307 411.088C70.1932 411.865 71.3816 412.968 72.196 414.398C73.0199 415.818 73.4318 417.49 73.4318 419.412C73.4318 421.344 73.0152 423.006 72.1818 424.398C71.3485 425.78 70.1411 426.841 68.5597 427.58C66.9877 428.318 65.0843 428.688 62.8494 428.688H55.1648V423.744H61.8551C63.0294 423.744 64.0047 423.583 64.7812 423.261C65.5578 422.939 66.1354 422.456 66.5142 421.812C66.9025 421.169 67.0966 420.368 67.0966 419.412C67.0966 418.446 66.9025 417.632 66.5142 416.969C66.1354 416.306 65.553 415.804 64.767 415.463C63.9905 415.113 63.0104 414.938 61.8267 414.938H57.679V439H51.5284ZM67.2386 425.761L74.4688 439H67.679L60.6051 425.761H67.2386ZM87.2564 439.426C85.0121 439.426 83.0803 438.972 81.4609 438.062C79.8511 437.144 78.6106 435.847 77.7393 434.17C76.8681 432.485 76.4325 430.491 76.4325 428.19C76.4325 425.946 76.8681 423.976 77.7393 422.281C78.6106 420.586 79.8369 419.265 81.4183 418.318C83.0092 417.371 84.8748 416.898 87.0149 416.898C88.4543 416.898 89.7943 417.13 91.0348 417.594C92.2848 418.048 93.3738 418.735 94.3018 419.653C95.2393 420.572 95.9685 421.727 96.4893 423.119C97.0102 424.502 97.2706 426.121 97.2706 427.977V429.639H78.8473V425.889H91.5746C91.5746 425.018 91.3852 424.246 91.0064 423.574C90.6276 422.902 90.102 422.376 89.4297 421.997C88.7668 421.609 87.995 421.415 87.1143 421.415C86.1958 421.415 85.3814 421.628 84.6712 422.054C83.9704 422.471 83.4212 423.034 83.0234 423.744C82.6257 424.445 82.4221 425.226 82.4126 426.088V429.653C82.4126 430.733 82.6115 431.666 83.0092 432.452C83.4164 433.238 83.9893 433.844 84.728 434.27C85.4666 434.696 86.3426 434.909 87.3558 434.909C88.0282 434.909 88.6437 434.814 89.2024 434.625C89.7611 434.436 90.2393 434.152 90.6371 433.773C91.0348 433.394 91.3378 432.93 91.5462 432.381L97.1428 432.75C96.8587 434.095 96.2763 435.269 95.3956 436.273C94.5244 437.267 93.3975 438.044 92.0149 438.602C90.6418 439.152 89.0556 439.426 87.2564 439.426ZM101.219 439V417.182H107.271V439H101.219ZM104.259 414.369C103.36 414.369 102.588 414.071 101.944 413.474C101.309 412.868 100.992 412.144 100.992 411.301C100.992 410.468 101.309 409.753 101.944 409.156C102.588 408.55 103.36 408.247 104.259 408.247C105.159 408.247 105.926 408.55 106.56 409.156C107.204 409.753 107.526 410.468 107.526 411.301C107.526 412.144 107.204 412.868 106.56 413.474C105.926 414.071 105.159 414.369 104.259 414.369ZM112.118 439V417.182H117.885V421.031H118.141C118.595 419.753 119.353 418.744 120.413 418.006C121.474 417.267 122.743 416.898 124.22 416.898C125.716 416.898 126.99 417.272 128.041 418.02C129.092 418.759 129.793 419.762 130.143 421.031H130.371C130.816 419.781 131.621 418.782 132.786 418.034C133.96 417.277 135.347 416.898 136.947 416.898C138.983 416.898 140.636 417.546 141.905 418.844C143.183 420.132 143.822 421.959 143.822 424.327V439H137.786V425.52C137.786 424.308 137.464 423.399 136.82 422.793C136.176 422.187 135.371 421.884 134.405 421.884C133.306 421.884 132.449 422.234 131.834 422.935C131.218 423.626 130.911 424.54 130.911 425.676V439H125.044V425.392C125.044 424.322 124.736 423.47 124.121 422.835C123.515 422.201 122.714 421.884 121.72 421.884C121.048 421.884 120.442 422.054 119.902 422.395C119.372 422.726 118.95 423.195 118.638 423.801C118.325 424.398 118.169 425.098 118.169 425.903V439H112.118ZM154.824 439.412C153.432 439.412 152.191 439.17 151.102 438.688C150.013 438.195 149.152 437.471 148.517 436.514C147.892 435.548 147.58 434.346 147.58 432.906C147.58 431.694 147.802 430.676 148.247 429.852C148.692 429.028 149.298 428.366 150.065 427.864C150.832 427.362 151.704 426.983 152.679 426.727C153.664 426.472 154.696 426.292 155.776 426.188C157.045 426.055 158.067 425.932 158.844 425.818C159.62 425.695 160.184 425.515 160.534 425.278C160.884 425.042 161.06 424.691 161.06 424.227V424.142C161.06 423.242 160.776 422.546 160.207 422.054C159.649 421.562 158.853 421.315 157.821 421.315C156.732 421.315 155.866 421.557 155.222 422.04C154.578 422.513 154.152 423.11 153.943 423.83L148.347 423.375C148.631 422.049 149.189 420.903 150.023 419.938C150.856 418.962 151.931 418.214 153.247 417.693C154.573 417.163 156.107 416.898 157.849 416.898C159.062 416.898 160.222 417.04 161.33 417.324C162.447 417.608 163.437 418.048 164.298 418.645C165.17 419.241 165.856 420.009 166.358 420.946C166.86 421.874 167.111 422.987 167.111 424.284V439H161.372V435.974H161.202C160.851 436.656 160.383 437.258 159.795 437.778C159.208 438.29 158.503 438.692 157.679 438.986C156.855 439.27 155.903 439.412 154.824 439.412ZM156.557 435.236C157.447 435.236 158.233 435.061 158.915 434.71C159.597 434.35 160.132 433.867 160.52 433.261C160.908 432.655 161.102 431.969 161.102 431.202V428.886C160.913 429.009 160.652 429.123 160.321 429.227C159.999 429.322 159.634 429.412 159.227 429.497C158.82 429.573 158.413 429.644 158.006 429.71C157.598 429.767 157.229 429.819 156.898 429.866C156.188 429.971 155.567 430.136 155.037 430.364C154.507 430.591 154.095 430.899 153.801 431.287C153.508 431.666 153.361 432.139 153.361 432.707C153.361 433.531 153.659 434.161 154.256 434.597C154.862 435.023 155.629 435.236 156.557 435.236ZM181.635 447.636C179.675 447.636 177.994 447.366 176.592 446.827C175.2 446.296 174.092 445.572 173.268 444.653C172.445 443.735 171.91 442.703 171.663 441.557L177.26 440.804C177.43 441.24 177.7 441.647 178.07 442.026C178.439 442.404 178.927 442.707 179.533 442.935C180.148 443.171 180.896 443.29 181.777 443.29C183.093 443.29 184.178 442.968 185.03 442.324C185.892 441.689 186.322 440.624 186.322 439.128V435.136H186.067C185.802 435.742 185.404 436.315 184.874 436.855C184.343 437.395 183.661 437.835 182.828 438.176C181.995 438.517 181 438.688 179.845 438.688C178.207 438.688 176.715 438.309 175.371 437.551C174.036 436.784 172.97 435.615 172.175 434.043C171.389 432.461 170.996 430.463 170.996 428.048C170.996 425.577 171.398 423.512 172.203 421.855C173.008 420.198 174.078 418.957 175.413 418.134C176.758 417.31 178.231 416.898 179.831 416.898C181.053 416.898 182.075 417.106 182.899 417.523C183.723 417.93 184.386 418.441 184.888 419.057C185.399 419.663 185.792 420.259 186.067 420.847H186.294V417.182H192.303V439.213C192.303 441.069 191.848 442.622 190.939 443.872C190.03 445.122 188.77 446.06 187.161 446.685C185.56 447.319 183.718 447.636 181.635 447.636ZM181.763 434.142C182.738 434.142 183.562 433.901 184.234 433.418C184.916 432.925 185.437 432.224 185.797 431.315C186.166 430.397 186.351 429.298 186.351 428.02C186.351 426.741 186.171 425.634 185.811 424.696C185.451 423.749 184.93 423.015 184.249 422.494C183.567 421.973 182.738 421.713 181.763 421.713C180.768 421.713 179.93 421.983 179.249 422.523C178.567 423.053 178.051 423.792 177.7 424.739C177.35 425.686 177.175 426.779 177.175 428.02C177.175 429.279 177.35 430.368 177.7 431.287C178.06 432.196 178.576 432.902 179.249 433.403C179.93 433.896 180.768 434.142 181.763 434.142ZM197.118 439V417.182H203.169V439H197.118ZM200.158 414.369C199.258 414.369 198.486 414.071 197.842 413.474C197.208 412.868 196.891 412.144 196.891 411.301C196.891 410.468 197.208 409.753 197.842 409.156C198.486 408.55 199.258 408.247 200.158 408.247C201.057 408.247 201.824 408.55 202.459 409.156C203.103 409.753 203.425 410.468 203.425 411.301C203.425 412.144 203.103 412.868 202.459 413.474C201.824 414.071 201.057 414.369 200.158 414.369ZM214.067 426.386V439H208.016V417.182H213.783V421.031H214.039C214.522 419.762 215.332 418.759 216.468 418.02C217.604 417.272 218.982 416.898 220.602 416.898C222.117 416.898 223.438 417.229 224.565 417.892C225.692 418.555 226.567 419.502 227.192 420.733C227.817 421.955 228.13 423.413 228.13 425.108V439H222.079V426.188C222.088 424.852 221.747 423.811 221.056 423.062C220.365 422.305 219.413 421.926 218.201 421.926C217.387 421.926 216.667 422.101 216.042 422.452C215.426 422.802 214.943 423.313 214.593 423.986C214.252 424.649 214.077 425.449 214.067 426.386ZM242.842 439.426C240.598 439.426 238.666 438.972 237.047 438.062C235.437 437.144 234.196 435.847 233.325 434.17C232.454 432.485 232.018 430.491 232.018 428.19C232.018 425.946 232.454 423.976 233.325 422.281C234.196 420.586 235.423 419.265 237.004 418.318C238.595 417.371 240.461 416.898 242.601 416.898C244.04 416.898 245.38 417.13 246.621 417.594C247.871 418.048 248.96 418.735 249.888 419.653C250.825 420.572 251.554 421.727 252.075 423.119C252.596 424.502 252.857 426.121 252.857 427.977V429.639H234.433V425.889H247.161C247.161 425.018 246.971 424.246 246.592 423.574C246.214 422.902 245.688 422.376 245.016 421.997C244.353 421.609 243.581 421.415 242.7 421.415C241.782 421.415 240.967 421.628 240.257 422.054C239.556 422.471 239.007 423.034 238.609 423.744C238.212 424.445 238.008 425.226 237.999 426.088V429.653C237.999 430.733 238.197 431.666 238.595 432.452C239.002 433.238 239.575 433.844 240.314 434.27C241.053 434.696 241.929 434.909 242.942 434.909C243.614 434.909 244.23 434.814 244.788 434.625C245.347 434.436 245.825 434.152 246.223 433.773C246.621 433.394 246.924 432.93 247.132 432.381L252.729 432.75C252.445 434.095 251.862 435.269 250.982 436.273C250.11 437.267 248.983 438.044 247.601 438.602C246.228 439.152 244.642 439.426 242.842 439.426ZM264.845 439.355C263.188 439.355 261.687 438.929 260.342 438.077C259.007 437.215 257.946 435.951 257.161 434.284C256.384 432.608 255.996 430.553 255.996 428.119C255.996 425.619 256.398 423.541 257.203 421.884C258.008 420.217 259.078 418.972 260.413 418.148C261.758 417.314 263.231 416.898 264.831 416.898C266.053 416.898 267.071 417.106 267.885 417.523C268.709 417.93 269.372 418.441 269.874 419.057C270.385 419.663 270.773 420.259 271.038 420.847H271.223V409.909H277.26V439H271.294V435.506H271.038C270.754 436.112 270.352 436.713 269.831 437.31C269.32 437.897 268.652 438.384 267.828 438.773C267.014 439.161 266.019 439.355 264.845 439.355ZM266.763 434.54C267.738 434.54 268.562 434.275 269.234 433.744C269.916 433.205 270.437 432.452 270.797 431.486C271.166 430.52 271.351 429.388 271.351 428.091C271.351 426.794 271.171 425.667 270.811 424.71C270.451 423.754 269.93 423.015 269.249 422.494C268.567 421.973 267.738 421.713 266.763 421.713C265.768 421.713 264.93 421.983 264.249 422.523C263.567 423.062 263.051 423.811 262.7 424.767C262.35 425.723 262.175 426.831 262.175 428.091C262.175 429.36 262.35 430.482 262.7 431.457C263.06 432.423 263.576 433.181 264.249 433.73C264.93 434.27 265.768 434.54 266.763 434.54Z" fill="#024039"/>
<path d="M52.5227 476L49.3409 464.364H50.7727L53.2045 473.841H53.3182L55.7955 464.364H57.3864L59.8636 473.841H59.9773L62.4091 464.364H63.8409L60.6591 476H59.2045L56.6364 466.727H56.5455L53.9773 476H52.5227ZM68.2614 476.182C67.4205 476.182 66.6951 475.996 66.0852 475.625C65.4792 475.25 65.0114 474.727 64.6818 474.057C64.3561 473.383 64.1932 472.598 64.1932 471.705C64.1932 470.811 64.3561 470.023 64.6818 469.341C65.0114 468.655 65.4697 468.121 66.0568 467.739C66.6477 467.352 67.3371 467.159 68.125 467.159C68.5795 467.159 69.0284 467.235 69.4716 467.386C69.9148 467.538 70.3182 467.784 70.6818 468.125C71.0455 468.462 71.3352 468.909 71.5511 469.466C71.767 470.023 71.875 470.708 71.875 471.523V472.091H65.1477V470.932H70.5114C70.5114 470.439 70.4129 470 70.2159 469.614C70.0227 469.227 69.7462 468.922 69.3864 468.699C69.0303 468.475 68.6098 468.364 68.125 468.364C67.5909 468.364 67.1288 468.496 66.7386 468.761C66.3523 469.023 66.0549 469.364 65.8466 469.784C65.6383 470.205 65.5341 470.655 65.5341 471.136V471.909C65.5341 472.568 65.6477 473.127 65.875 473.585C66.1061 474.04 66.4261 474.386 66.8352 474.625C67.2443 474.86 67.7197 474.977 68.2614 474.977C68.6136 474.977 68.9318 474.928 69.2159 474.83C69.5038 474.727 69.7519 474.576 69.9602 474.375C70.1686 474.17 70.3295 473.917 70.4432 473.614L71.7386 473.977C71.6023 474.417 71.3731 474.803 71.0511 475.136C70.7292 475.466 70.3314 475.723 69.858 475.909C69.3845 476.091 68.8523 476.182 68.2614 476.182ZM79.7557 470.75V476H78.4148V464.364H79.7557V468.636H79.8693C80.0739 468.186 80.3807 467.828 80.7898 467.562C81.2027 467.294 81.7519 467.159 82.4375 467.159C83.0322 467.159 83.553 467.278 84 467.517C84.447 467.752 84.7936 468.114 85.0398 468.602C85.2898 469.087 85.4148 469.705 85.4148 470.455V476H84.0739V470.545C84.0739 469.852 83.8939 469.316 83.5341 468.938C83.178 468.555 82.6837 468.364 82.0511 468.364C81.6117 468.364 81.2178 468.456 80.8693 468.642C80.5246 468.828 80.2519 469.098 80.0511 469.455C79.8542 469.811 79.7557 470.242 79.7557 470.75ZM91.527 476.182C90.6861 476.182 89.9607 475.996 89.3509 475.625C88.7448 475.25 88.277 474.727 87.9474 474.057C87.6217 473.383 87.4588 472.598 87.4588 471.705C87.4588 470.811 87.6217 470.023 87.9474 469.341C88.277 468.655 88.7353 468.121 89.3224 467.739C89.9134 467.352 90.6027 467.159 91.3906 467.159C91.8452 467.159 92.294 467.235 92.7372 467.386C93.1804 467.538 93.5838 467.784 93.9474 468.125C94.3111 468.462 94.6009 468.909 94.8168 469.466C95.0327 470.023 95.1406 470.708 95.1406 471.523V472.091H88.4134V470.932H93.777C93.777 470.439 93.6785 470 93.4815 469.614C93.2884 469.227 93.0118 468.922 92.652 468.699C92.2959 468.475 91.8755 468.364 91.3906 468.364C90.8565 468.364 90.3944 468.496 90.0043 468.761C89.6179 469.023 89.3205 469.364 89.1122 469.784C88.9039 470.205 88.7997 470.655 88.7997 471.136V471.909C88.7997 472.568 88.9134 473.127 89.1406 473.585C89.3717 474.04 89.6918 474.386 90.1009 474.625C90.5099 474.86 90.9853 474.977 91.527 474.977C91.8793 474.977 92.1974 474.928 92.4815 474.83C92.7694 474.727 93.0175 474.576 93.2259 474.375C93.4342 474.17 93.5952 473.917 93.7088 473.614L95.0043 473.977C94.8679 474.417 94.6387 474.803 94.3168 475.136C93.9948 475.466 93.5971 475.723 93.1236 475.909C92.6501 476.091 92.1179 476.182 91.527 476.182ZM98.5213 464.364V476H97.1804V464.364H98.5213ZM100.977 479.273V467.273H102.273V468.659H102.432C102.53 468.508 102.667 468.314 102.841 468.08C103.019 467.841 103.273 467.629 103.602 467.443C103.936 467.254 104.386 467.159 104.955 467.159C105.689 467.159 106.337 467.343 106.898 467.71C107.458 468.078 107.896 468.598 108.21 469.273C108.525 469.947 108.682 470.742 108.682 471.659C108.682 472.583 108.525 473.384 108.21 474.062C107.896 474.737 107.46 475.259 106.903 475.631C106.347 475.998 105.705 476.182 104.977 476.182C104.417 476.182 103.968 476.089 103.631 475.903C103.294 475.714 103.034 475.5 102.852 475.261C102.67 475.019 102.53 474.818 102.432 474.659H102.318V479.273H100.977ZM102.295 471.636C102.295 472.295 102.392 472.877 102.585 473.381C102.778 473.881 103.061 474.273 103.432 474.557C103.803 474.837 104.258 474.977 104.795 474.977C105.356 474.977 105.824 474.83 106.199 474.534C106.578 474.235 106.862 473.833 107.051 473.33C107.244 472.822 107.341 472.258 107.341 471.636C107.341 471.023 107.246 470.47 107.057 469.977C106.871 469.481 106.589 469.089 106.21 468.801C105.835 468.509 105.364 468.364 104.795 468.364C104.25 468.364 103.792 468.502 103.42 468.778C103.049 469.051 102.769 469.434 102.58 469.926C102.39 470.415 102.295 470.985 102.295 471.636ZM116.091 479.273C115.864 479.273 115.661 479.254 115.483 479.216C115.305 479.182 115.182 479.148 115.114 479.114L115.455 477.932C115.78 478.015 116.068 478.045 116.318 478.023C116.568 478 116.79 477.888 116.983 477.688C117.18 477.491 117.36 477.17 117.523 476.727L117.773 476.045L114.545 467.273H116L118.409 474.227H118.5L120.909 467.273H122.364L118.659 477.273C118.492 477.723 118.286 478.097 118.04 478.392C117.794 478.691 117.508 478.913 117.182 479.057C116.86 479.201 116.496 479.273 116.091 479.273ZM127.366 476.182C126.579 476.182 125.887 475.994 125.293 475.619C124.702 475.244 124.24 474.72 123.906 474.045C123.577 473.371 123.412 472.583 123.412 471.682C123.412 470.773 123.577 469.979 123.906 469.301C124.24 468.623 124.702 468.097 125.293 467.722C125.887 467.347 126.579 467.159 127.366 467.159C128.154 467.159 128.844 467.347 129.435 467.722C130.029 468.097 130.491 468.623 130.821 469.301C131.154 469.979 131.321 470.773 131.321 471.682C131.321 472.583 131.154 473.371 130.821 474.045C130.491 474.72 130.029 475.244 129.435 475.619C128.844 475.994 128.154 476.182 127.366 476.182ZM127.366 474.977C127.965 474.977 128.457 474.824 128.844 474.517C129.23 474.21 129.516 473.807 129.702 473.307C129.887 472.807 129.98 472.265 129.98 471.682C129.98 471.098 129.887 470.555 129.702 470.051C129.516 469.547 129.23 469.14 128.844 468.83C128.457 468.519 127.965 468.364 127.366 468.364C126.768 468.364 126.276 468.519 125.889 468.83C125.503 469.14 125.217 469.547 125.031 470.051C124.846 470.555 124.753 471.098 124.753 471.682C124.753 472.265 124.846 472.807 125.031 473.307C125.217 473.807 125.503 474.21 125.889 474.517C126.276 474.824 126.768 474.977 127.366 474.977ZM138.868 472.432V467.273H140.209V476H138.868V474.523H138.777C138.572 474.966 138.254 475.343 137.822 475.653C137.391 475.96 136.845 476.114 136.186 476.114C135.641 476.114 135.156 475.994 134.732 475.756C134.307 475.513 133.974 475.15 133.732 474.665C133.489 474.176 133.368 473.561 133.368 472.818V467.273H134.709V472.727C134.709 473.364 134.887 473.871 135.243 474.25C135.603 474.629 136.061 474.818 136.618 474.818C136.951 474.818 137.29 474.733 137.635 474.562C137.983 474.392 138.275 474.131 138.51 473.778C138.749 473.426 138.868 472.977 138.868 472.432ZM150.96 467.273V468.409H146.438V467.273H150.96ZM147.756 465.182H149.097V473.5C149.097 473.879 149.152 474.163 149.261 474.352C149.375 474.538 149.519 474.663 149.693 474.727C149.871 474.788 150.059 474.818 150.256 474.818C150.403 474.818 150.525 474.811 150.619 474.795C150.714 474.777 150.79 474.761 150.847 474.75L151.119 475.955C151.028 475.989 150.902 476.023 150.739 476.057C150.576 476.095 150.369 476.114 150.119 476.114C149.741 476.114 149.369 476.032 149.006 475.869C148.646 475.706 148.347 475.458 148.108 475.125C147.873 474.792 147.756 474.371 147.756 473.864V465.182ZM156.429 476.182C155.641 476.182 154.95 475.994 154.355 475.619C153.764 475.244 153.302 474.72 152.969 474.045C152.639 473.371 152.474 472.583 152.474 471.682C152.474 470.773 152.639 469.979 152.969 469.301C153.302 468.623 153.764 468.097 154.355 467.722C154.95 467.347 155.641 467.159 156.429 467.159C157.217 467.159 157.906 467.347 158.497 467.722C159.092 468.097 159.554 468.623 159.884 469.301C160.217 469.979 160.384 470.773 160.384 471.682C160.384 472.583 160.217 473.371 159.884 474.045C159.554 474.72 159.092 475.244 158.497 475.619C157.906 475.994 157.217 476.182 156.429 476.182ZM156.429 474.977C157.027 474.977 157.52 474.824 157.906 474.517C158.293 474.21 158.579 473.807 158.764 473.307C158.95 472.807 159.043 472.265 159.043 471.682C159.043 471.098 158.95 470.555 158.764 470.051C158.579 469.547 158.293 469.14 157.906 468.83C157.52 468.519 157.027 468.364 156.429 468.364C155.83 468.364 155.338 468.519 154.952 468.83C154.565 469.14 154.279 469.547 154.094 470.051C153.908 470.555 153.815 471.098 153.815 471.682C153.815 472.265 153.908 472.807 154.094 473.307C154.279 473.807 154.565 474.21 154.952 474.517C155.338 474.824 155.83 474.977 156.429 474.977ZM170.476 476.182C169.688 476.182 168.997 475.994 168.402 475.619C167.811 475.244 167.349 474.72 167.016 474.045C166.686 473.371 166.521 472.583 166.521 471.682C166.521 470.773 166.686 469.979 167.016 469.301C167.349 468.623 167.811 468.097 168.402 467.722C168.997 467.347 169.688 467.159 170.476 467.159C171.264 467.159 171.953 467.347 172.544 467.722C173.139 468.097 173.601 468.623 173.93 469.301C174.264 469.979 174.43 470.773 174.43 471.682C174.43 472.583 174.264 473.371 173.93 474.045C173.601 474.72 173.139 475.244 172.544 475.619C171.953 475.994 171.264 476.182 170.476 476.182ZM170.476 474.977C171.074 474.977 171.567 474.824 171.953 474.517C172.339 474.21 172.625 473.807 172.811 473.307C172.997 472.807 173.089 472.265 173.089 471.682C173.089 471.098 172.997 470.555 172.811 470.051C172.625 469.547 172.339 469.14 171.953 468.83C171.567 468.519 171.074 468.364 170.476 468.364C169.877 468.364 169.385 468.519 168.999 468.83C168.612 469.14 168.326 469.547 168.141 470.051C167.955 470.555 167.862 471.098 167.862 471.682C167.862 472.265 167.955 472.807 168.141 473.307C168.326 473.807 168.612 474.21 168.999 474.517C169.385 474.824 169.877 474.977 170.476 474.977ZM176.477 479.273V467.273H177.773V468.659H177.932C178.03 468.508 178.167 468.314 178.341 468.08C178.519 467.841 178.773 467.629 179.102 467.443C179.436 467.254 179.886 467.159 180.455 467.159C181.189 467.159 181.837 467.343 182.398 467.71C182.958 468.078 183.396 468.598 183.71 469.273C184.025 469.947 184.182 470.742 184.182 471.659C184.182 472.583 184.025 473.384 183.71 474.062C183.396 474.737 182.96 475.259 182.403 475.631C181.847 475.998 181.205 476.182 180.477 476.182C179.917 476.182 179.468 476.089 179.131 475.903C178.794 475.714 178.534 475.5 178.352 475.261C178.17 475.019 178.03 474.818 177.932 474.659H177.818V479.273H176.477ZM177.795 471.636C177.795 472.295 177.892 472.877 178.085 473.381C178.278 473.881 178.561 474.273 178.932 474.557C179.303 474.837 179.758 474.977 180.295 474.977C180.856 474.977 181.324 474.83 181.699 474.534C182.078 474.235 182.362 473.833 182.551 473.33C182.744 472.822 182.841 472.258 182.841 471.636C182.841 471.023 182.746 470.47 182.557 469.977C182.371 469.481 182.089 469.089 181.71 468.801C181.335 468.509 180.864 468.364 180.295 468.364C179.75 468.364 179.292 468.502 178.92 468.778C178.549 469.051 178.269 469.434 178.08 469.926C177.89 470.415 177.795 470.985 177.795 471.636ZM190.023 467.273V468.409H185.5V467.273H190.023ZM186.818 465.182H188.159V473.5C188.159 473.879 188.214 474.163 188.324 474.352C188.438 474.538 188.581 474.663 188.756 474.727C188.934 474.788 189.121 474.818 189.318 474.818C189.466 474.818 189.587 474.811 189.682 474.795C189.777 474.777 189.852 474.761 189.909 474.75L190.182 475.955C190.091 475.989 189.964 476.023 189.801 476.057C189.638 476.095 189.432 476.114 189.182 476.114C188.803 476.114 188.432 476.032 188.068 475.869C187.708 475.706 187.409 475.458 187.17 475.125C186.936 474.792 186.818 474.371 186.818 473.864V465.182ZM192.04 476V467.273H193.381V476H192.04ZM192.722 465.818C192.46 465.818 192.235 465.729 192.045 465.551C191.86 465.373 191.767 465.159 191.767 464.909C191.767 464.659 191.86 464.445 192.045 464.267C192.235 464.089 192.46 464 192.722 464C192.983 464 193.206 464.089 193.392 464.267C193.581 464.445 193.676 464.659 193.676 464.909C193.676 465.159 193.581 465.373 193.392 465.551C193.206 465.729 192.983 465.818 192.722 465.818ZM195.837 476V467.273H197.132V468.636H197.246C197.428 468.17 197.721 467.809 198.126 467.551C198.532 467.29 199.018 467.159 199.587 467.159C200.162 467.159 200.642 467.29 201.024 467.551C201.411 467.809 201.712 468.17 201.928 468.636H202.018C202.242 468.186 202.577 467.828 203.024 467.562C203.471 467.294 204.007 467.159 204.632 467.159C205.412 467.159 206.051 467.403 206.547 467.892C207.043 468.377 207.291 469.133 207.291 470.159V476H205.95V470.159C205.95 469.515 205.774 469.055 205.422 468.778C205.07 468.502 204.655 468.364 204.178 468.364C203.564 468.364 203.089 468.549 202.751 468.92C202.414 469.288 202.246 469.754 202.246 470.318V476H200.882V470.023C200.882 469.527 200.721 469.127 200.399 468.824C200.077 468.517 199.662 468.364 199.155 468.364C198.806 468.364 198.481 468.456 198.178 468.642C197.878 468.828 197.636 469.085 197.45 469.415C197.268 469.741 197.178 470.117 197.178 470.545V476H195.837ZM209.743 476V467.273H211.084V476H209.743ZM210.425 465.818C210.163 465.818 209.938 465.729 209.749 465.551C209.563 465.373 209.47 465.159 209.47 464.909C209.47 464.659 209.563 464.445 209.749 464.267C209.938 464.089 210.163 464 210.425 464C210.686 464 210.91 464.089 211.095 464.267C211.285 464.445 211.379 464.659 211.379 464.909C211.379 465.159 211.285 465.373 211.095 465.551C210.91 465.729 210.686 465.818 210.425 465.818ZM213.29 476V474.977L218.244 468.614V468.523H213.449V467.273H219.972V468.341L215.153 474.659V474.75H220.131V476H213.29ZM225.605 476.182C224.764 476.182 224.039 475.996 223.429 475.625C222.823 475.25 222.355 474.727 222.026 474.057C221.7 473.383 221.537 472.598 221.537 471.705C221.537 470.811 221.7 470.023 222.026 469.341C222.355 468.655 222.813 468.121 223.401 467.739C223.991 467.352 224.681 467.159 225.469 467.159C225.923 467.159 226.372 467.235 226.815 467.386C227.259 467.538 227.662 467.784 228.026 468.125C228.389 468.462 228.679 468.909 228.895 469.466C229.111 470.023 229.219 470.708 229.219 471.523V472.091H222.491V470.932H227.855C227.855 470.439 227.757 470 227.56 469.614C227.366 469.227 227.09 468.922 226.73 468.699C226.374 468.475 225.954 468.364 225.469 468.364C224.935 468.364 224.473 468.496 224.082 468.761C223.696 469.023 223.399 469.364 223.19 469.784C222.982 470.205 222.878 470.655 222.878 471.136V471.909C222.878 472.568 222.991 473.127 223.219 473.585C223.45 474.04 223.77 474.386 224.179 474.625C224.588 474.86 225.063 474.977 225.605 474.977C225.957 474.977 226.276 474.928 226.56 474.83C226.848 474.727 227.096 474.576 227.304 474.375C227.512 474.17 227.673 473.917 227.787 473.614L229.082 473.977C228.946 474.417 228.717 474.803 228.395 475.136C228.073 475.466 227.675 475.723 227.202 475.909C226.728 476.091 226.196 476.182 225.605 476.182ZM236.622 479.273C236.395 479.273 236.192 479.254 236.014 479.216C235.836 479.182 235.713 479.148 235.645 479.114L235.986 477.932C236.312 478.015 236.599 478.045 236.849 478.023C237.099 478 237.321 477.888 237.514 477.688C237.711 477.491 237.891 477.17 238.054 476.727L238.304 476.045L235.077 467.273H236.531L238.94 474.227H239.031L241.44 467.273H242.895L239.19 477.273C239.024 477.723 238.817 478.097 238.571 478.392C238.325 478.691 238.039 478.913 237.713 479.057C237.391 479.201 237.027 479.273 236.622 479.273ZM247.898 476.182C247.11 476.182 246.419 475.994 245.824 475.619C245.233 475.244 244.771 474.72 244.438 474.045C244.108 473.371 243.943 472.583 243.943 471.682C243.943 470.773 244.108 469.979 244.438 469.301C244.771 468.623 245.233 468.097 245.824 467.722C246.419 467.347 247.11 467.159 247.898 467.159C248.686 467.159 249.375 467.347 249.966 467.722C250.561 468.097 251.023 468.623 251.352 469.301C251.686 469.979 251.852 470.773 251.852 471.682C251.852 472.583 251.686 473.371 251.352 474.045C251.023 474.72 250.561 475.244 249.966 475.619C249.375 475.994 248.686 476.182 247.898 476.182ZM247.898 474.977C248.496 474.977 248.989 474.824 249.375 474.517C249.761 474.21 250.047 473.807 250.233 473.307C250.419 472.807 250.511 472.265 250.511 471.682C250.511 471.098 250.419 470.555 250.233 470.051C250.047 469.547 249.761 469.14 249.375 468.83C248.989 468.519 248.496 468.364 247.898 468.364C247.299 468.364 246.807 468.519 246.42 468.83C246.034 469.14 245.748 469.547 245.562 470.051C245.377 470.555 245.284 471.098 245.284 471.682C245.284 472.265 245.377 472.807 245.562 473.307C245.748 473.807 246.034 474.21 246.42 474.517C246.807 474.824 247.299 474.977 247.898 474.977ZM259.399 472.432V467.273H260.74V476H259.399V474.523H259.308C259.104 474.966 258.786 475.343 258.354 475.653C257.922 475.96 257.376 476.114 256.717 476.114C256.172 476.114 255.687 475.994 255.263 475.756C254.839 475.513 254.505 475.15 254.263 474.665C254.02 474.176 253.899 473.561 253.899 472.818V467.273H255.24V472.727C255.24 473.364 255.418 473.871 255.774 474.25C256.134 474.629 256.592 474.818 257.149 474.818C257.482 474.818 257.821 474.733 258.166 474.562C258.515 474.392 258.806 474.131 259.041 473.778C259.28 473.426 259.399 472.977 259.399 472.432ZM263.196 476V467.273H264.491V468.591H264.582C264.741 468.159 265.029 467.809 265.446 467.54C265.863 467.271 266.332 467.136 266.855 467.136C266.954 467.136 267.077 467.138 267.224 467.142C267.372 467.146 267.484 467.152 267.56 467.159V468.523C267.514 468.511 267.41 468.494 267.247 468.472C267.088 468.445 266.92 468.432 266.741 468.432C266.317 468.432 265.938 468.521 265.605 468.699C265.276 468.873 265.014 469.116 264.821 469.426C264.632 469.733 264.537 470.083 264.537 470.477V476H263.196ZM52.2045 500L49.5455 491.273H50.9545L52.8409 497.955H52.9318L54.7955 491.273H56.2273L58.0682 497.932H58.1591L60.0455 491.273H61.4545L58.7955 500H57.4773L55.5682 493.295H55.4318L53.5227 500H52.2045ZM66.4759 500.182C65.688 500.182 64.9967 499.994 64.402 499.619C63.8111 499.244 63.349 498.72 63.0156 498.045C62.6861 497.371 62.5213 496.583 62.5213 495.682C62.5213 494.773 62.6861 493.979 63.0156 493.301C63.349 492.623 63.8111 492.097 64.402 491.722C64.9967 491.347 65.688 491.159 66.4759 491.159C67.2637 491.159 67.9531 491.347 68.544 491.722C69.1387 492.097 69.6009 492.623 69.9304 493.301C70.2637 493.979 70.4304 494.773 70.4304 495.682C70.4304 496.583 70.2637 497.371 69.9304 498.045C69.6009 498.72 69.1387 499.244 68.544 499.619C67.9531 499.994 67.2637 500.182 66.4759 500.182ZM66.4759 498.977C67.0743 498.977 67.5668 498.824 67.9531 498.517C68.3395 498.21 68.6255 497.807 68.8111 497.307C68.9967 496.807 69.0895 496.265 69.0895 495.682C69.0895 495.098 68.9967 494.555 68.8111 494.051C68.6255 493.547 68.3395 493.14 67.9531 492.83C67.5668 492.519 67.0743 492.364 66.4759 492.364C65.8774 492.364 65.3849 492.519 64.9986 492.83C64.6122 493.14 64.3262 493.547 64.1406 494.051C63.955 494.555 63.8622 495.098 63.8622 495.682C63.8622 496.265 63.955 496.807 64.1406 497.307C64.3262 497.807 64.6122 498.21 64.9986 498.517C65.3849 498.824 65.8774 498.977 66.4759 498.977ZM72.4773 500V491.273H73.7727V492.591H73.8636C74.0227 492.159 74.3106 491.809 74.7273 491.54C75.1439 491.271 75.6136 491.136 76.1364 491.136C76.2348 491.136 76.358 491.138 76.5057 491.142C76.6534 491.146 76.7652 491.152 76.8409 491.159V492.523C76.7955 492.511 76.6913 492.494 76.5284 492.472C76.3693 492.445 76.2008 492.432 76.0227 492.432C75.5985 492.432 75.2197 492.521 74.8864 492.699C74.5568 492.873 74.2955 493.116 74.1023 493.426C73.9129 493.733 73.8182 494.083 73.8182 494.477V500H72.4773ZM79.6804 496.818L79.6577 495.159H79.9304L83.7486 491.273H85.4077L81.3395 495.386H81.2259L79.6804 496.818ZM78.4304 500V488.364H79.7713V500H78.4304ZM83.9759 500L80.5668 495.682L81.5213 494.75L85.6804 500H83.9759ZM93.3153 493.227L92.1108 493.568C92.035 493.367 91.9233 493.172 91.7756 492.983C91.6316 492.79 91.4347 492.631 91.1847 492.506C90.9347 492.381 90.6146 492.318 90.2244 492.318C89.6903 492.318 89.2453 492.441 88.8892 492.688C88.5369 492.93 88.3608 493.239 88.3608 493.614C88.3608 493.947 88.482 494.21 88.7244 494.403C88.9669 494.597 89.3456 494.758 89.8608 494.886L91.1562 495.205C91.9366 495.394 92.518 495.684 92.9006 496.074C93.2831 496.46 93.4744 496.958 93.4744 497.568C93.4744 498.068 93.3305 498.515 93.0426 498.909C92.7585 499.303 92.3608 499.614 91.8494 499.841C91.3381 500.068 90.7434 500.182 90.0653 500.182C89.1752 500.182 88.4384 499.989 87.8551 499.602C87.2718 499.216 86.9025 498.652 86.7472 497.909L88.0199 497.591C88.1411 498.061 88.3703 498.413 88.7074 498.648C89.0483 498.883 89.4934 499 90.0426 499C90.6676 499 91.1638 498.867 91.5312 498.602C91.9025 498.333 92.0881 498.011 92.0881 497.636C92.0881 497.333 91.982 497.08 91.7699 496.875C91.5578 496.667 91.232 496.511 90.7926 496.409L89.3381 496.068C88.5388 495.879 87.9517 495.585 87.5767 495.188C87.2055 494.786 87.0199 494.284 87.0199 493.682C87.0199 493.189 87.1581 492.754 87.4347 492.375C87.715 491.996 88.0956 491.699 88.5767 491.483C89.0616 491.267 89.6108 491.159 90.2244 491.159C91.0881 491.159 91.7661 491.348 92.2585 491.727C92.7547 492.106 93.107 492.606 93.3153 493.227ZM95.4929 503.273V491.273H96.7884V492.659H96.9474C97.0459 492.508 97.1823 492.314 97.3565 492.08C97.5346 491.841 97.7884 491.629 98.1179 491.443C98.4512 491.254 98.902 491.159 99.4702 491.159C100.205 491.159 100.853 491.343 101.413 491.71C101.974 492.078 102.411 492.598 102.726 493.273C103.04 493.947 103.197 494.742 103.197 495.659C103.197 496.583 103.04 497.384 102.726 498.062C102.411 498.737 101.976 499.259 101.419 499.631C100.862 499.998 100.22 500.182 99.4929 500.182C98.9323 500.182 98.4834 500.089 98.1463 499.903C97.8092 499.714 97.5497 499.5 97.3679 499.261C97.1861 499.019 97.0459 498.818 96.9474 498.659H96.8338V503.273H95.4929ZM96.8111 495.636C96.8111 496.295 96.9077 496.877 97.1009 497.381C97.294 497.881 97.5762 498.273 97.9474 498.557C98.3187 498.837 98.7732 498.977 99.3111 498.977C99.8717 498.977 100.339 498.83 100.714 498.534C101.093 498.235 101.377 497.833 101.567 497.33C101.76 496.822 101.857 496.258 101.857 495.636C101.857 495.023 101.762 494.47 101.572 493.977C101.387 493.481 101.105 493.089 100.726 492.801C100.351 492.509 99.8793 492.364 99.3111 492.364C98.7656 492.364 98.3073 492.502 97.9361 492.778C97.5649 493.051 97.2846 493.434 97.0952 493.926C96.9058 494.415 96.8111 494.985 96.8111 495.636ZM107.811 500.205C107.258 500.205 106.756 500.1 106.305 499.892C105.855 499.68 105.497 499.375 105.232 498.977C104.966 498.576 104.834 498.091 104.834 497.523C104.834 497.023 104.932 496.617 105.129 496.307C105.326 495.992 105.589 495.746 105.919 495.568C106.249 495.39 106.612 495.258 107.01 495.17C107.411 495.08 107.815 495.008 108.22 494.955C108.75 494.886 109.18 494.835 109.51 494.801C109.843 494.763 110.086 494.701 110.237 494.614C110.393 494.527 110.47 494.375 110.47 494.159V494.114C110.47 493.553 110.317 493.117 110.01 492.807C109.707 492.496 109.247 492.341 108.629 492.341C107.989 492.341 107.487 492.481 107.124 492.761C106.76 493.042 106.504 493.341 106.357 493.659L105.084 493.205C105.311 492.674 105.614 492.261 105.993 491.966C106.375 491.667 106.792 491.458 107.243 491.341C107.697 491.22 108.144 491.159 108.584 491.159C108.864 491.159 109.186 491.193 109.55 491.261C109.917 491.326 110.271 491.46 110.612 491.665C110.957 491.869 111.243 492.178 111.47 492.591C111.697 493.004 111.811 493.557 111.811 494.25V500H110.47V498.818H110.402C110.311 499.008 110.16 499.21 109.947 499.426C109.735 499.642 109.453 499.826 109.101 499.977C108.749 500.129 108.319 500.205 107.811 500.205ZM108.016 499C108.546 499 108.993 498.896 109.357 498.688C109.724 498.479 110 498.21 110.186 497.881C110.375 497.551 110.47 497.205 110.47 496.841V495.614C110.413 495.682 110.288 495.744 110.095 495.801C109.906 495.854 109.686 495.902 109.436 495.943C109.19 495.981 108.949 496.015 108.714 496.045C108.483 496.072 108.296 496.095 108.152 496.114C107.804 496.159 107.478 496.233 107.175 496.335C106.875 496.434 106.633 496.583 106.447 496.784C106.266 496.981 106.175 497.25 106.175 497.591C106.175 498.057 106.347 498.409 106.692 498.648C107.04 498.883 107.482 499 108.016 499ZM117.804 500.182C116.986 500.182 116.281 499.989 115.69 499.602C115.099 499.216 114.645 498.684 114.327 498.006C114.009 497.328 113.849 496.553 113.849 495.682C113.849 494.795 114.012 494.013 114.338 493.335C114.668 492.653 115.126 492.121 115.713 491.739C116.304 491.352 116.993 491.159 117.781 491.159C118.395 491.159 118.948 491.273 119.44 491.5C119.933 491.727 120.336 492.045 120.651 492.455C120.965 492.864 121.16 493.341 121.236 493.886H119.895C119.793 493.489 119.565 493.136 119.213 492.83C118.865 492.519 118.395 492.364 117.804 492.364C117.281 492.364 116.823 492.5 116.429 492.773C116.039 493.042 115.734 493.422 115.514 493.915C115.298 494.403 115.19 494.977 115.19 495.636C115.19 496.311 115.296 496.898 115.509 497.398C115.724 497.898 116.027 498.286 116.418 498.562C116.812 498.839 117.274 498.977 117.804 498.977C118.152 498.977 118.469 498.917 118.753 498.795C119.037 498.674 119.277 498.5 119.474 498.273C119.671 498.045 119.812 497.773 119.895 497.455H121.236C121.16 497.97 120.973 498.434 120.673 498.847C120.378 499.256 119.986 499.581 119.497 499.824C119.012 500.062 118.448 500.182 117.804 500.182ZM126.855 500.182C126.014 500.182 125.289 499.996 124.679 499.625C124.073 499.25 123.605 498.727 123.276 498.057C122.95 497.383 122.787 496.598 122.787 495.705C122.787 494.811 122.95 494.023 123.276 493.341C123.605 492.655 124.063 492.121 124.651 491.739C125.241 491.352 125.931 491.159 126.719 491.159C127.173 491.159 127.622 491.235 128.065 491.386C128.509 491.538 128.912 491.784 129.276 492.125C129.639 492.462 129.929 492.909 130.145 493.466C130.361 494.023 130.469 494.708 130.469 495.523V496.091H123.741V494.932H129.105C129.105 494.439 129.007 494 128.81 493.614C128.616 493.227 128.34 492.922 127.98 492.699C127.624 492.475 127.204 492.364 126.719 492.364C126.185 492.364 125.723 492.496 125.332 492.761C124.946 493.023 124.649 493.364 124.44 493.784C124.232 494.205 124.128 494.655 124.128 495.136V495.909C124.128 496.568 124.241 497.127 124.469 497.585C124.7 498.04 125.02 498.386 125.429 498.625C125.838 498.86 126.313 498.977 126.855 498.977C127.207 498.977 127.526 498.928 127.81 498.83C128.098 498.727 128.346 498.576 128.554 498.375C128.762 498.17 128.923 497.917 129.037 497.614L130.332 497.977C130.196 498.417 129.967 498.803 129.645 499.136C129.323 499.466 128.925 499.723 128.452 499.909C127.978 500.091 127.446 500.182 126.855 500.182ZM139.577 500.205C139.024 500.205 138.522 500.1 138.071 499.892C137.62 499.68 137.262 499.375 136.997 498.977C136.732 498.576 136.599 498.091 136.599 497.523C136.599 497.023 136.698 496.617 136.895 496.307C137.092 495.992 137.355 495.746 137.685 495.568C138.014 495.39 138.378 495.258 138.776 495.17C139.177 495.08 139.58 495.008 139.986 494.955C140.516 494.886 140.946 494.835 141.276 494.801C141.609 494.763 141.851 494.701 142.003 494.614C142.158 494.527 142.236 494.375 142.236 494.159V494.114C142.236 493.553 142.082 493.117 141.776 492.807C141.473 492.496 141.012 492.341 140.395 492.341C139.755 492.341 139.253 492.481 138.889 492.761C138.526 493.042 138.27 493.341 138.122 493.659L136.849 493.205C137.077 492.674 137.38 492.261 137.759 491.966C138.141 491.667 138.558 491.458 139.009 491.341C139.463 491.22 139.91 491.159 140.349 491.159C140.63 491.159 140.952 491.193 141.315 491.261C141.683 491.326 142.037 491.46 142.378 491.665C142.723 491.869 143.009 492.178 143.236 492.591C143.463 493.004 143.577 493.557 143.577 494.25V500H142.236V498.818H142.168C142.077 499.008 141.925 499.21 141.713 499.426C141.501 499.642 141.219 499.826 140.866 499.977C140.514 500.129 140.084 500.205 139.577 500.205ZM139.781 499C140.312 499 140.759 498.896 141.122 498.688C141.49 498.479 141.766 498.21 141.952 497.881C142.141 497.551 142.236 497.205 142.236 496.841V495.614C142.179 495.682 142.054 495.744 141.861 495.801C141.671 495.854 141.452 495.902 141.202 495.943C140.955 495.981 140.715 496.015 140.48 496.045C140.249 496.072 140.062 496.095 139.918 496.114C139.569 496.159 139.243 496.233 138.94 496.335C138.641 496.434 138.399 496.583 138.213 496.784C138.031 496.981 137.94 497.25 137.94 497.591C137.94 498.057 138.113 498.409 138.457 498.648C138.806 498.883 139.247 499 139.781 499ZM147.365 494.75V500H146.024V491.273H147.32V492.636H147.433C147.638 492.193 147.948 491.837 148.365 491.568C148.782 491.295 149.32 491.159 149.979 491.159C150.57 491.159 151.087 491.28 151.53 491.523C151.973 491.761 152.318 492.125 152.564 492.614C152.81 493.098 152.933 493.712 152.933 494.455V500H151.592V494.545C151.592 493.86 151.414 493.326 151.058 492.943C150.702 492.557 150.214 492.364 149.592 492.364C149.164 492.364 148.782 492.456 148.445 492.642C148.111 492.828 147.848 493.098 147.655 493.455C147.462 493.811 147.365 494.242 147.365 494.75ZM158.679 500.182C157.952 500.182 157.31 499.998 156.753 499.631C156.196 499.259 155.76 498.737 155.446 498.062C155.132 497.384 154.974 496.583 154.974 495.659C154.974 494.742 155.132 493.947 155.446 493.273C155.76 492.598 156.198 492.078 156.759 491.71C157.319 491.343 157.967 491.159 158.702 491.159C159.27 491.159 159.719 491.254 160.048 491.443C160.382 491.629 160.635 491.841 160.81 492.08C160.988 492.314 161.126 492.508 161.224 492.659H161.338V488.364H162.679V500H161.384V498.659H161.224C161.126 498.818 160.986 499.019 160.804 499.261C160.622 499.5 160.363 499.714 160.026 499.903C159.688 500.089 159.24 500.182 158.679 500.182ZM158.861 498.977C159.399 498.977 159.853 498.837 160.224 498.557C160.596 498.273 160.878 497.881 161.071 497.381C161.264 496.877 161.361 496.295 161.361 495.636C161.361 494.985 161.266 494.415 161.077 493.926C160.887 493.434 160.607 493.051 160.236 492.778C159.865 492.502 159.406 492.364 158.861 492.364C158.293 492.364 157.819 492.509 157.44 492.801C157.065 493.089 156.783 493.481 156.594 493.977C156.408 494.47 156.315 495.023 156.315 495.636C156.315 496.258 156.41 496.822 156.599 497.33C156.793 497.833 157.077 498.235 157.452 498.534C157.83 498.83 158.3 498.977 158.861 498.977ZM173.366 500.182C172.548 500.182 171.844 499.989 171.253 499.602C170.662 499.216 170.207 498.684 169.889 498.006C169.571 497.328 169.412 496.553 169.412 495.682C169.412 494.795 169.575 494.013 169.901 493.335C170.23 492.653 170.688 492.121 171.276 491.739C171.866 491.352 172.556 491.159 173.344 491.159C173.957 491.159 174.51 491.273 175.003 491.5C175.495 491.727 175.899 492.045 176.213 492.455C176.527 492.864 176.723 493.341 176.798 493.886H175.457C175.355 493.489 175.128 493.136 174.776 492.83C174.427 492.519 173.957 492.364 173.366 492.364C172.844 492.364 172.385 492.5 171.991 492.773C171.601 493.042 171.296 493.422 171.077 493.915C170.861 494.403 170.753 494.977 170.753 495.636C170.753 496.311 170.859 496.898 171.071 497.398C171.287 497.898 171.59 498.286 171.98 498.562C172.374 498.839 172.836 498.977 173.366 498.977C173.715 498.977 174.031 498.917 174.315 498.795C174.599 498.674 174.84 498.5 175.037 498.273C175.234 498.045 175.374 497.773 175.457 497.455H176.798C176.723 497.97 176.535 498.434 176.236 498.847C175.94 499.256 175.548 499.581 175.06 499.824C174.575 500.062 174.01 500.182 173.366 500.182ZM184.259 496.432V491.273H185.599V500H184.259V498.523H184.168C183.963 498.966 183.645 499.343 183.213 499.653C182.781 499.96 182.236 500.114 181.577 500.114C181.031 500.114 180.546 499.994 180.122 499.756C179.698 499.513 179.365 499.15 179.122 498.665C178.88 498.176 178.759 497.561 178.759 496.818V491.273H180.099V496.727C180.099 497.364 180.277 497.871 180.634 498.25C180.993 498.629 181.452 498.818 182.009 498.818C182.342 498.818 182.681 498.733 183.026 498.562C183.374 498.392 183.666 498.131 183.901 497.778C184.139 497.426 184.259 496.977 184.259 496.432ZM191.851 491.273V492.409H187.328V491.273H191.851ZM188.646 489.182H189.987V497.5C189.987 497.879 190.042 498.163 190.152 498.352C190.266 498.538 190.41 498.663 190.584 498.727C190.762 498.788 190.949 498.818 191.146 498.818C191.294 498.818 191.415 498.811 191.51 498.795C191.605 498.777 191.68 498.761 191.737 498.75L192.01 499.955C191.919 499.989 191.792 500.023 191.629 500.057C191.466 500.095 191.26 500.114 191.01 500.114C190.631 500.114 190.26 500.032 189.896 499.869C189.536 499.706 189.237 499.458 188.999 499.125C188.764 498.792 188.646 498.371 188.646 497.864V489.182ZM198.368 500V491.273H199.663V492.591H199.754C199.913 492.159 200.201 491.809 200.618 491.54C201.035 491.271 201.504 491.136 202.027 491.136C202.125 491.136 202.249 491.138 202.396 491.142C202.544 491.146 202.656 491.152 202.732 491.159V492.523C202.686 492.511 202.582 492.494 202.419 492.472C202.26 492.445 202.091 492.432 201.913 492.432C201.489 492.432 201.11 492.521 200.777 492.699C200.447 492.873 200.186 493.116 199.993 493.426C199.804 493.733 199.709 494.083 199.709 494.477V500H198.368ZM207.714 500.182C206.874 500.182 206.148 499.996 205.538 499.625C204.932 499.25 204.464 498.727 204.135 498.057C203.809 497.383 203.646 496.598 203.646 495.705C203.646 494.811 203.809 494.023 204.135 493.341C204.464 492.655 204.923 492.121 205.51 491.739C206.101 491.352 206.79 491.159 207.578 491.159C208.033 491.159 208.482 491.235 208.925 491.386C209.368 491.538 209.771 491.784 210.135 492.125C210.499 492.462 210.788 492.909 211.004 493.466C211.22 494.023 211.328 494.708 211.328 495.523V496.091H204.601V494.932H209.964C209.964 494.439 209.866 494 209.669 493.614C209.476 493.227 209.199 492.922 208.839 492.699C208.483 492.475 208.063 492.364 207.578 492.364C207.044 492.364 206.582 492.496 206.192 492.761C205.805 493.023 205.508 493.364 205.3 493.784C205.091 494.205 204.987 494.655 204.987 495.136V495.909C204.987 496.568 205.101 497.127 205.328 497.585C205.559 498.04 205.879 498.386 206.288 498.625C206.697 498.86 207.173 498.977 207.714 498.977C208.067 498.977 208.385 498.928 208.669 498.83C208.957 498.727 209.205 498.576 209.413 498.375C209.622 498.17 209.783 497.917 209.896 497.614L211.192 497.977C211.055 498.417 210.826 498.803 210.504 499.136C210.182 499.466 209.785 499.723 209.311 499.909C208.838 500.091 208.305 500.182 207.714 500.182ZM215.936 500.205C215.383 500.205 214.881 500.1 214.43 499.892C213.98 499.68 213.622 499.375 213.357 498.977C213.091 498.576 212.959 498.091 212.959 497.523C212.959 497.023 213.057 496.617 213.254 496.307C213.451 495.992 213.714 495.746 214.044 495.568C214.374 495.39 214.737 495.258 215.135 495.17C215.536 495.08 215.94 495.008 216.345 494.955C216.875 494.886 217.305 494.835 217.635 494.801C217.968 494.763 218.211 494.701 218.362 494.614C218.518 494.527 218.595 494.375 218.595 494.159V494.114C218.595 493.553 218.442 493.117 218.135 492.807C217.832 492.496 217.372 492.341 216.754 492.341C216.114 492.341 215.612 492.481 215.249 492.761C214.885 493.042 214.629 493.341 214.482 493.659L213.209 493.205C213.436 492.674 213.739 492.261 214.118 491.966C214.5 491.667 214.917 491.458 215.368 491.341C215.822 491.22 216.269 491.159 216.709 491.159C216.989 491.159 217.311 491.193 217.675 491.261C218.042 491.326 218.396 491.46 218.737 491.665C219.082 491.869 219.368 492.178 219.595 492.591C219.822 493.004 219.936 493.557 219.936 494.25V500H218.595V498.818H218.527C218.436 499.008 218.285 499.21 218.072 499.426C217.86 499.642 217.578 499.826 217.226 499.977C216.874 500.129 216.444 500.205 215.936 500.205ZM216.141 499C216.671 499 217.118 498.896 217.482 498.688C217.849 498.479 218.125 498.21 218.311 497.881C218.5 497.551 218.595 497.205 218.595 496.841V495.614C218.538 495.682 218.413 495.744 218.22 495.801C218.031 495.854 217.811 495.902 217.561 495.943C217.315 495.981 217.074 496.015 216.839 496.045C216.608 496.072 216.421 496.095 216.277 496.114C215.929 496.159 215.603 496.233 215.3 496.335C215 496.434 214.758 496.583 214.572 496.784C214.391 496.981 214.3 497.25 214.3 497.591C214.3 498.057 214.472 498.409 214.817 498.648C215.165 498.883 215.607 499 216.141 499ZM223.724 488.364V500H222.384V488.364H223.724ZM234.339 500.182C233.499 500.182 232.773 499.996 232.163 499.625C231.557 499.25 231.089 498.727 230.76 498.057C230.434 497.383 230.271 496.598 230.271 495.705C230.271 494.811 230.434 494.023 230.76 493.341C231.089 492.655 231.548 492.121 232.135 491.739C232.726 491.352 233.415 491.159 234.203 491.159C234.658 491.159 235.107 491.235 235.55 491.386C235.993 491.538 236.396 491.784 236.76 492.125C237.124 492.462 237.413 492.909 237.629 493.466C237.845 494.023 237.953 494.708 237.953 495.523V496.091H231.226V494.932H236.589C236.589 494.439 236.491 494 236.294 493.614C236.101 493.227 235.824 492.922 235.464 492.699C235.108 492.475 234.688 492.364 234.203 492.364C233.669 492.364 233.207 492.496 232.817 492.761C232.43 493.023 232.133 493.364 231.925 493.784C231.716 494.205 231.612 494.655 231.612 495.136V495.909C231.612 496.568 231.726 497.127 231.953 497.585C232.184 498.04 232.504 498.386 232.913 498.625C233.322 498.86 233.798 498.977 234.339 498.977C234.692 498.977 235.01 498.928 235.294 498.83C235.582 498.727 235.83 498.576 236.038 498.375C236.247 498.17 236.408 497.917 236.521 497.614L237.817 497.977C237.68 498.417 237.451 498.803 237.129 499.136C236.807 499.466 236.41 499.723 235.936 499.909C235.463 500.091 234.93 500.182 234.339 500.182ZM246.175 493.227L244.97 493.568C244.894 493.367 244.783 493.172 244.635 492.983C244.491 492.79 244.294 492.631 244.044 492.506C243.794 492.381 243.474 492.318 243.084 492.318C242.55 492.318 242.105 492.441 241.749 492.688C241.396 492.93 241.22 493.239 241.22 493.614C241.22 493.947 241.341 494.21 241.584 494.403C241.826 494.597 242.205 494.758 242.72 494.886L244.016 495.205C244.796 495.394 245.377 495.684 245.76 496.074C246.143 496.46 246.334 496.958 246.334 497.568C246.334 498.068 246.19 498.515 245.902 498.909C245.618 499.303 245.22 499.614 244.709 499.841C244.197 500.068 243.603 500.182 242.925 500.182C242.035 500.182 241.298 499.989 240.714 499.602C240.131 499.216 239.762 498.652 239.607 497.909L240.879 497.591C241 498.061 241.23 498.413 241.567 498.648C241.908 498.883 242.353 499 242.902 499C243.527 499 244.023 498.867 244.391 498.602C244.762 498.333 244.947 498.011 244.947 497.636C244.947 497.333 244.841 497.08 244.629 496.875C244.417 496.667 244.091 496.511 243.652 496.409L242.197 496.068C241.398 495.879 240.811 495.585 240.436 495.188C240.065 494.786 239.879 494.284 239.879 493.682C239.879 493.189 240.018 492.754 240.294 492.375C240.574 491.996 240.955 491.699 241.436 491.483C241.921 491.267 242.47 491.159 243.084 491.159C243.947 491.159 244.625 491.348 245.118 491.727C245.614 492.106 245.966 492.606 246.175 493.227ZM252.148 491.273V492.409H247.625V491.273H252.148ZM248.943 489.182H250.284V497.5C250.284 497.879 250.339 498.163 250.449 498.352C250.563 498.538 250.706 498.663 250.881 498.727C251.059 498.788 251.246 498.818 251.443 498.818C251.591 498.818 251.712 498.811 251.807 498.795C251.902 498.777 251.977 498.761 252.034 498.75L252.307 499.955C252.216 499.989 252.089 500.023 251.926 500.057C251.763 500.095 251.557 500.114 251.307 500.114C250.928 500.114 250.557 500.032 250.193 499.869C249.833 499.706 249.534 499.458 249.295 499.125C249.061 498.792 248.943 498.371 248.943 497.864V489.182ZM256.733 500.205C256.18 500.205 255.678 500.1 255.227 499.892C254.777 499.68 254.419 499.375 254.153 498.977C253.888 498.576 253.756 498.091 253.756 497.523C253.756 497.023 253.854 496.617 254.051 496.307C254.248 495.992 254.511 495.746 254.841 495.568C255.17 495.39 255.534 495.258 255.932 495.17C256.333 495.08 256.737 495.008 257.142 494.955C257.672 494.886 258.102 494.835 258.432 494.801C258.765 494.763 259.008 494.701 259.159 494.614C259.314 494.527 259.392 494.375 259.392 494.159V494.114C259.392 493.553 259.239 493.117 258.932 492.807C258.629 492.496 258.169 492.341 257.551 492.341C256.911 492.341 256.409 492.481 256.045 492.761C255.682 493.042 255.426 493.341 255.278 493.659L254.006 493.205C254.233 492.674 254.536 492.261 254.915 491.966C255.297 491.667 255.714 491.458 256.165 491.341C256.619 491.22 257.066 491.159 257.506 491.159C257.786 491.159 258.108 491.193 258.472 491.261C258.839 491.326 259.193 491.46 259.534 491.665C259.879 491.869 260.165 492.178 260.392 492.591C260.619 493.004 260.733 493.557 260.733 494.25V500H259.392V498.818H259.324C259.233 499.008 259.081 499.21 258.869 499.426C258.657 499.642 258.375 499.826 258.023 499.977C257.67 500.129 257.241 500.205 256.733 500.205ZM256.938 499C257.468 499 257.915 498.896 258.278 498.688C258.646 498.479 258.922 498.21 259.108 497.881C259.297 497.551 259.392 497.205 259.392 496.841V495.614C259.335 495.682 259.21 495.744 259.017 495.801C258.828 495.854 258.608 495.902 258.358 495.943C258.112 495.981 257.871 496.015 257.636 496.045C257.405 496.072 257.218 496.095 257.074 496.114C256.725 496.159 256.4 496.233 256.097 496.335C255.797 496.434 255.555 496.583 255.369 496.784C255.188 496.981 255.097 497.25 255.097 497.591C255.097 498.057 255.269 498.409 255.614 498.648C255.962 498.883 256.403 499 256.938 499ZM266.976 491.273V492.409H262.453V491.273H266.976ZM263.771 489.182H265.112V497.5C265.112 497.879 265.167 498.163 265.277 498.352C265.391 498.538 265.535 498.663 265.709 498.727C265.887 498.788 266.074 498.818 266.271 498.818C266.419 498.818 266.54 498.811 266.635 498.795C266.73 498.777 266.805 498.761 266.862 498.75L267.135 499.955C267.044 499.989 266.917 500.023 266.754 500.057C266.591 500.095 266.385 500.114 266.135 500.114C265.756 500.114 265.385 500.032 265.021 499.869C264.661 499.706 264.362 499.458 264.124 499.125C263.889 498.792 263.771 498.371 263.771 497.864V489.182ZM272.558 500.182C271.717 500.182 270.992 499.996 270.382 499.625C269.776 499.25 269.308 498.727 268.979 498.057C268.653 497.383 268.49 496.598 268.49 495.705C268.49 494.811 268.653 494.023 268.979 493.341C269.308 492.655 269.767 492.121 270.354 491.739C270.945 491.352 271.634 491.159 272.422 491.159C272.876 491.159 273.325 491.235 273.768 491.386C274.212 491.538 274.615 491.784 274.979 492.125C275.342 492.462 275.632 492.909 275.848 493.466C276.064 494.023 276.172 494.708 276.172 495.523V496.091H269.445V494.932H274.808C274.808 494.439 274.71 494 274.513 493.614C274.32 493.227 274.043 492.922 273.683 492.699C273.327 492.475 272.907 492.364 272.422 492.364C271.888 492.364 271.426 492.496 271.036 492.761C270.649 493.023 270.352 493.364 270.143 493.784C269.935 494.205 269.831 494.655 269.831 495.136V495.909C269.831 496.568 269.945 497.127 270.172 497.585C270.403 498.04 270.723 498.386 271.132 498.625C271.541 498.86 272.017 498.977 272.558 498.977C272.911 498.977 273.229 498.928 273.513 498.83C273.801 498.727 274.049 498.576 274.257 498.375C274.465 498.17 274.626 497.917 274.74 497.614L276.036 497.977C275.899 498.417 275.67 498.803 275.348 499.136C275.026 499.466 274.628 499.723 274.155 499.909C273.681 500.091 273.149 500.182 272.558 500.182ZM286.257 500.182C285.439 500.182 284.734 499.989 284.143 499.602C283.553 499.216 283.098 498.684 282.78 498.006C282.462 497.328 282.303 496.553 282.303 495.682C282.303 494.795 282.465 494.013 282.791 493.335C283.121 492.653 283.579 492.121 284.166 491.739C284.757 491.352 285.446 491.159 286.234 491.159C286.848 491.159 287.401 491.273 287.893 491.5C288.386 491.727 288.789 492.045 289.104 492.455C289.418 492.864 289.613 493.341 289.689 493.886H288.348C288.246 493.489 288.018 493.136 287.666 492.83C287.318 492.519 286.848 492.364 286.257 492.364C285.734 492.364 285.276 492.5 284.882 492.773C284.492 493.042 284.187 493.422 283.967 493.915C283.751 494.403 283.643 494.977 283.643 495.636C283.643 496.311 283.75 496.898 283.962 497.398C284.178 497.898 284.481 498.286 284.871 498.562C285.265 498.839 285.727 498.977 286.257 498.977C286.606 498.977 286.922 498.917 287.206 498.795C287.49 498.674 287.731 498.5 287.928 498.273C288.125 498.045 288.265 497.773 288.348 497.455H289.689C289.613 497.97 289.426 498.434 289.126 498.847C288.831 499.256 288.439 499.581 287.95 499.824C287.465 500.062 286.901 500.182 286.257 500.182ZM295.195 500.182C294.407 500.182 293.715 499.994 293.121 499.619C292.53 499.244 292.068 498.72 291.734 498.045C291.405 497.371 291.24 496.583 291.24 495.682C291.24 494.773 291.405 493.979 291.734 493.301C292.068 492.623 292.53 492.097 293.121 491.722C293.715 491.347 294.407 491.159 295.195 491.159C295.982 491.159 296.672 491.347 297.263 491.722C297.857 492.097 298.32 492.623 298.649 493.301C298.982 493.979 299.149 494.773 299.149 495.682C299.149 496.583 298.982 497.371 298.649 498.045C298.32 498.72 297.857 499.244 297.263 499.619C296.672 499.994 295.982 500.182 295.195 500.182ZM295.195 498.977C295.793 498.977 296.286 498.824 296.672 498.517C297.058 498.21 297.344 497.807 297.53 497.307C297.715 496.807 297.808 496.265 297.808 495.682C297.808 495.098 297.715 494.555 297.53 494.051C297.344 493.547 297.058 493.14 296.672 492.83C296.286 492.519 295.793 492.364 295.195 492.364C294.596 492.364 294.104 492.519 293.717 492.83C293.331 493.14 293.045 493.547 292.859 494.051C292.674 494.555 292.581 495.098 292.581 495.682C292.581 496.265 292.674 496.807 292.859 497.307C293.045 497.807 293.331 498.21 293.717 498.517C294.104 498.824 294.596 498.977 295.195 498.977ZM307.378 493.227L306.173 493.568C306.098 493.367 305.986 493.172 305.838 492.983C305.694 492.79 305.497 492.631 305.247 492.506C304.997 492.381 304.677 492.318 304.287 492.318C303.753 492.318 303.308 492.441 302.952 492.688C302.599 492.93 302.423 493.239 302.423 493.614C302.423 493.947 302.545 494.21 302.787 494.403C303.029 494.597 303.408 494.758 303.923 494.886L305.219 495.205C305.999 495.394 306.58 495.684 306.963 496.074C307.346 496.46 307.537 496.958 307.537 497.568C307.537 498.068 307.393 498.515 307.105 498.909C306.821 499.303 306.423 499.614 305.912 499.841C305.401 500.068 304.806 500.182 304.128 500.182C303.238 500.182 302.501 499.989 301.918 499.602C301.334 499.216 300.965 498.652 300.81 497.909L302.082 497.591C302.204 498.061 302.433 498.413 302.77 498.648C303.111 498.883 303.556 499 304.105 499C304.73 499 305.226 498.867 305.594 498.602C305.965 498.333 306.151 498.011 306.151 497.636C306.151 497.333 306.045 497.08 305.832 496.875C305.62 496.667 305.295 496.511 304.855 496.409L303.401 496.068C302.601 495.879 302.014 495.585 301.639 495.188C301.268 494.786 301.082 494.284 301.082 493.682C301.082 493.189 301.221 492.754 301.497 492.375C301.777 491.996 302.158 491.699 302.639 491.483C303.124 491.267 303.673 491.159 304.287 491.159C305.151 491.159 305.829 491.348 306.321 491.727C306.817 492.106 307.17 492.606 307.378 493.227ZM313.351 491.273V492.409H308.828V491.273H313.351ZM310.146 489.182H311.487V497.5C311.487 497.879 311.542 498.163 311.652 498.352C311.766 498.538 311.91 498.663 312.084 498.727C312.262 498.788 312.449 498.818 312.646 498.818C312.794 498.818 312.915 498.811 313.01 498.795C313.105 498.777 313.18 498.761 313.237 498.75L313.51 499.955C313.419 499.989 313.292 500.023 313.129 500.057C312.966 500.095 312.76 500.114 312.51 500.114C312.131 500.114 311.76 500.032 311.396 499.869C311.036 499.706 310.737 499.458 310.499 499.125C310.264 498.792 310.146 498.371 310.146 497.864V489.182ZM316.345 500.091C316.065 500.091 315.824 499.991 315.624 499.79C315.423 499.589 315.322 499.348 315.322 499.068C315.322 498.788 315.423 498.547 315.624 498.347C315.824 498.146 316.065 498.045 316.345 498.045C316.625 498.045 316.866 498.146 317.067 498.347C317.268 498.547 317.368 498.788 317.368 499.068C317.368 499.254 317.321 499.424 317.226 499.58C317.135 499.735 317.012 499.86 316.857 499.955C316.705 500.045 316.535 500.091 316.345 500.091Z" fill="#024039"/>
<rect x="111" y="172" width="109" height="96" rx="15" stroke="white" stroke-opacity="0.1" stroke-width="2"/>
<rect x="317" y="95" width="109" height="96" rx="15" stroke="white" stroke-opacity="0.1" stroke-width="2"/>
<rect x="253" y="310" width="54" height="142" rx="15" stroke="white" stroke-opacity="0.1" stroke-width="2"/>
<rect x="345" y="517" width="54" height="54" rx="27" stroke="white" stroke-opacity="0.1" stroke-width="2"/>
<rect x="266" y="556" width="155" height="69" rx="15" stroke="white" stroke-opacity="0.1" stroke-width="2"/>
<g clip-path="url(#clip0_2057_1670)">
<path d="M102.5 133.936L66.2 198.49H72.4L59.6 222.022H61.3H61.6H62.3H68.3L77.6 204.426H75.6L67.3 220.22H62.6L74.4 198.49H121L120.2 196.688H75.4L102.4 146.974L142 220.22H127.6L129 217.252H137.2L105.9 159.694L105.1 161.814L134.2 215.45H127.9L124.8 222.022H145L102.4 143.264L73.4 196.688H69.3L102.5 137.54L149.8 225.096H62.3H60H58L57 226.898H152.8L102.5 133.936Z" fill="#024039"/>
<path d="M49.152 254L52.808 242.368H56.04L59.696 254H57.32L56.264 250.36L57.52 251.28H51.776L52.128 249.464H56.992L56.256 250.336L55.104 246.408L54.464 243.92H54.36L53.728 246.408L51.52 254H49.152ZM60.9249 254V245.272H62.8689L63.0769 248.664L62.9169 248.168C62.9649 247.757 63.0449 247.368 63.1569 247C63.2742 246.632 63.4315 246.304 63.6289 246.016C63.8315 245.728 64.0795 245.501 64.3729 245.336C64.6715 245.171 65.0209 245.088 65.4209 245.088C65.5275 245.088 65.6342 245.093 65.7409 245.104C65.8529 245.115 65.9515 245.133 66.0369 245.16V247.48C65.8555 247.427 65.6715 247.392 65.4849 247.376C65.3035 247.355 65.1275 247.344 64.9569 247.344C64.7062 247.344 64.4609 247.379 64.2209 247.448C63.9809 247.512 63.7675 247.613 63.5809 247.752C63.3942 247.885 63.2475 248.053 63.1409 248.256V254H60.9249ZM71.0078 254.12C70.1438 254.12 69.4024 253.947 68.7838 253.6C68.1651 253.248 67.6904 252.739 67.3598 252.072C67.0291 251.4 66.8638 250.584 66.8638 249.624C66.8638 248.653 67.0371 247.832 67.3838 247.16C67.7358 246.488 68.2238 245.976 68.8478 245.624C69.4771 245.272 70.2078 245.096 71.0398 245.096C71.8504 245.096 72.5358 245.253 73.0958 245.568C73.6611 245.877 74.0904 246.339 74.3837 246.952C74.6771 247.56 74.8238 248.307 74.8238 249.192C74.8238 249.336 74.8184 249.472 74.8078 249.6C74.8024 249.728 74.7944 249.88 74.7838 250.056H69.0398C69.0931 250.856 69.2878 251.443 69.6238 251.816C69.9651 252.189 70.4078 252.376 70.9518 252.376C71.4318 252.376 71.7971 252.272 72.0478 252.064C72.2984 251.856 72.4558 251.603 72.5198 251.304H74.6398C74.5918 251.885 74.4104 252.389 74.0958 252.816C73.7864 253.237 73.3678 253.56 72.8398 253.784C72.3171 254.008 71.7064 254.12 71.0078 254.12ZM69.9838 248.704H72.6718C72.6504 248.107 72.5038 247.653 72.2318 247.344C71.9651 247.035 71.5384 246.88 70.9518 246.88C70.3064 246.88 69.8291 247.104 69.5198 247.552C69.2158 247.995 69.0504 248.619 69.0238 249.424C69.0664 249.147 69.1651 248.957 69.3198 248.856C69.4744 248.755 69.6958 248.704 69.9838 248.704ZM78.7648 254.096C78.2528 254.096 77.7914 254 77.3808 253.808C76.9754 253.616 76.6554 253.339 76.4208 252.976C76.1914 252.613 76.0768 252.184 76.0768 251.688C76.0768 251.165 76.1781 250.736 76.3808 250.4C76.5834 250.059 76.8661 249.789 77.2288 249.592C77.5914 249.389 78.0101 249.24 78.4848 249.144C78.8154 249.075 79.1568 249.019 79.5087 248.976C79.8661 248.928 80.1994 248.891 80.5088 248.864C80.8181 248.837 81.0688 248.816 81.2608 248.8V248.504C81.2608 247.933 81.1568 247.52 80.9488 247.264C80.7408 247.003 80.3834 246.872 79.8767 246.872C79.5514 246.872 79.2768 246.915 79.0528 247C78.8341 247.085 78.6688 247.24 78.5568 247.464C78.4448 247.688 78.3888 248.011 78.3888 248.432H76.3248C76.2661 247.669 76.3808 247.043 76.6688 246.552C76.9621 246.061 77.3914 245.699 77.9568 245.464C78.5274 245.224 79.1968 245.104 79.9648 245.104C80.4181 245.104 80.8501 245.155 81.2608 245.256C81.6768 245.352 82.0448 245.52 82.3648 245.76C82.6901 245.995 82.9461 246.317 83.1328 246.728C83.3248 247.139 83.4208 247.659 83.4208 248.288V254H81.2448L81.2608 252C81.1648 252.587 80.9194 253.083 80.5248 253.488C80.1301 253.893 79.5434 254.096 78.7648 254.096ZM79.4368 252.552C79.7088 252.552 79.9728 252.504 80.2288 252.408C80.4901 252.307 80.7141 252.168 80.9008 251.992C81.0928 251.816 81.2128 251.613 81.2608 251.384V249.904C81.0474 249.936 80.8154 249.973 80.5648 250.016C80.3141 250.059 80.0954 250.101 79.9088 250.144C79.3434 250.261 78.9461 250.424 78.7168 250.632C78.4928 250.835 78.3808 251.12 78.3808 251.488C78.3808 251.707 78.4234 251.896 78.5088 252.056C78.5994 252.216 78.7248 252.339 78.8848 252.424C79.0501 252.509 79.2341 252.552 79.4368 252.552ZM89.3251 254.16C88.4558 254.16 87.6851 254.024 87.0131 253.752C86.3411 253.475 85.8158 253.053 85.4371 252.488C85.0638 251.917 84.8825 251.195 84.8931 250.32H87.0691C87.0798 250.736 87.1705 251.088 87.3411 251.376C87.5171 251.659 87.7758 251.872 88.1171 252.016C88.4638 252.16 88.8931 252.232 89.4051 252.232C89.8585 252.232 90.2291 252.184 90.5171 252.088C90.8051 251.987 91.0185 251.84 91.1571 251.648C91.2958 251.456 91.3651 251.227 91.3651 250.96C91.3651 250.667 91.2771 250.421 91.1011 250.224C90.9251 250.021 90.6478 249.835 90.2691 249.664C89.8905 249.488 89.3971 249.296 88.7891 249.088C88.0958 248.843 87.4878 248.56 86.9651 248.24C86.4478 247.915 86.0478 247.523 85.7651 247.064C85.4825 246.6 85.3411 246.045 85.3411 245.4C85.3411 244.349 85.6931 243.552 86.3971 243.008C87.1065 242.459 88.0718 242.184 89.2931 242.184C90.1305 242.184 90.8211 242.315 91.3651 242.576C91.9091 242.837 92.3225 243.224 92.6051 243.736C92.8931 244.248 93.0718 244.88 93.1411 245.632H90.9891C90.9625 245.301 90.8798 245.024 90.7411 244.8C90.6078 244.571 90.4185 244.4 90.1731 244.288C89.9331 244.171 89.6318 244.112 89.2691 244.112C88.7145 244.112 88.2878 244.213 87.9891 244.416C87.6905 244.619 87.5411 244.928 87.5411 245.344C87.5411 245.616 87.5998 245.856 87.7171 246.064C87.8345 246.267 88.0505 246.464 88.3651 246.656C88.6851 246.843 89.1465 247.051 89.7491 247.28C90.2558 247.477 90.7411 247.667 91.2051 247.848C91.6691 248.029 92.0798 248.243 92.4371 248.488C92.7998 248.728 93.0825 249.029 93.2851 249.392C93.4931 249.749 93.5998 250.208 93.6051 250.768C93.6105 251.883 93.2371 252.728 92.4851 253.304C91.7331 253.875 90.6798 254.16 89.3251 254.16ZM95.0968 254V245.272H97.3048L97.2968 254H95.0968ZM96.2088 244.128C95.8248 244.128 95.4994 243.995 95.2328 243.728C94.9661 243.461 94.8328 243.12 94.8328 242.704C94.8328 242.288 94.9661 241.949 95.2328 241.688C95.5048 241.421 95.8301 241.288 96.2088 241.288C96.5874 241.288 96.9101 241.421 97.1768 241.688C97.4488 241.949 97.5848 242.288 97.5848 242.704C97.5848 243.12 97.4488 243.461 97.1768 243.728C96.9101 243.995 96.5874 244.128 96.2088 244.128ZM99.5186 254V245.272H101.463L101.671 248.56L101.559 247.896C101.623 247.416 101.743 246.963 101.919 246.536C102.1 246.104 102.372 245.755 102.735 245.488C103.103 245.221 103.596 245.088 104.215 245.088C104.908 245.088 105.476 245.293 105.919 245.704C106.367 246.109 106.641 246.736 106.743 247.584L106.775 247.872V254H104.559V249.016C104.559 248.488 104.511 248.077 104.415 247.784C104.324 247.485 104.188 247.275 104.007 247.152C103.825 247.029 103.599 246.968 103.327 246.968C102.959 246.968 102.636 247.08 102.359 247.304C102.081 247.528 101.873 247.787 101.735 248.08V254H99.5186ZM109.591 254V249.016C109.591 248.488 109.543 248.077 109.447 247.784C109.356 247.485 109.22 247.275 109.039 247.152C108.857 247.029 108.631 246.968 108.359 246.968C107.991 246.968 107.668 247.08 107.391 247.304C107.119 247.528 106.913 247.787 106.775 248.08L106.743 248.56L106.655 247.992C106.708 247.528 106.82 247.075 106.991 246.632C107.161 246.184 107.425 245.816 107.783 245.528C108.145 245.235 108.633 245.088 109.247 245.088C110.031 245.088 110.652 245.347 111.111 245.864C111.575 246.376 111.807 247.16 111.807 248.216V254H109.591Z" fill="#024039"/>
<path d="M127.608 242.364V254H126.574L119.699 244.256H119.608V254H118.545V242.364H119.574L126.472 252.119H126.562V242.364H127.608ZM130.702 254V242.364H137.452V243.318H131.764V247.699H137.094V248.653H131.764V253.045H137.565V254H130.702ZM140.384 242.364L143.605 247.415H143.679L146.901 242.364H148.156L144.412 248.182L148.156 254H146.901L143.679 249.006H143.605L140.384 254H139.128L142.929 248.182L139.128 242.364H140.384ZM149.466 243.318V242.364H157.903V243.318H154.216V254H153.153V243.318H149.466Z" fill="#024039"/>
</g>
<defs>
<linearGradient id="paint0_linear_2057_1670" x1="0" y1="0" x2="475" y2="698" gradientUnits="userSpaceOnUse">
<stop stop-color="#F2FFF9"/>
<stop offset="0.139174" stop-color="#C7EAE2"/>
<stop offset="0.298077" stop-color="#A6DAD2"/>
<stop offset="0.567308" stop-color="#BBD7F4"/>
<stop offset="0.774038" stop-color="#D2DADA"/>
<stop offset="1" stop-color="#F4DEB4"/>
</linearGradient>
<clipPath id="clip0_2057_1670">
<rect width="110" height="126" fill="white" transform="translate(49 128)"/>
</clipPath>
</defs>
</svg>
